<?xml version="1.0" encoding="utf-8"?>
<!-- Generator: Adobe Illustrator 23.1.1, SVG Export Plug-In . SVG Version: 6.00 Build 0)  -->
<svg version="1.1" id="Layer_1" xmlns="http://www.w3.org/2000/svg" xmlns:xlink="http://www.w3.org/1999/xlink" x="0px" y="0px"
	 viewBox="0 0 676.3 525" style="enable-background:new 0 0 676.3 525;" xml:space="preserve">
<style type="text/css">
	.st0{fill:#FFFFFF;}
	.st1{fill:#E38888;}
	.st2{fill:none;stroke:#E38888;stroke-linecap:round;stroke-linejoin:round;stroke-miterlimit:10;}
	.st3{fill:none;stroke:#E38888;stroke-width:0.6897;stroke-linecap:round;stroke-linejoin:round;stroke-miterlimit:10;}
	.st4{fill:none;stroke:#E38888;stroke-width:0.6897;stroke-miterlimit:10;}
	.st5{font-family:'MyriadPro-Regular';}
	.st6{font-size:12px;}
	.st7{fill:none;stroke:#E38888;stroke-width:0.7502;stroke-linecap:round;stroke-linejoin:round;stroke-miterlimit:10;}
	.st8{font-size:18px;}
</style>
<g>
	<path class="st0" d="M671.3,0H5.3c-2.8,0-5,2.2-5,5v76.1h676V5C676.3,2.2,674.1,0,671.3,0z"/>
</g>
<g>
	<path class="st0" d="M0.3,520c0,2.8,2.2,5,5,5h666c2.8,0,5-2.2,5-5V81.1H0.3V520z"/>
</g>
<g>
	<path class="st1" d="M671.3,1c3.5,0,4,4.4,4,7v514.4c-0.7,0.5-2.3,1.6-4,1.6H5.3c-1.7,0-3.3-1.1-4-1.6c0,0,0,0,0,0V8
		c0-2.6,0.5-7,4-7H671.3 M671.3,0H5.3c-2.8,0-5,2.2-5,8v515c0,0,0,0,0,0c0.2,0,2.4,2,5,2h666c2.6,0,4.8-2,5-2c0,0,0,0,0,0V8
		C676.3,2.2,674.1,0,671.3,0L671.3,0z"/>
</g>
<g>
	<path class="st2" d="M11.7,19.7c0-3.7,3-6.7,6.7-6.7c3.7,0,6.7,3,6.7,6.7c0,3.7-3,6.7-6.7,6.7C14.6,26.4,11.7,23.4,11.7,19.7z"/>
	<path class="st2" d="M32.2,19.7c0-3.7,3-6.7,6.7-6.7c3.7,0,6.7,3,6.7,6.7c0,3.7-3,6.7-6.7,6.7C35.1,26.4,32.2,23.4,32.2,19.7z"/>
	<path class="st2" d="M52.2,19.7c0-3.7,3-6.7,6.7-6.7c3.7,0,6.7,3,6.7,6.7c0,3.7-3,6.7-6.7,6.7C55.1,26.4,52.2,23.4,52.2,19.7z"/>
</g>
<line class="st2" x1="0" y1="81.1" x2="676.3" y2="81.1"/>
<polyline class="st2" points="25,68.5 13,56.5 25,44.5 "/>
<polyline class="st2" points="52.7,44.5 64.7,56.5 52.7,68.5 "/>
<g>
	<rect x="95.3" y="49.5" class="st2" width="16.1" height="16.1"/>
	<polyline class="st2" points="91.2,66.5 88.4,66.5 88.4,48.6 91.2,48.6 	"/>
	<line class="st2" x1="84.3" y1="68.5" x2="84.3" y2="46.6"/>
	<line class="st2" x1="122.3" y1="46.6" x2="122.3" y2="68.5"/>
	<polyline class="st2" points="115.5,66.5 118.2,66.5 118.2,48.6 115.5,48.6 	"/>
</g>
<g>
	<g>
		<circle class="st3" cx="312.8" cy="20" r="10"/>
		<path class="st3" d="M318.5,22c0,3.1-2.6,4.7-5.7,4.7c-3.1,0-5.7-1.5-5.7-4.7H318.5z"/>
		<g>
			<path class="st4" d="M311.5,17.6c0,1.1-0.9,2.1-2.1,2.1c-1.1,0-2.1-0.9-2.1-2.1c0-1.1,0.9-2.1,2.1-2.1
				C310.6,15.5,311.5,16.4,311.5,17.6z"/>
			<path class="st4" d="M318.2,17.6c0,1.1-0.9,2.1-2.1,2.1c-1.1,0-2.1-0.9-2.1-2.1c0-1.1,0.9-2.1,2.1-2.1
				C317.3,15.5,318.2,16.4,318.2,17.6z"/>
		</g>
	</g>
	<text transform="matrix(1 0 0 1 328.6994 24.4904)" class="st1 st5 st6">Fun Stuff</text>
</g>
<g>
	<path class="st2" d="M661.3,59c0,5.5-4.5,10-10,10h-132c-5.5,0-10-4.5-10-10v-8c0-5.5,4.5-10,10-10h132c5.5,0,10,4.5,10,10V59z"/>
	<g>
		<path class="st2" d="M518.3,54.3c0-2.9,2.4-5.3,5.3-5.3l0,0c2.9,0,5.3,2.4,5.3,5.3l0,0c0,2.9-2.4,5.3-5.3,5.3l0,0
			C520.7,59.7,518.3,57.3,518.3,54.3L518.3,54.3z"/>
		<line class="st2" x1="526.7" y1="58.3" x2="530.5" y2="62.2"/>
		<path class="st7" d="M523,51L523,51c2.2,0,4,1.8,4,4l0,0"/>
	</g>
</g>
<line class="st2" x1="671.9" y1="417.1" x2="4.9" y2="417.1"/>
<line class="st2" x1="4.9" y1="384.1" x2="671.9" y2="384.1"/>
<text transform="matrix(1 0 0 1 11.325 405)" class="st1 st5 st6">Name</text>
<text transform="matrix(1 0 0 1 423.397 405)" class="st1 st5 st6">Kind</text>
<g>
	<text transform="matrix(1 0 0 1 14.333 443.004)" class="st1 st5 st8">Rapid Fire Chat</text>
	<text transform="matrix(1 0 0 1 424.333 443.004)" class="st1 st5 st8">Logo</text>
</g>
<g>
	<text transform="matrix(1 0 0 1 14.333 512.016)" class="st1 st5 st8">Attack of the Clowns</text>
	<text transform="matrix(1 0 0 1 424.333 512.016)" class="st1 st5 st8">Sprite Sheet</text>
</g>
<g>
	<text transform="matrix(1 0 0 1 14.333 477.5098)" class="st1 st5 st8">Robot Saves Puppy</text>
	<text transform="matrix(1 0 0 1 424.333 477.5098)" class="st1 st5 st8">Card Game</text>
</g>
</svg>
