<?xml version="1.0" encoding="utf-8"?>
<!-- Generator: Adobe Illustrator 23.1.1, SVG Export Plug-In . SVG Version: 6.00 Build 0)  -->
<svg version="1.1" id="Layer_1" xmlns="http://www.w3.org/2000/svg" xmlns:xlink="http://www.w3.org/1999/xlink" x="0px" y="0px"
	 viewBox="0 0 676 48.6" style="enable-background:new 0 0 676 48.6;" xml:space="preserve">
<style type="text/css">
	.st0{fill:#FFFFFF;}
	.st1{fill:none;stroke:#E38888;stroke-linecap:round;stroke-linejoin:round;stroke-miterlimit:10;}
	.st2{fill:none;stroke:#E38888;stroke-miterlimit:10;}
</style>
<g>
	<path class="st0" d="M671,0H5C2.2,0,0,2.2,0,5v43.1h676V5C676,2.2,673.8,0,671,0z"/>
</g>
<circle class="st1" cx="18" cy="24.7" r="6.7"/>
<circle class="st1" cx="38.5" cy="24.7" r="6.7"/>
<circle class="st1" cx="58.5" cy="24.7" r="6.7"/>
<path class="st1" d="M639,24.7c0,7.1-6.5,12.9-14.6,12.9H161.7c-8.1,0-14.6-5.8-14.6-12.9l0,0c0-7.1,6.5-12.9,14.6-12.9h462.8
	C632.5,11.8,639,17.6,639,24.7L639,24.7z"/>
<g>
	<polyline class="st1" points="87.5,24.8 75,24.8 81,18.8 	"/>
	<polyline class="st1" points="87.5,24.7 75,24.7 81,30.7 	"/>
</g>
<g>
	<polyline class="st1" points="94,24.8 106.5,24.8 100.5,18.8 	"/>
	<polyline class="st1" points="94,24.7 106.5,24.7 100.5,30.7 	"/>
</g>
<g>
	<polyline class="st1" points="121.8,22 127,22 127.1,16.8 	"/>
	<path class="st1" d="M128,26.9c-0.4,2.2-1.8,4.2-4.1,5.2c-3.5,1.6-7.7,0-9.2-3.6c-1.6-3.5,0-7.7,3.6-9.2c2.9-1.3,6.3-0.4,8.2,1.9"
		/>
</g>
<g>
	<circle class="st2" cx="654.8" cy="18.3" r="2.2"/>
	<circle class="st2" cx="654.8" cy="24.7" r="2.2"/>
	<circle class="st2" cx="654.8" cy="31.2" r="2.2"/>
</g>
<line class="st1" x1="0" y1="48.1" x2="676" y2="48.1"/>
</svg>
