<?xml version="1.0" encoding="utf-8"?>
<!-- Generator: Adobe Illustrator 16.0.0, SVG Export Plug-In . SVG Version: 6.00 Build 0)  -->
<!DOCTYPE svg PUBLIC "-//W3C//DTD SVG 1.1//EN" "http://www.w3.org/Graphics/SVG/1.1/DTD/svg11.dtd">
<svg version="1.1" id="Layer_1" xmlns="http://www.w3.org/2000/svg" xmlns:xlink="http://www.w3.org/1999/xlink" x="0px" y="0px"
	 width="48px" height="48px" viewBox="0 0 48 48" enable-background="new 0 0 48 48" xml:space="preserve">
<g id="Sffu4V_1_">
	<g>
		<g>
			<path fill-rule="evenodd" clip-rule="evenodd" fill="#E38788" d="M8.861,23.94c1.075-0.425,1.732-0.686,2.587-1.025
				c-2.49-0.553-3.308,0.052-3.443,2.23c-0.158,2.561-0.446,5.116-0.507,7.681c-0.031,1.283-0.668,1.6-1.707,1.697
				c-2.421,0.227-3.19-0.464-2.564-2.781c0.803-2.979,1.858-5.894,2.919-8.793c0.182-0.5,0.926-0.792,1.364-1.42
				c-0.785,0.228-1.569,0.457-2.354,0.685c0.024,0.129,0.049,0.26,0.073,0.39c-1.426-0.509-2.852-1.018-4.597-1.641
				c0.625-0.298,1.012-0.518,1.423-0.676c6.88-2.66,13.759-5.322,20.651-7.947c0.502-0.191,1.183-0.301,1.657-0.121
				c7.267,2.752,14.511,5.556,21.758,8.353c0.168,0.065,0.312,0.19,0.796,0.493c-5.347,1.772-10.397,3.452-15.452,5.117
				c-1.212,0.399-2.488,0.646-3.653,1.15c-2.711,1.174-5.303,1.099-8.081,0.048C16.301,26.084,12.736,25.147,8.861,23.94z"/>
			<path fill-rule="evenodd" clip-rule="evenodd" fill="#E38788" d="M37.689,25.896c0,2.452,0.028,4.724-0.01,6.995
				c-0.028,1.676-1.139,2.671-2.43,3.48c-2.528,1.584-5.374,2.182-8.284,2.461c-4.467,0.427-8.866,0.142-13.078-1.606
				c-2.761-1.146-4.519-2.882-4.118-6.198c0.198-1.643,0.034-3.327,0.034-5.128c4.101,1.258,8.06,2.418,11.98,3.702
				c1.332,0.437,2.523,0.469,3.862,0.028C29.568,28.345,33.529,27.176,37.689,25.896z"/>
		</g>
	</g>
</g>
</svg>
