<?xml version="1.0" encoding="utf-8"?>
<!-- Generator: Adobe Illustrator 16.0.0, SVG Export Plug-In . SVG Version: 6.00 Build 0)  -->
<!DOCTYPE svg PUBLIC "-//W3C//DTD SVG 1.1//EN" "http://www.w3.org/Graphics/SVG/1.1/DTD/svg11.dtd">
<svg version="1.1" id="Layer_1" xmlns="http://www.w3.org/2000/svg" xmlns:xlink="http://www.w3.org/1999/xlink" x="0px" y="0px"
	 width="48px" height="48px" viewBox="0 0 48 48" enable-background="new 0 0 48 48" xml:space="preserve">
<g id="Sffu4V_1_">
	<g>
		<g>
			<path fill="#E38788" d="M8.861,18.937c1.075-0.425,1.732-0.686,2.587-1.025c-2.49-0.553-3.308,0.052-3.443,2.229
				c-0.158,2.562-0.446,5.116-0.507,7.682c-0.031,1.283-0.668,1.6-1.707,1.697c-2.421,0.227-3.19-0.465-2.564-2.781
				c0.803-2.979,1.858-5.895,2.919-8.793c0.182-0.5,0.926-0.792,1.364-1.42c-0.785,0.228-1.569,0.457-2.354,0.685
				c0.024,0.129,0.049,0.26,0.073,0.39c-1.426-0.509-2.852-1.018-4.597-1.641c0.625-0.298,1.012-0.518,1.423-0.676
				c6.88-2.66,13.759-5.322,20.651-7.947c0.502-0.191,1.183-0.301,1.657-0.121c7.267,2.752,14.511,5.556,21.758,8.353
				c0.168,0.065,0.312,0.19,0.796,0.493c-5.347,1.772-10.397,3.453-15.452,5.117c-1.212,0.399-2.488,0.646-3.652,1.15
				c-2.711,1.174-5.304,1.1-8.082,0.048C16.301,21.081,12.736,20.144,8.861,18.937z"/>
			<path fill="#E38788" d="M37.689,20.894c0,2.451,0.027,4.724-0.01,6.994c-0.029,1.676-1.14,2.672-2.431,3.48
				c-2.528,1.584-5.374,2.182-8.284,2.461c-4.467,0.427-8.866,0.143-13.078-1.605c-2.761-1.146-4.519-2.883-4.118-6.199
				c0.198-1.643,0.034-3.326,0.034-5.127c4.101,1.258,8.06,2.418,11.98,3.701c1.332,0.438,2.523,0.469,3.861,0.028
				C29.568,23.343,33.529,22.173,37.689,20.894z"/>
		</g>
	</g>
</g>
</svg>
