<?xml version="1.0" encoding="utf-8"?>
<!-- Generator: Adobe Illustrator 16.0.0, SVG Export Plug-In . SVG Version: 6.00 Build 0)  -->
<!DOCTYPE svg PUBLIC "-//W3C//DTD SVG 1.1//EN" "http://www.w3.org/Graphics/SVG/1.1/DTD/svg11.dtd">
<svg version="1.1" id="Layer_1" xmlns="http://www.w3.org/2000/svg" xmlns:xlink="http://www.w3.org/1999/xlink" x="0px" y="0px"
	 width="48px" height="48px" viewBox="0 0 48 48" enable-background="new 0 0 48 48" xml:space="preserve">
<g>
	<g>
		<path fill="#E38788" d="M30.944,6.279c0.158-0.157,0.522-0.046,0.816,0.246l7.266,7.268c0.293,0.293,0.403,0.658,0.248,0.814
			L36.8,17.082c-0.156,0.157-0.521,0.047-0.815-0.247l-7.268-7.266c-0.292-0.294-0.403-0.659-0.246-0.815L30.944,6.279z"/>
	</g>
	<g>
		<path fill="#E38788" d="M30.247,12.654c0.914-0.915,1.725-1.585,1.812-1.5l2.132,2.134c0.087,0.086-0.585,0.896-1.498,1.81
			L18.281,29.51c-0.914,0.914-1.724,1.585-1.811,1.499l-2.133-2.134c-0.086-0.086,0.585-0.896,1.499-1.811L30.247,12.654z"/>
	</g>
	<g>
		
			<line fill="none" stroke="#E38788" stroke-width="2.0768" stroke-linecap="round" stroke-miterlimit="10" x1="11.662" y1="25.572" x2="2.264" y2="34.97"/>
		
			<line fill="none" stroke="#E38788" stroke-width="2.0768" stroke-linecap="round" stroke-miterlimit="10" x1="14.313" y1="28.224" x2="4.916" y2="37.621"/>
		
			<line fill="none" stroke="#E38788" stroke-width="2.0768" stroke-linecap="round" stroke-miterlimit="10" x1="16.965" y1="30.875" x2="7.568" y2="40.273"/>
		
			<line fill="none" stroke="#E38788" stroke-width="2.0768" stroke-linecap="round" stroke-miterlimit="10" x1="19.618" y1="33.527" x2="10.219" y2="42.926"/>
	</g>
	<g>
		<path fill="#E38788" d="M20.241,35.176c-0.262,0-0.524-0.101-0.725-0.3l-9.153-9.154c-0.399-0.4-0.399-1.049,0-1.449
			c0.4-0.401,1.048-0.401,1.449,0l9.154,9.154c0.4,0.399,0.4,1.048,0,1.449C20.766,35.075,20.503,35.176,20.241,35.176z"/>
	</g>
</g>
<g>
	<path fill="#E38788" d="M9.678,14.634c-0.156-0.157-0.046-0.521,0.246-0.815l7.268-7.268c0.293-0.292,0.658-0.404,0.814-0.247
		l2.474,2.475c0.157,0.156,0.047,0.521-0.247,0.815l-7.266,7.267c-0.294,0.293-0.659,0.404-0.815,0.247L9.678,14.634z"/>
	<path fill="#E38788" d="M16.053,15.332c-0.915-0.914-1.579-1.73-1.486-1.824l2.314-2.314c0.094-0.093,0.911,0.572,1.824,1.485
		L33.116,27.09c0.913,0.915,1.578,1.73,1.486,1.825l-2.315,2.312c-0.094,0.095-0.91-0.57-1.823-1.485L16.053,15.332z"/>
	<g>
		<path fill="#E38788" d="M26.694,35.132c3.9,3.9,14.463,6.596,16.312,4.747c0.053-0.053,0.101-0.115,0.143-0.188L32.44,29.236
			C29.371,31.989,24.746,33.183,26.694,35.132z"/>
	</g>
	<g>
		<path fill="#E38788" d="M38.241,23.587c3.898,3.899,6.85,14.206,5.001,16.055c-0.053,0.053-0.116,0.102-0.188,0.143L32.347,29.331
			C35.097,26.262,36.291,21.637,38.241,23.587z"/>
	</g>
	<path fill="none" stroke="#FFFFFF" stroke-width="1.7697" stroke-linecap="round" stroke-miterlimit="10" d="M36.372,29.696
		c0,0,1.323-1.079,2.366-0.038c1.04,1.043,2.202,4.607,2.202,4.607"/>
</g>
</svg>
