<?xml version="1.0" encoding="utf-8"?>
<!-- Generator: Adobe Illustrator 23.1.1, SVG Export Plug-In . SVG Version: 6.00 Build 0)  -->
<svg version="1.1" id="Layer_1" xmlns="http://www.w3.org/2000/svg" xmlns:xlink="http://www.w3.org/1999/xlink" x="0px" y="0px"
	 viewBox="0 0 676.3 81.6" style="enable-background:new 0 0 676.3 81.6;" xml:space="preserve">
<style type="text/css">
	.st0{fill:#FFFFFF;}
	.st1{fill:none;}
	.st2{fill:none;stroke:#E38888;stroke-linecap:round;stroke-linejoin:round;stroke-miterlimit:10;}
	.st3{fill:none;stroke:#E38888;stroke-width:0.6897;stroke-linecap:round;stroke-linejoin:round;stroke-miterlimit:10;}
	.st4{fill:none;stroke:#E38888;stroke-width:0.6897;stroke-miterlimit:10;}
	.st5{fill:#E38888;}
	.st6{fill:none;stroke:#E38888;stroke-width:0.7502;stroke-linecap:round;stroke-linejoin:round;stroke-miterlimit:10;}
</style>
<g>
	<path class="st0" d="M671.3,0H5.3c-2.8,0-5,2.2-5,5v76.1h676V5C676.3,2.2,674.1,0,671.3,0z"/>
</g>
<g>
	<path class="st0" d="M0.3,520c0,2.8,2.2,5,5,5h666c2.8,0,5-2.2,5-5V81.1H0.3V520z"/>
</g>
<g>
	<path class="st1" d="M676.3,523c0-0.2-2.2,2-5,2H5.3c-2.8,0-5-2.2-5-2V8c0-5.8,2.2-8,5-8h666c2.8,0,5,2.2,5,8V523z"/>
</g>
<g>
	<path class="st2" d="M11.7,19.7c0-3.7,3-6.7,6.7-6.7c3.7,0,6.7,3,6.7,6.7c0,3.7-3,6.7-6.7,6.7C14.6,26.4,11.7,23.4,11.7,19.7z"/>
	<path class="st2" d="M32.2,19.7c0-3.7,3-6.7,6.7-6.7c3.7,0,6.7,3,6.7,6.7c0,3.7-3,6.7-6.7,6.7C35.1,26.4,32.2,23.4,32.2,19.7z"/>
	<path class="st2" d="M52.2,19.7c0-3.7,3-6.7,6.7-6.7c3.7,0,6.7,3,6.7,6.7c0,3.7-3,6.7-6.7,6.7C55.1,26.4,52.2,23.4,52.2,19.7z"/>
</g>
<line class="st2" x1="0" y1="81.1" x2="676.3" y2="81.1"/>
<polyline class="st2" points="25,68.5 13,56.5 25,44.5 "/>
<polyline class="st2" points="52.7,44.5 64.7,56.5 52.7,68.5 "/>
<g>
	<rect x="95.3" y="49.5" class="st2" width="16.1" height="16.1"/>
	<polyline class="st2" points="91.2,66.5 88.4,66.5 88.4,48.6 91.2,48.6 	"/>
	<line class="st2" x1="84.3" y1="68.5" x2="84.3" y2="46.6"/>
	<line class="st2" x1="122.3" y1="46.6" x2="122.3" y2="68.5"/>
	<polyline class="st2" points="115.5,66.5 118.2,66.5 118.2,48.6 115.5,48.6 	"/>
</g>
<g>
	<g>
		<circle class="st3" cx="312.8" cy="20" r="10"/>
		<path class="st3" d="M318.5,22c0,3.1-2.6,4.7-5.7,4.7c-3.1,0-5.7-1.5-5.7-4.7H318.5z"/>
		<g>
			<path class="st4" d="M311.5,17.6c0,1.1-0.9,2.1-2.1,2.1c-1.1,0-2.1-0.9-2.1-2.1c0-1.1,0.9-2.1,2.1-2.1
				C310.6,15.5,311.5,16.4,311.5,17.6z"/>
			<path class="st4" d="M318.2,17.6c0,1.1-0.9,2.1-2.1,2.1c-1.1,0-2.1-0.9-2.1-2.1c0-1.1,0.9-2.1,2.1-2.1
				C317.3,15.5,318.2,16.4,318.2,17.6z"/>
		</g>
	</g>
	<g>
		<path class="st5" d="M329.6,16.4h4.4v0.9h-3.3V20h3.1v0.9h-3.1v3.7h-1V16.4z"/>
		<path class="st5" d="M339.9,22.9c0,0.6,0,1.1,0,1.6H339l-0.1-0.9h0c-0.3,0.5-0.9,1.1-1.9,1.1c-0.9,0-2-0.5-2-2.5v-3.4h1.1v3.2
			c0,1.1,0.3,1.8,1.3,1.8c0.7,0,1.2-0.5,1.4-1c0.1-0.2,0.1-0.3,0.1-0.5v-3.6h1.1V22.9z"/>
		<path class="st5" d="M341.6,20.3c0-0.6,0-1.1,0-1.6h0.9l0.1,1h0c0.3-0.6,1-1.1,1.9-1.1c0.8,0,2.1,0.5,2.1,2.5v3.5h-1.1v-3.3
			c0-0.9-0.3-1.7-1.3-1.7c-0.7,0-1.2,0.5-1.4,1.1c0,0.1-0.1,0.3-0.1,0.5v3.5h-1.1V20.3z"/>
		<path class="st5" d="M350.7,23.2c0.5,0.3,1.2,0.5,1.9,0.5c1.1,0,1.7-0.6,1.7-1.4c0-0.8-0.4-1.2-1.5-1.6c-1.3-0.5-2.1-1.2-2.1-2.3
			c0-1.3,1-2.2,2.6-2.2c0.8,0,1.4,0.2,1.8,0.4l-0.3,0.9c-0.3-0.1-0.8-0.4-1.5-0.4c-1.1,0-1.5,0.7-1.5,1.2c0,0.8,0.5,1.1,1.6,1.6
			c1.4,0.5,2.1,1.2,2.1,2.4c0,1.2-0.9,2.3-2.8,2.3c-0.8,0-1.6-0.2-2.1-0.5L350.7,23.2z"/>
		<path class="st5" d="M358,17v1.7h1.5v0.8H358v3.1c0,0.7,0.2,1.1,0.8,1.1c0.3,0,0.5,0,0.6-0.1l0,0.8c-0.2,0.1-0.5,0.1-0.9,0.1
			c-0.5,0-0.9-0.2-1.1-0.4c-0.3-0.3-0.4-0.8-0.4-1.5v-3.2H356v-0.8h0.9v-1.4L358,17z"/>
		<path class="st5" d="M365.5,22.9c0,0.6,0,1.1,0,1.6h-0.9l-0.1-0.9h0c-0.3,0.5-0.9,1.1-1.9,1.1c-0.9,0-2-0.5-2-2.5v-3.4h1.1v3.2
			c0,1.1,0.3,1.8,1.3,1.8c0.7,0,1.2-0.5,1.4-1c0.1-0.2,0.1-0.3,0.1-0.5v-3.6h1.1V22.9z"/>
		<path class="st5" d="M370.9,24.5v-5h-2.4v5h-1v-5h-0.8v-0.8h0.8v-0.2c0-0.8,0.2-1.5,0.6-2c0.3-0.3,0.8-0.5,1.5-0.5
			c0.3,0,0.6,0.1,0.8,0.2l-0.2,0.8c-0.2-0.1-0.4-0.1-0.6-0.1c-0.8,0-1.1,0.7-1.1,1.6v0.3h2.4v-0.3c0-0.8,0.2-1.6,0.7-2
			c0.4-0.4,0.9-0.5,1.4-0.5c0.4,0,0.7,0.1,0.9,0.2l-0.1,0.8c-0.2-0.1-0.4-0.1-0.7-0.1c-0.9,0-1.1,0.8-1.1,1.7v0.3h1.4v0.8h-1.4v5
			H370.9z"/>
	</g>
</g>
<g>
	<path class="st2" d="M661.3,59c0,5.5-4.5,10-10,10h-132c-5.5,0-10-4.5-10-10v-8c0-5.5,4.5-10,10-10h132c5.5,0,10,4.5,10,10V59z"/>
	<g>
		<path class="st2" d="M518.3,54.3c0-2.9,2.4-5.3,5.3-5.3l0,0c2.9,0,5.3,2.4,5.3,5.3l0,0c0,2.9-2.4,5.3-5.3,5.3l0,0
			C520.7,59.7,518.3,57.3,518.3,54.3L518.3,54.3z"/>
		<line class="st2" x1="526.7" y1="58.3" x2="530.5" y2="62.2"/>
		<path class="st6" d="M523,51L523,51c2.2,0,4,1.8,4,4l0,0"/>
	</g>
</g>
</svg>
