<?xml version="1.0" encoding="utf-8"?>
<!-- Generator: Adobe Illustrator 23.1.1, SVG Export Plug-In . SVG Version: 6.00 Build 0)  -->
<svg version="1.1" id="Layer_1" xmlns="http://www.w3.org/2000/svg" xmlns:xlink="http://www.w3.org/1999/xlink" x="0px" y="0px"
	 viewBox="0 0 506.5 128.1" style="enable-background:new 0 0 506.5 128.1;" xml:space="preserve">
<g>
	<g>
		<path d="M498,0c0.5,0.1,1.1,0.3,1.6,0.4c4.2,1.1,7,4.7,7,9.3c0,27.8,0,55.6,0,83.5c0,8.5,0,17.1,0,25.6c0,4.6-2.8,8.1-7.3,9.1
			c-0.6,0.1-1.2,0.2-1.8,0.2c-36.7,0-73.4,0-110.1,0c-4.9,0-8.9-4-9-8.9c0-0.2,0-0.5,0-0.7c0-36.2,0-72.5,0-108.7
			c0-4.6,2.7-8.2,7-9.3c0.6-0.2,1.2-0.3,1.8-0.5C424.1,0,461,0,498,0z M446.7,56.3c0-2.5,0-4.7,0-6.8c0-1.1-0.3-1.4-1.4-1.4
			c-5.2,0.1-10.5,0.1-15.7,0c-1.2,0-1.5,0.3-1.5,1.5c0,19.5,0,39,0,58.4c0,1.2,0.4,1.6,1.6,1.6c5.4-0.1,10.8,0,16.2,0
			c1.2,0,1.6-0.3,1.6-1.5c-0.1-9.7-0.1-19.5,0-29.2c0-2,0.1-4.1,0.5-6.1c1.4-8.1,6.7-10,13.3-9c4,0.6,6,3.5,6.6,7.3
			c0.5,2.7,0.7,5.5,0.7,8.2c0.1,9.6,0.1,19.2,0,28.9c0,1.1,0.3,1.5,1.5,1.5c5.4-0.1,10.9,0,16.3,0c1.1,0,1.4-0.3,1.4-1.4
			c0-12,0.1-23.9-0.1-35.9c-0.1-3.6-0.6-7.3-1.4-10.9c-1.6-6.7-5.5-11.6-12.4-13.6c-2.2-0.6-4.4-0.9-6.7-1.1
			c-7.4-0.7-13.7,1.5-18.6,7.2C447.9,54.5,447.4,55.3,446.7,56.3z M416.5,78.7c0-9.7,0-19.3,0-29c0-1.7,0-1.7-1.6-1.7
			c-5.4,0-10.9,0-16.3,0c-1.2,0-1.5,0.4-1.5,1.5c0,19.5,0,38.9,0,58.4c0,1.2,0.3,1.6,1.6,1.6c5.4-0.1,10.8,0,16.2,0
			c1.6,0,1.6,0,1.6-1.6C416.5,98.2,416.5,88.4,416.5,78.7z M406.8,17.6c-6.2,0-11.1,4.9-11.1,11.1c0,6.2,5,11.2,11.2,11.1
			c6.1,0,11.1-5,11.1-11.1C417.9,22.5,413,17.6,406.8,17.6z"/>
		<path d="M340.2,54.3c0-0.6,0-1,0-1.5c0-10.7,0-21.3,0-32c0-1.6,0-1.6,1.5-1.6c5.3,0,10.6,0,15.8,0c1.1,0,1.5,0.3,1.5,1.5
			c0,29,0,58,0,87.1c0,1.1-0.3,1.5-1.5,1.5c-4.8-0.1-9.5-0.1-14.3,0c-1.1,0-1.6-0.2-1.5-1.4c0.1-1.8,0-3.5,0-5.3
			c0-0.4,0-0.8-0.1-1.6c-0.6,0.7-1,1.1-1.4,1.5c-4.1,4.8-9.4,7.7-15.6,8.2c-12.7,1-25-4.8-29.9-18c-4.5-12-3.3-23.7,3.7-34.5
			c4-6.2,9.9-10.2,17.3-11.4c6.1-1,12-0.4,17.6,2.3c2.3,1.1,4.2,2.6,5.8,4.6c0.2,0.2,0.4,0.4,0.6,0.6
			C339.8,54.2,339.9,54.2,340.2,54.3z M326.4,94.3c0.9-0.1,1.8-0.2,2.7-0.3c3.6-0.5,6.8-2,9.2-4.9c2.2-2.7,3.2-5.8,3.4-9.1
			c0.3-5.1-0.8-9.7-4.6-13.3c-2.6-2.5-5.9-3.6-9.4-3.8c-4.7-0.3-9,0.7-12.4,4.2c-3.9,4.1-4.8,9.1-4,14.4
			C312.5,89.5,318.3,94.2,326.4,94.3z"/>
		<path d="M183,72.8c0.8-0.9,1.6-1.8,2.4-2.8c6.1-7,12.1-14,18.2-21c0.4-0.4,1-0.8,1.6-0.8c7.1-0.1,14.2,0,21.2,0
			c0.2,0,0.4,0,0.8,0.1c-0.3,0.4-0.5,0.7-0.8,1c-7.7,8.7-15.4,17.5-23.1,26.2c-0.6,0.7-0.5,1.1,0,1.8c7.5,10.1,15.1,20.2,22.6,30.4
			c0.3,0.4,0.6,0.8,1,1.4c-0.6,0-1,0.1-1.4,0.1c-7,0-13.9,0-20.9,0c-1,0-1.5-0.3-2-1.1c-6.2-9.3-12.4-18.7-18.7-28
			c-0.3-0.4-0.5-0.7-0.8-1.1c-0.1,0-0.2,0-0.3,0.1c0,0.5-0.1,1-0.1,1.4c0,9.1,0,18.2,0,27.3c0,1-0.3,1.4-1.3,1.4
			c-5.4-0.1-10.8,0-16.2,0c-1,0-1.3-0.3-1.3-1.3c0-29.1,0-58.3,0-87.4c0-1.1,0.4-1.3,1.4-1.3c5.4,0,10.7,0,16.1,0
			c1.1,0,1.4,0.4,1.4,1.5c0,16.8,0,33.7,0,50.5c0,0.5,0,1,0,1.5C182.8,72.7,182.9,72.8,183,72.8z"/>
		<path d="M270.6,89.1c4.4,3.2,8.6,6.3,13.1,9.6c-1.2,1.2-2.2,2.4-3.4,3.4c-6,5.3-13.1,8.3-21.2,8.5c-8.7,0.3-16.8-1.8-23.8-7.2
			c-6.6-5.1-10.3-11.8-11.4-20.1c-0.9-7.4,0-14.5,3.8-21c4.8-8.2,12.1-13,21.2-15.1c5.7-1.3,11.5-1.5,17.2,0.1
			c9.7,2.6,15.6,9.1,18.6,18.4c1.1,3.3,1.6,6.6,1.7,10.1c0.1,2.4,0.1,4.9,0.2,7.3c0,0.8-0.2,1.2-1.1,1.1c-0.4,0-0.7,0-1.1,0
			c-13.4,0-26.9,0-40.3,0c-1.9,0-1.9,0.1-1.4,1.9c1.9,6.6,8.5,11,15.3,10.2c5-0.5,8.9-2.8,11.9-6.7
			C270.2,89.6,270.4,89.4,270.6,89.1z M242.6,71.7c0.6,0,1.1,0,1.6,0c6.2,0,12.5,0,18.7,0c1.3,0,2.6,0,3.8,0c0.9,0,1.3-0.3,1.1-1.2
			c-0.2-0.9-0.3-1.8-0.5-2.7c-1.6-4.9-5.9-7.9-11-8c-5.7-0.1-9.9,2.2-12.6,7.3C243,68.4,242.5,69.9,242.6,71.7z"/>
		<path d="M113,56.7c0.4-0.4,0.6-0.6,0.7-0.8c4.3-6.3,10.2-9.3,17.9-9.2c4.1,0.1,8,0.5,11.7,2.4c5,2.5,7.6,6.7,9.1,11.9
			c1.2,4.2,1.5,8.5,1.5,12.9c0,11.2,0,22.4,0,33.7c0,1.6,0,1.6-1.6,1.6c-5.2,0-10.3,0-15.5,0c-1.7,0-1.7,0-1.7-1.6
			c0-9.1,0.1-18.2,0-27.3c0-3.3-0.2-6.7-0.9-10c-1.2-5.8-5.7-7.6-10.9-7c-6.6,0.8-8.6,5.1-9.3,9.8c-0.4,2.4-0.5,4.8-0.5,7.3
			c-0.1,9.1,0,18.3,0,27.4c0,1.2-0.3,1.5-1.5,1.5c-5.4-0.1-10.7,0-16.1,0c-1,0-1.3-0.2-1.3-1.3c0-19.5,0-39,0-58.4
			c0-0.9,0.2-1.3,1.2-1.2c5.2,0,10.5,0,15.7,0c1,0,1.2,0.4,1.2,1.3c0,2,0,4.1,0,6.1C112.8,55.8,112.9,56.1,113,56.7z"/>
		<path d="M19.5,55.2c0,11.5,0,22.9,0,34.4c0,1.6,0,1.6,1.6,1.6c11.2,0,22.5,0,33.7,0c1.1,0,1.5,0.3,1.5,1.5c-0.1,5.1,0,10.2,0,15.3
			c0,1-0.2,1.3-1.3,1.3c-17.9,0-35.8,0-53.7,0c-1,0-1.3-0.3-1.3-1.3c0-29.1,0-58.3,0-87.4c0-1.1,0.3-1.4,1.4-1.3
			c5.6,0,11.2,0,16.8,0c1.1,0,1.4,0.3,1.4,1.4C19.5,32.1,19.5,43.6,19.5,55.2z"/>
		<path d="M65.3,78.7c0-9.7,0-19.4,0-29.1c0-1.1,0.3-1.4,1.4-1.4c5.4,0.1,10.8,0,16.2,0c0.9,0,1.2,0.2,1.2,1.2c0,19.5,0,39,0,58.5
			c0,0.9-0.3,1.2-1.2,1.2c-5.4,0-10.9-0.1-16.3,0c-1.1,0-1.3-0.4-1.3-1.4C65.3,98.1,65.3,88.4,65.3,78.7z"/>
		<path d="M63.8,28.7c0-6.1,4.8-10.9,10.8-10.9c6.2,0,10.8,4.7,11,10.9c0.1,4.9-3.7,11-10.9,10.9C67.4,39.5,63.6,33.7,63.8,28.7z"/>
	</g>
</g>
</svg>
