<?xml version="1.0" encoding="utf-8"?>
<!-- Generator: Adobe Illustrator 16.0.0, SVG Export Plug-In . SVG Version: 6.00 Build 0)  -->
<!DOCTYPE svg PUBLIC "-//W3C//DTD SVG 1.1//EN" "http://www.w3.org/Graphics/SVG/1.1/DTD/svg11.dtd">
<svg version="1.1" id="Layer_1" xmlns="http://www.w3.org/2000/svg" xmlns:xlink="http://www.w3.org/1999/xlink" x="0px" y="0px"
	 width="48px" height="48px" viewBox="0 0 48 48" enable-background="new 0 0 48 48" xml:space="preserve">
<polygon fill="#E38788" stroke="#FFFFFF" stroke-width="0.861" stroke-miterlimit="10" points="24.147,47.269 29.765,38.98 
	39.306,41.624 30.523,18.044 15.365,23.691 "/>
<polygon fill="#E38788" stroke="#FFFFFF" stroke-width="0.861" stroke-miterlimit="10" points="25.857,31.016 21.654,29.78 
	17.448,31.012 14.579,27.699 10.375,26.462 9.754,22.124 6.886,18.81 8.708,14.824 8.086,10.486 11.775,8.118 13.597,4.133 
	17.98,4.134 21.668,1.767 25.354,4.139 29.736,4.141 31.555,8.129 35.24,10.499 34.614,14.837 36.433,18.825 33.562,22.136 
	32.936,26.473 28.73,27.706 "/>
<circle fill="#FFFFFF" cx="21.659" cy="16.679" r="10.045"/>
<polygon fill="#E38788" points="18.969,10.734 22.579,13.584 26.972,12.227 25.377,16.541 28.026,20.301 23.431,20.117 
	20.673,23.798 19.428,19.371 15.076,17.886 18.902,15.333 "/>
</svg>
