<?xml version="1.0" encoding="utf-8"?>
<!-- Generator: Adobe Illustrator 23.1.1, SVG Export Plug-In . SVG Version: 6.00 Build 0)  -->
<svg version="1.1" id="Layer_1" xmlns="http://www.w3.org/2000/svg" xmlns:xlink="http://www.w3.org/1999/xlink" x="0px" y="0px"
	 viewBox="0 0 240.4 425" style="enable-background:new 0 0 240.4 425;" xml:space="preserve">
<style type="text/css">
	.st0{fill:#EEF2F6;stroke:#B8C5D0;stroke-width:1.2121;}
	.st1{fill-rule:evenodd;clip-rule:evenodd;fill:#89969F;}
	.st2{fill:#89969F;}
	.st3{fill-rule:evenodd;clip-rule:evenodd;fill:#B8C5D0;}
	.st4{fill-rule:evenodd;clip-rule:evenodd;fill:#EEF2F6;}
	.st5{fill-rule:evenodd;clip-rule:evenodd;fill:#DEE7EE;}
	.st6{fill:none;stroke:#89969F;stroke-width:0.606;stroke-linecap:square;}
	.st7{fill-rule:evenodd;clip-rule:evenodd;fill:#FFFFFF;stroke:#89969F;stroke-width:0.606;}
	.st8{fill:#FFFFFF;stroke:#89969F;stroke-width:0.606;}
</style>
<g>
	<g>
		<path class="st0" d="M127.1,129.3c1.3,0,2.4,1.1,2.4,2.4v42.4c0,1.3-1.1,2.4-2.4,2.4H84.7c-1.3,0-2.4-1.1-2.4-2.4v-42.4
			c0-1.3,1.1-2.4,2.4-2.4H127.1z"/>
		<path class="st1" d="M123.4,171.8c-0.2-0.2-0.2-0.5,0-0.7c0.2-0.2,0.5-0.2,0.7,0l0.7,0.7l0.7-0.7c0.2-0.2,0.5-0.2,0.7,0
			c0.2,0.2,0.2,0.5,0,0.7l-0.7,0.7l0.7,0.7c0.2,0.2,0.2,0.5,0,0.7s-0.5,0.2-0.7,0l-0.7-0.7l-0.7,0.7c-0.2,0.2-0.5,0.2-0.7,0
			c-0.2-0.2-0.2-0.5,0-0.7l0.7-0.7L123.4,171.8z"/>
		<path class="st2" d="M108.8,140.8h-1.7v-1h4.7v1.8c0,0.4-0.1,0.7-0.2,0.9c-0.1,0.3-0.3,0.5-0.6,0.6c-0.2,0.1-0.5,0.2-0.8,0.2
			c-0.5,0-0.8-0.2-1.1-0.5c-0.3-0.3-0.4-0.8-0.4-1.3V140.8z M109.6,140.8v0.9c0,0.3,0.1,0.5,0.2,0.6c0.1,0.1,0.3,0.2,0.5,0.2
			c0.2,0,0.4-0.1,0.6-0.2c0.1-0.1,0.2-0.3,0.2-0.6v-0.9H109.6z M108.9,144c0.3,0,0.7,0.1,0.9,0.2c0.3,0.1,0.5,0.3,0.6,0.6
			c0.1,0.3,0.2,0.5,0.2,0.9c0,0.5-0.1,0.9-0.4,1.2c-0.3,0.3-0.7,0.5-1.2,0.5l-0.2,0c-0.5,0-1-0.2-1.3-0.5c-0.3-0.3-0.5-0.7-0.5-1.2
			c0-0.5,0.2-0.9,0.5-1.2C107.9,144.2,108.3,144,108.9,144L108.9,144z M108.9,144.9c-0.3,0-0.6,0.1-0.8,0.2
			c-0.2,0.1-0.3,0.3-0.3,0.5c0,0.2,0.1,0.4,0.3,0.5c0.2,0.1,0.5,0.2,0.8,0.2c0.3,0,0.6-0.1,0.8-0.2c0.2-0.1,0.3-0.3,0.3-0.5
			c0-0.2-0.1-0.4-0.3-0.5C109.5,145,109.2,144.9,108.9,144.9z M108.9,147.9c0.5,0,1,0.1,1.3,0.4c0.3,0.2,0.5,0.6,0.5,1
			c0,0.3-0.1,0.6-0.4,0.8h1.8v0.9h-5v-0.8l0.4,0c-0.3-0.2-0.4-0.5-0.4-0.9c0-0.4,0.2-0.7,0.5-1C107.9,148,108.4,147.9,108.9,147.9z
			 M108.9,148.8c-0.3,0-0.6,0.1-0.8,0.2c-0.2,0.1-0.3,0.3-0.3,0.5c0,0.3,0.1,0.5,0.4,0.6h1.4c0.2-0.1,0.4-0.3,0.4-0.6
			C110,149,109.6,148.8,108.9,148.8z M107.8,153.4c0,0.2,0,0.3,0.1,0.4c0.1,0.1,0.2,0.2,0.4,0.2v0.9c-0.2,0-0.5-0.1-0.7-0.2
			c-0.2-0.1-0.4-0.3-0.5-0.5c-0.1-0.2-0.2-0.5-0.2-0.7c0-0.5,0.2-0.9,0.5-1.2c0.3-0.3,0.8-0.4,1.3-0.4h0.1c0.5,0,1,0.1,1.3,0.4
			c0.3,0.3,0.5,0.7,0.5,1.2c0,0.4-0.1,0.8-0.4,1.1c-0.2,0.3-0.6,0.4-1,0.4V154c0.2,0,0.3-0.1,0.4-0.2c0.1-0.1,0.2-0.3,0.2-0.4
			c0-0.2-0.1-0.4-0.2-0.5c-0.2-0.1-0.4-0.2-0.8-0.2h-0.1c-0.4,0-0.6,0.1-0.8,0.2C107.9,153,107.8,153.1,107.8,153.4z M107.1,157.5
			c0.1,0,0.2-0.1,0.3-0.1c-0.3-0.2-0.4-0.5-0.4-0.9c0-0.3,0.1-0.6,0.3-0.9c0.2-0.2,0.5-0.3,0.8-0.3c0.4,0,0.7,0.1,0.9,0.4
			c0.2,0.3,0.3,0.7,0.3,1.2v0.4h0.2c0.2,0,0.3,0,0.4-0.1c0.1-0.1,0.1-0.2,0.1-0.4c0-0.2,0-0.3-0.1-0.4c-0.1-0.1-0.2-0.1-0.3-0.1
			v-0.9c0.2,0,0.4,0.1,0.6,0.2c0.2,0.1,0.3,0.3,0.4,0.5c0.1,0.2,0.1,0.5,0.1,0.8c0,0.4-0.1,0.8-0.3,1c-0.2,0.3-0.5,0.4-0.9,0.4H108
			c-0.3,0-0.6,0-0.8,0.1h-0.1V157.5z M107.8,156.7c0,0.1,0,0.3,0.1,0.4c0.1,0.1,0.1,0.2,0.3,0.3h0.6V157c0-0.5-0.2-0.7-0.5-0.8
			l-0.1,0c-0.1,0-0.2,0-0.3,0.1C107.8,156.5,107.8,156.6,107.8,156.7z M108.1,161.1c0.1,0,0.2-0.1,0.3-0.2c0.1-0.1,0.1-0.3,0.2-0.5
			c0.2-0.8,0.5-1.3,1.1-1.3c0.3,0,0.6,0.1,0.8,0.4c0.2,0.3,0.3,0.6,0.3,1c0,0.4-0.1,0.8-0.3,1.1c-0.2,0.3-0.5,0.4-0.8,0.4V161
			c0.1,0,0.2,0,0.3-0.1c0.1-0.1,0.1-0.2,0.1-0.4c0-0.2,0-0.3-0.1-0.4c-0.1-0.1-0.2-0.1-0.3-0.1c-0.1,0-0.2,0-0.3,0.1
			c-0.1,0.1-0.1,0.3-0.2,0.5c0,0.2-0.1,0.4-0.2,0.6c-0.2,0.5-0.5,0.7-0.9,0.7c-0.3,0-0.6-0.1-0.8-0.4c-0.2-0.3-0.3-0.6-0.3-1.1
			c0-0.3,0.1-0.6,0.2-0.8c0.1-0.2,0.3-0.4,0.4-0.5c0.2-0.1,0.4-0.2,0.6-0.2v0.9c-0.2,0-0.3,0.1-0.4,0.2c-0.1,0.1-0.1,0.3-0.1,0.5
			c0,0.2,0,0.3,0.1,0.4C107.9,161,108,161.1,108.1,161.1z M111.5,163.8h-0.9v0.6H110v-0.6h-1.8c-0.1,0-0.2,0-0.3,0.1
			c-0.1,0-0.1,0.1-0.1,0.3c0,0.1,0,0.2,0,0.3h-0.7c-0.1-0.2-0.1-0.4-0.1-0.6c0-0.7,0.3-1,1-1h1.9v-0.5h0.7v0.5h0.9V163.8z
			 M100.9,144.5h-1.7v-1h4.7v1.8c0,0.4-0.1,0.7-0.2,0.9c-0.1,0.3-0.3,0.5-0.6,0.6c-0.2,0.1-0.5,0.2-0.8,0.2c-0.5,0-0.8-0.2-1.1-0.5
			c-0.3-0.3-0.4-0.8-0.4-1.3V144.5z M101.7,144.5v0.9c0,0.3,0.1,0.5,0.2,0.6c0.1,0.1,0.3,0.2,0.5,0.2c0.2,0,0.4-0.1,0.6-0.2
			c0.1-0.1,0.2-0.3,0.2-0.6v-0.9H101.7z M99.3,148.9V148h5v0.9H99.3z M99.3,151.8c0.1,0,0.2-0.1,0.3-0.1c-0.3-0.2-0.4-0.5-0.4-0.9
			c0-0.3,0.1-0.6,0.3-0.9c0.2-0.2,0.5-0.3,0.8-0.3c0.4,0,0.7,0.1,0.9,0.4c0.2,0.3,0.3,0.7,0.3,1.2v0.4h0.2c0.2,0,0.3,0,0.4-0.1
			c0.1-0.1,0.1-0.2,0.1-0.4c0-0.2,0-0.3-0.1-0.4c-0.1-0.1-0.2-0.1-0.3-0.1v-0.9c0.2,0,0.4,0.1,0.6,0.2c0.2,0.1,0.3,0.3,0.4,0.5
			c0.1,0.2,0.1,0.5,0.1,0.8c0,0.4-0.1,0.8-0.3,1c-0.2,0.3-0.5,0.4-0.9,0.4h-1.5c-0.3,0-0.6,0-0.8,0.1h-0.1V151.8z M99.9,151.1
			c0,0.1,0,0.3,0.1,0.4c0.1,0.1,0.1,0.2,0.3,0.3h0.6v-0.4c0-0.5-0.2-0.7-0.5-0.8l-0.1,0c-0.1,0-0.2,0-0.3,0.1
			C100,150.8,99.9,150.9,99.9,151.1z M100.6,154.8l2.2,0.7v1l-4.1-1.4l-0.2-0.1c-0.5-0.2-0.7-0.6-0.7-1c0-0.1,0-0.3,0.1-0.4h0.7
			l0,0.1c0,0.2,0,0.3,0.1,0.4c0.1,0.1,0.1,0.2,0.3,0.2l0.3,0.1l3.5-1.2v1L100.6,154.8z M99.2,158.5c0-0.5,0.2-0.9,0.5-1.3
			c0.3-0.3,0.7-0.5,1.3-0.5h0.1c0.4,0,0.7,0.1,0.9,0.2c0.3,0.1,0.5,0.3,0.6,0.6c0.2,0.3,0.2,0.5,0.2,0.9c0,0.5-0.2,0.9-0.5,1.1
			c-0.3,0.3-0.7,0.4-1.3,0.4h-0.4v-2.2c-0.2,0-0.4,0.1-0.6,0.3c-0.1,0.2-0.2,0.3-0.2,0.6c0,0.4,0.1,0.6,0.4,0.8l-0.5,0.5
			c-0.2-0.1-0.4-0.3-0.5-0.6C99.3,159,99.2,158.8,99.2,158.5z M102.1,158.4c0-0.2-0.1-0.3-0.2-0.5c-0.1-0.1-0.3-0.2-0.5-0.2v1.3h0.1
			c0.2,0,0.4-0.1,0.5-0.2C102,158.7,102.1,158.6,102.1,158.4z M101.9,162.5c0-0.1,0-0.2,0-0.3c0-0.4-0.1-0.6-0.4-0.7h-2.3v-0.9h3.5
			v0.9l-0.4,0c0.3,0.2,0.5,0.5,0.5,0.8c0,0.1,0,0.2,0,0.3L101.9,162.5z"/>
		<path class="st3" d="M221.7,129.3c1.7,0,3,1.4,3,3v41.8c0,1.7-1.4,3-3,3h-55.8c-1.7,0-3-1.4-3-3v-41.8c0-1.7,1.4-3,3-3H221.7z"/>
		<path class="st4" d="M220.5,129.3v47.9h-54.5c-1.7,0-3-1.4-3-3v-41.8c0-1.7,1.4-3,3-3H220.5z"/>
		<path class="st5" d="M221.7,131.9c0,0.4,0.3,0.8,0.8,0.8c0.4,0,0.8-0.3,0.8-0.8c0-0.4-0.3-0.8-0.8-0.8
			C222,131.1,221.7,131.5,221.7,131.9z"/>
		<path class="st5" d="M221.7,134c0,0.4,0.3,0.8,0.8,0.8c0.4,0,0.8-0.3,0.8-0.8c0-0.4-0.3-0.8-0.8-0.8
			C222,133.2,221.7,133.6,221.7,134z"/>
		<path class="st5" d="M221.7,136.1c0,0.4,0.3,0.8,0.8,0.8c0.4,0,0.8-0.3,0.8-0.8c0-0.4-0.3-0.8-0.8-0.8
			C222,135.3,221.7,135.7,221.7,136.1z"/>
		<path class="st2" d="M194.8,148.8v-0.7h-1.6v-0.9h4.3v1.6c0,0.5-0.1,0.9-0.3,1.2c-0.2,0.3-0.5,0.4-1,0.4c-0.3,0-0.5-0.1-0.7-0.2
			c-0.2-0.1-0.4-0.3-0.5-0.6l-1.8,0.9h0v-1L194.8,148.8z M195.5,148.1v0.7c0,0.2,0.1,0.4,0.2,0.5c0.1,0.1,0.3,0.2,0.5,0.2
			c0.2,0,0.4-0.1,0.5-0.2c0.1-0.1,0.2-0.3,0.2-0.5v-0.7H195.5z M193.2,153c0.1,0,0.2-0.1,0.3-0.1c-0.2-0.2-0.3-0.5-0.3-0.8
			c0-0.3,0.1-0.6,0.3-0.8c0.2-0.2,0.4-0.3,0.7-0.3c0.3,0,0.6,0.1,0.8,0.4c0.2,0.3,0.3,0.6,0.3,1.1v0.4h0.2c0.1,0,0.3,0,0.4-0.1
			c0.1-0.1,0.1-0.2,0.1-0.4c0-0.1,0-0.3-0.1-0.3c-0.1-0.1-0.2-0.1-0.3-0.1v-0.9c0.2,0,0.4,0.1,0.5,0.2c0.2,0.1,0.3,0.3,0.4,0.5
			c0.1,0.2,0.1,0.4,0.1,0.7c0,0.4-0.1,0.7-0.3,0.9c-0.2,0.2-0.5,0.3-0.8,0.3h-1.4c-0.3,0-0.5,0-0.7,0.1h-0.1V153z M193.8,152.3
			c0,0.1,0,0.2,0.1,0.3c0.1,0.1,0.1,0.2,0.2,0.2h0.6v-0.3c0-0.4-0.1-0.7-0.4-0.7l-0.1,0c-0.1,0-0.2,0-0.3,0.1
			C193.8,152,193.8,152.1,193.8,152.3z M197.2,155.5h-0.8v0.5h-0.6v-0.5h-1.6c-0.1,0-0.2,0-0.3,0.1c-0.1,0-0.1,0.1-0.1,0.3
			c0,0.1,0,0.2,0,0.3h-0.6c-0.1-0.2-0.1-0.3-0.1-0.5c0-0.6,0.3-0.9,0.9-0.9h1.7v-0.5h0.6v0.5h0.8V155.5z M193.1,158.1
			c0-0.5,0.1-0.9,0.4-1.1c0.3-0.3,0.7-0.4,1.2-0.4h0.1c0.3,0,0.6,0.1,0.9,0.2c0.3,0.1,0.4,0.3,0.6,0.5c0.1,0.2,0.2,0.5,0.2,0.8
			c0,0.4-0.1,0.8-0.4,1c-0.3,0.3-0.7,0.4-1.2,0.4h-0.3v-2c-0.2,0-0.4,0.1-0.5,0.2c-0.1,0.1-0.2,0.3-0.2,0.5c0,0.3,0.1,0.6,0.4,0.8
			l-0.5,0.4c-0.2-0.1-0.3-0.3-0.4-0.5C193.2,158.6,193.1,158.4,193.1,158.1z M195.8,158c0-0.2-0.1-0.3-0.2-0.4
			c-0.1-0.1-0.3-0.2-0.5-0.2v1.2h0.1c0.2,0,0.3-0.1,0.4-0.2C195.7,158.3,195.8,158.2,195.8,158z M188,142.9c-0.4,0-0.8-0.1-1.1-0.2
			c-0.3-0.1-0.5-0.3-0.7-0.5l-0.6,0.7l-0.5-0.6l0.7-0.9c0-0.1,0-0.2,0-0.3c0-0.4,0.1-0.7,0.3-1c0.2-0.3,0.4-0.5,0.7-0.7
			c0.3-0.2,0.7-0.2,1.1-0.2h0.2c0.4,0,0.8,0.1,1.1,0.2c0.3,0.2,0.6,0.4,0.7,0.6c0.2,0.3,0.3,0.6,0.3,1c0,0.4-0.1,0.7-0.3,1
			c-0.2,0.3-0.4,0.5-0.7,0.6c-0.3,0.2-0.7,0.2-1.1,0.2H188z M188.2,142c0.5,0,0.8-0.1,1-0.2c0.2-0.2,0.4-0.4,0.4-0.7
			c0-0.3-0.1-0.5-0.3-0.7c-0.2-0.2-0.6-0.2-1-0.2H188c-0.4,0-0.8,0.1-1,0.2c-0.2,0.2-0.4,0.4-0.4,0.7c0,0.3,0.1,0.5,0.3,0.7
			c0.2,0.2,0.6,0.2,1,0.2H188.2z M186.3,145.5c-0.3-0.2-0.4-0.5-0.4-0.9c0-0.3,0.1-0.6,0.3-0.8c0.2-0.2,0.5-0.3,0.9-0.3h2.1v0.9
			h-2.1c-0.3,0-0.5,0.2-0.5,0.5c0,0.3,0.1,0.5,0.3,0.6h2.3v0.9h-3.2v-0.8L186.3,145.5z M185.9,148.6c0-0.5,0.1-0.9,0.4-1.1
			c0.3-0.3,0.7-0.4,1.2-0.4h0.1c0.3,0,0.6,0.1,0.9,0.2c0.3,0.1,0.4,0.3,0.6,0.5c0.1,0.2,0.2,0.5,0.2,0.8c0,0.4-0.1,0.8-0.4,1
			c-0.3,0.3-0.7,0.4-1.2,0.4h-0.3v-2c-0.2,0-0.4,0.1-0.5,0.2c-0.1,0.1-0.2,0.3-0.2,0.5c0,0.3,0.1,0.6,0.4,0.8l-0.5,0.4
			c-0.2-0.1-0.3-0.3-0.4-0.5C185.9,149.1,185.9,148.8,185.9,148.6z M188.5,148.5c0-0.2-0.1-0.3-0.2-0.4c-0.1-0.1-0.3-0.2-0.5-0.2
			v1.2h0.1c0.2,0,0.3-0.1,0.4-0.2C188.5,148.8,188.5,148.6,188.5,148.5z M186.8,152.2c0.1,0,0.2-0.1,0.2-0.2
			c0.1-0.1,0.1-0.3,0.2-0.5c0.2-0.8,0.5-1.1,1-1.1c0.3,0,0.5,0.1,0.7,0.4c0.2,0.2,0.3,0.5,0.3,0.9c0,0.4-0.1,0.7-0.3,1
			c-0.2,0.2-0.4,0.4-0.7,0.4v-0.9c0.1,0,0.2,0,0.3-0.1c0.1-0.1,0.1-0.2,0.1-0.4c0-0.1,0-0.3-0.1-0.3c-0.1-0.1-0.1-0.1-0.2-0.1
			c-0.1,0-0.2,0-0.2,0.1c-0.1,0.1-0.1,0.2-0.2,0.5c0,0.2-0.1,0.4-0.1,0.5c-0.2,0.5-0.5,0.7-0.9,0.7c-0.3,0-0.5-0.1-0.7-0.4
			c-0.2-0.3-0.3-0.6-0.3-1c0-0.3,0-0.5,0.1-0.7c0.1-0.2,0.2-0.4,0.4-0.5c0.2-0.1,0.3-0.2,0.5-0.2v0.8c-0.2,0-0.3,0.1-0.3,0.2
			c-0.1,0.1-0.1,0.2-0.1,0.4c0,0.2,0,0.3,0.1,0.4C186.6,152.2,186.7,152.2,186.8,152.2z M189.9,154.7h-0.8v0.5h-0.6v-0.5h-1.6
			c-0.1,0-0.2,0-0.3,0.1c-0.1,0-0.1,0.1-0.1,0.3c0,0.1,0,0.2,0,0.3H186c-0.1-0.2-0.1-0.3-0.1-0.5c0-0.6,0.3-0.9,0.9-0.9h1.7v-0.5
			h0.6v0.5h0.8V154.7z M185.9,156.8v-0.9h3.2v0.9H185.9z M190,155.9c0.1,0,0.2,0,0.3,0.1c0.1,0.1,0.1,0.2,0.1,0.4
			c0,0.1,0,0.3-0.1,0.3c-0.1,0.1-0.2,0.1-0.3,0.1c-0.1,0-0.2,0-0.3-0.1c-0.1-0.1-0.1-0.2-0.1-0.3c0-0.1,0-0.3,0.1-0.3
			C189.7,155.9,189.8,155.9,190,155.9z M187.6,157.5c0.3,0,0.6,0.1,0.8,0.2c0.2,0.1,0.4,0.3,0.6,0.5c0.1,0.2,0.2,0.5,0.2,0.8
			c0,0.4-0.1,0.8-0.4,1.1c-0.3,0.3-0.6,0.4-1.1,0.5l-0.2,0c-0.5,0-0.9-0.1-1.2-0.4c-0.3-0.3-0.4-0.6-0.4-1.1c0-0.5,0.1-0.8,0.4-1.1
			C186.6,157.6,187,157.5,187.6,157.5L187.6,157.5z M187.5,158.3c-0.3,0-0.5,0.1-0.7,0.2c-0.2,0.1-0.2,0.3-0.2,0.5
			c0,0.2,0.1,0.4,0.2,0.5c0.2,0.1,0.4,0.2,0.8,0.2c0.3,0,0.5-0.1,0.7-0.2c0.2-0.1,0.2-0.3,0.2-0.5c0-0.2-0.1-0.4-0.2-0.5
			C188.1,158.4,187.8,158.3,187.5,158.3z M189.1,161.9l-0.4,0c0.3,0.2,0.4,0.5,0.4,0.9c0,0.3-0.1,0.6-0.3,0.8
			c-0.2,0.2-0.5,0.3-0.9,0.3h-2.1V163h2c0.2,0,0.3,0,0.4-0.1c0.1-0.1,0.1-0.2,0.1-0.4c0-0.2-0.1-0.4-0.3-0.5h-2.3v-0.9h3.2V161.9z
			 M186.8,166.4c0.1,0,0.2-0.1,0.2-0.2c0.1-0.1,0.1-0.3,0.2-0.5c0.2-0.8,0.5-1.1,1-1.1c0.3,0,0.5,0.1,0.7,0.4
			c0.2,0.2,0.3,0.5,0.3,0.9c0,0.4-0.1,0.7-0.3,1c-0.2,0.2-0.4,0.4-0.7,0.4v-0.9c0.1,0,0.2,0,0.3-0.1c0.1-0.1,0.1-0.2,0.1-0.4
			c0-0.1,0-0.3-0.1-0.3c-0.1-0.1-0.1-0.1-0.2-0.1c-0.1,0-0.2,0-0.2,0.1c-0.1,0.1-0.1,0.2-0.2,0.5c0,0.2-0.1,0.4-0.1,0.5
			c-0.2,0.5-0.5,0.7-0.9,0.7c-0.3,0-0.5-0.1-0.7-0.4c-0.2-0.3-0.3-0.6-0.3-1c0-0.3,0-0.5,0.1-0.7c0.1-0.2,0.2-0.4,0.4-0.5
			c0.2-0.1,0.3-0.2,0.5-0.2v0.8c-0.2,0-0.3,0.1-0.3,0.2c-0.1,0.1-0.1,0.2-0.1,0.4c0,0.2,0,0.3,0.1,0.4
			C186.6,166.3,186.7,166.4,186.8,166.4z"/>
		<path class="st3" d="M223.5,243.9c1.7,0,3,1.4,3,3v41.8c0,1.7-1.4,3-3,3h-55.8c-1.7,0-3-1.4-3-3v-41.8c0-1.7,1.4-3,3-3H223.5z"/>
		<path class="st4" d="M222.3,243.9v47.9h-54.5c-1.7,0-3-1.4-3-3v-41.8c0-1.7,1.4-3,3-3H222.3z"/>
		<path class="st5" d="M223.5,246.4c0,0.4,0.3,0.8,0.8,0.8c0.4,0,0.8-0.3,0.8-0.8c0-0.4-0.3-0.8-0.8-0.8
			C223.9,245.7,223.5,246,223.5,246.4z"/>
		<path class="st5" d="M223.5,248.5c0,0.4,0.3,0.8,0.8,0.8c0.4,0,0.8-0.3,0.8-0.8c0-0.4-0.3-0.8-0.8-0.8
			C223.9,247.8,223.5,248.1,223.5,248.5z"/>
		<path class="st5" d="M223.5,250.6c0,0.4,0.3,0.8,0.8,0.8c0.4,0,0.8-0.3,0.8-0.8c0-0.4-0.3-0.8-0.8-0.8
			C223.9,249.9,223.5,250.2,223.5,250.6z"/>
		<path class="st2" d="M193.4,259c-0.4,0-0.8-0.1-1.1-0.2c-0.3-0.1-0.5-0.3-0.7-0.5l-0.6,0.7l-0.5-0.6l0.7-0.9c0-0.1,0-0.2,0-0.3
			c0-0.4,0.1-0.7,0.3-1c0.2-0.3,0.4-0.5,0.7-0.7c0.3-0.2,0.7-0.2,1.1-0.2h0.2c0.4,0,0.8,0.1,1.1,0.2c0.3,0.2,0.6,0.4,0.7,0.6
			c0.2,0.3,0.3,0.6,0.3,1c0,0.4-0.1,0.7-0.3,1c-0.2,0.3-0.4,0.5-0.7,0.6c-0.3,0.2-0.7,0.2-1.1,0.2H193.4z M193.6,258.1
			c0.5,0,0.8-0.1,1-0.2c0.2-0.2,0.4-0.4,0.4-0.7c0-0.3-0.1-0.5-0.3-0.7c-0.2-0.2-0.6-0.2-1-0.2h-0.2c-0.4,0-0.8,0.1-1,0.2
			c-0.2,0.2-0.4,0.4-0.4,0.7c0,0.3,0.1,0.5,0.3,0.7c0.2,0.2,0.6,0.2,1,0.2H193.6z M191.7,261.7c-0.3-0.2-0.4-0.5-0.4-0.9
			c0-0.3,0.1-0.6,0.3-0.8c0.2-0.2,0.5-0.3,0.9-0.3h2.1v0.9h-2.1c-0.3,0-0.5,0.2-0.5,0.5c0,0.3,0.1,0.5,0.3,0.6h2.3v0.9h-3.2v-0.8
			L191.7,261.7z M191.3,264.7c0-0.5,0.1-0.9,0.4-1.1c0.3-0.3,0.7-0.4,1.2-0.4h0.1c0.3,0,0.6,0.1,0.9,0.2c0.3,0.1,0.4,0.3,0.6,0.5
			c0.1,0.2,0.2,0.5,0.2,0.8c0,0.4-0.1,0.8-0.4,1c-0.3,0.3-0.7,0.4-1.2,0.4h-0.3v-2c-0.2,0-0.4,0.1-0.5,0.2c-0.1,0.1-0.2,0.3-0.2,0.5
			c0,0.3,0.1,0.6,0.4,0.8l-0.5,0.4c-0.2-0.1-0.3-0.3-0.4-0.5C191.4,265.2,191.3,265,191.3,264.7z M194,264.6c0-0.2-0.1-0.3-0.2-0.4
			c-0.1-0.1-0.3-0.2-0.5-0.2v1.2h0.1c0.2,0,0.3-0.1,0.4-0.2C193.9,264.9,194,264.8,194,264.6z M192.3,268.4c0.1,0,0.2-0.1,0.2-0.2
			c0.1-0.1,0.1-0.3,0.2-0.5c0.2-0.8,0.5-1.1,1-1.1c0.3,0,0.5,0.1,0.7,0.4c0.2,0.2,0.3,0.5,0.3,0.9c0,0.4-0.1,0.7-0.3,1
			c-0.2,0.2-0.4,0.4-0.7,0.4v-0.9c0.1,0,0.2,0,0.3-0.1c0.1-0.1,0.1-0.2,0.1-0.4c0-0.1,0-0.3-0.1-0.3c-0.1-0.1-0.1-0.1-0.2-0.1
			c-0.1,0-0.2,0-0.2,0.1c-0.1,0.1-0.1,0.2-0.2,0.5c0,0.2-0.1,0.4-0.1,0.5c-0.2,0.5-0.5,0.7-0.9,0.7c-0.3,0-0.5-0.1-0.7-0.4
			c-0.2-0.3-0.3-0.6-0.3-1c0-0.3,0-0.5,0.1-0.7c0.1-0.2,0.2-0.4,0.4-0.5c0.2-0.1,0.3-0.2,0.5-0.2v0.8c-0.2,0-0.3,0.1-0.3,0.2
			c-0.1,0.1-0.1,0.2-0.1,0.4c0,0.2,0,0.3,0.1,0.4C192.1,268.3,192.2,268.4,192.3,268.4z M195.4,270.9h-0.8v0.5H194v-0.5h-1.6
			c-0.1,0-0.2,0-0.3,0.1c-0.1,0-0.1,0.1-0.1,0.3c0,0.1,0,0.2,0,0.3h-0.6c-0.1-0.2-0.1-0.3-0.1-0.5c0-0.6,0.3-0.9,0.9-0.9h1.7v-0.5
			h0.6v0.5h0.8V270.9z M191.4,272.9v-0.9h3.2v0.9H191.4z M195.4,272c0.1,0,0.2,0,0.3,0.1c0.1,0.1,0.1,0.2,0.1,0.4
			c0,0.1,0,0.3-0.1,0.3c-0.1,0.1-0.2,0.1-0.3,0.1c-0.1,0-0.2,0-0.3-0.1c-0.1-0.1-0.1-0.2-0.1-0.3c0-0.1,0-0.3,0.1-0.3
			C195.2,272.1,195.3,272,195.4,272z M193,273.6c0.3,0,0.6,0.1,0.8,0.2c0.2,0.1,0.4,0.3,0.6,0.5c0.1,0.2,0.2,0.5,0.2,0.8
			c0,0.4-0.1,0.8-0.4,1.1c-0.3,0.3-0.6,0.4-1.1,0.5l-0.2,0c-0.5,0-0.9-0.1-1.2-0.4c-0.3-0.3-0.4-0.6-0.4-1.1c0-0.5,0.1-0.8,0.4-1.1
			C192.1,273.8,192.5,273.6,193,273.6L193,273.6z M193,274.5c-0.3,0-0.5,0.1-0.7,0.2c-0.2,0.1-0.2,0.3-0.2,0.5
			c0,0.2,0.1,0.4,0.2,0.5c0.2,0.1,0.4,0.2,0.8,0.2c0.3,0,0.5-0.1,0.7-0.2c0.2-0.1,0.2-0.3,0.2-0.5c0-0.2-0.1-0.4-0.2-0.5
			C193.5,274.5,193.3,274.5,193,274.5z M194.6,278.1l-0.4,0c0.3,0.2,0.4,0.5,0.4,0.9c0,0.3-0.1,0.6-0.3,0.8
			c-0.2,0.2-0.5,0.3-0.9,0.3h-2.1v-0.9h2c0.2,0,0.3,0,0.4-0.1c0.1-0.1,0.1-0.2,0.1-0.4c0-0.2-0.1-0.4-0.3-0.5h-2.3v-0.9h3.2V278.1z"
			/>
		<path class="st0" d="M189.1,16.5c0.9-0.9,2.5-0.9,3.4,0l21.4,21.4c0.9,0.9,0.9,2.5,0,3.4l-21.4,21.4c-0.9,0.9-2.5,0.9-3.4,0
			l-21.4-21.4c-0.9-0.9-0.9-2.5,0-3.4L189.1,16.5z"/>
		<path class="st2" d="M188.4,28.7v-1l3.1-1.9h-3.1v-1h4.7v1l-3.1,1.9h3.1v1H188.4z M188.4,31.6c0.1,0,0.2-0.1,0.3-0.1
			c-0.3-0.2-0.4-0.5-0.4-0.9c0-0.3,0.1-0.6,0.3-0.9c0.2-0.2,0.5-0.3,0.8-0.3c0.4,0,0.7,0.1,0.9,0.4c0.2,0.3,0.3,0.7,0.3,1.2v0.4h0.2
			c0.2,0,0.3,0,0.4-0.1c0.1-0.1,0.1-0.2,0.1-0.4c0-0.2,0-0.3-0.1-0.4c-0.1-0.1-0.2-0.1-0.3-0.1v-0.9c0.2,0,0.4,0.1,0.6,0.2
			c0.2,0.1,0.3,0.3,0.4,0.5c0.1,0.2,0.1,0.5,0.1,0.8c0,0.4-0.1,0.8-0.3,1c-0.2,0.3-0.5,0.4-0.9,0.4h-1.5c-0.3,0-0.6,0-0.8,0.1h-0.1
			V31.6z M189,30.8c0,0.1,0,0.3,0.1,0.4c0.1,0.1,0.1,0.2,0.3,0.3h0.6v-0.4c0-0.5-0.2-0.7-0.5-0.8l-0.1,0c-0.1,0-0.2,0-0.3,0.1
			C189.1,30.6,189,30.7,189,30.8z M189.5,34.5l2.4,0.7v1l-3.5-1.2v-0.9l3.5-1.2v1L189.5,34.5z M193.1,39.8l-3.4,1.2l3.4,1.2v1.3
			h-4.7v-1h1.3l2.2,0.1l-3.5-1.3v-0.7l3.5-1.3l-2.2,0.1h-1.3v-1h4.7V39.8z M188.3,46c0-0.5,0.2-0.9,0.5-1.3c0.3-0.3,0.7-0.5,1.3-0.5
			h0.1c0.4,0,0.7,0.1,0.9,0.2c0.3,0.1,0.5,0.3,0.6,0.6c0.2,0.3,0.2,0.5,0.2,0.9c0,0.5-0.2,0.9-0.5,1.1c-0.3,0.3-0.7,0.4-1.3,0.4
			h-0.4v-2.2c-0.2,0-0.4,0.1-0.6,0.3c-0.1,0.2-0.2,0.3-0.2,0.6c0,0.4,0.1,0.6,0.4,0.8l-0.5,0.5c-0.2-0.1-0.4-0.3-0.5-0.6
			C188.3,46.6,188.3,46.3,188.3,46z M191.2,45.9c0-0.2-0.1-0.3-0.2-0.5c-0.1-0.1-0.3-0.2-0.5-0.2v1.3h0.1c0.2,0,0.4-0.1,0.5-0.2
			C191.1,46.3,191.2,46.1,191.2,45.9z M191.9,49l-0.4,0c0.3,0.3,0.5,0.6,0.5,1c0,0.4-0.1,0.7-0.3,0.8c-0.2,0.2-0.5,0.3-1,0.3h-2.3
			v-0.9h2.3c0.2,0,0.3,0,0.4-0.1c0.1-0.1,0.1-0.2,0.1-0.4c0-0.3-0.1-0.5-0.3-0.6h-2.5v-0.9h3.5V49z M188.7,54.1
			c-0.3-0.2-0.4-0.6-0.4-1c0-0.4,0.1-0.7,0.3-0.9c0.2-0.2,0.5-0.3,1-0.3h2.3v0.9h-2.3c-0.4,0-0.6,0.2-0.6,0.5c0,0.3,0.1,0.5,0.3,0.7
			h2.5V55h-3.5v-0.9L188.7,54.1z"/>
		<path class="st0" d="M189.1,355.9c0.9-0.9,2.5-0.9,3.4,0l21.4,21.4c0.9,0.9,0.9,2.5,0,3.4l-21.4,21.4c-0.9,0.9-2.5,0.9-3.4,0
			l-21.4-21.4c-0.9-0.9-0.9-2.5,0-3.4L189.1,355.9z"/>
		<path class="st2" d="M194.3,371.9v-0.8h-1.7v-1h4.7v1.8c0,0.6-0.1,1-0.4,1.3c-0.2,0.3-0.6,0.5-1.1,0.5c-0.3,0-0.6-0.1-0.8-0.2
			c-0.2-0.1-0.4-0.4-0.5-0.6l-1.9,1h0v-1L194.3,371.9z M195.1,371.1v0.8c0,0.2,0.1,0.4,0.2,0.6c0.1,0.1,0.3,0.2,0.5,0.2
			c0.2,0,0.4-0.1,0.5-0.2c0.1-0.1,0.2-0.3,0.2-0.6v-0.8H195.1z M192.6,376.5c0.1,0,0.2-0.1,0.3-0.1c-0.3-0.2-0.4-0.5-0.4-0.9
			c0-0.3,0.1-0.6,0.3-0.9c0.2-0.2,0.5-0.3,0.8-0.3c0.4,0,0.7,0.1,0.9,0.4c0.2,0.3,0.3,0.7,0.3,1.2v0.4h0.2c0.2,0,0.3,0,0.4-0.1
			c0.1-0.1,0.1-0.2,0.1-0.4c0-0.2,0-0.3-0.1-0.4c-0.1-0.1-0.2-0.1-0.3-0.1v-0.9c0.2,0,0.4,0.1,0.6,0.2c0.2,0.1,0.3,0.3,0.4,0.5
			c0.1,0.2,0.1,0.5,0.1,0.8c0,0.4-0.1,0.8-0.3,1c-0.2,0.3-0.5,0.4-0.9,0.4h-1.5c-0.3,0-0.6,0-0.8,0.1h-0.1V376.5z M193.3,375.7
			c0,0.1,0,0.3,0.1,0.4c0.1,0.1,0.1,0.2,0.3,0.3h0.6V376c0-0.5-0.2-0.7-0.5-0.8l-0.1,0c-0.1,0-0.2,0-0.3,0.1
			C193.3,375.5,193.3,375.6,193.3,375.7z M197,379.3h-0.9v0.6h-0.7v-0.6h-1.8c-0.1,0-0.2,0-0.3,0.1c-0.1,0.1-0.1,0.1-0.1,0.3
			c0,0.1,0,0.2,0,0.3h-0.7c-0.1-0.2-0.1-0.4-0.1-0.6c0-0.7,0.3-1,1-1h1.9v-0.5h0.7v0.5h0.9V379.3z M192.5,382.1
			c0-0.5,0.2-0.9,0.5-1.3c0.3-0.3,0.7-0.5,1.3-0.5h0.1c0.4,0,0.7,0.1,0.9,0.2c0.3,0.1,0.5,0.3,0.6,0.6c0.2,0.3,0.2,0.5,0.2,0.9
			c0,0.5-0.2,0.9-0.5,1.1c-0.3,0.3-0.7,0.4-1.3,0.4h-0.4v-2.2c-0.2,0-0.4,0.1-0.6,0.3c-0.1,0.2-0.2,0.3-0.2,0.6
			c0,0.4,0.1,0.6,0.4,0.8l-0.5,0.5c-0.2-0.1-0.4-0.3-0.5-0.6C192.6,382.7,192.5,382.4,192.5,382.1z M195.4,382
			c0-0.2-0.1-0.3-0.2-0.5c-0.1-0.1-0.3-0.2-0.5-0.2v1.3h0.1c0.2,0,0.4-0.1,0.5-0.2C195.4,382.4,195.4,382.2,195.4,382z M194.4,384.1
			c0.5,0,1,0.1,1.3,0.4c0.3,0.2,0.5,0.6,0.5,1c0,0.3-0.1,0.6-0.4,0.8h1.8v0.9h-5v-0.8l0.4,0c-0.3-0.2-0.4-0.5-0.4-0.9
			c0-0.4,0.2-0.7,0.5-1C193.4,384.2,193.8,384.1,194.4,384.1z M194.3,385c-0.3,0-0.6,0.1-0.8,0.2c-0.2,0.1-0.3,0.3-0.3,0.5
			c0,0.3,0.1,0.5,0.4,0.6h1.4c0.2-0.1,0.4-0.3,0.4-0.6C195.4,385.2,195.1,385,194.3,385z M184.7,372.3c0.1,0,0.2-0.1,0.3-0.1
			c-0.3-0.2-0.4-0.5-0.4-0.9c0-0.3,0.1-0.6,0.3-0.9c0.2-0.2,0.5-0.3,0.8-0.3c0.4,0,0.7,0.1,0.9,0.4c0.2,0.3,0.3,0.7,0.3,1.2v0.4h0.2
			c0.2,0,0.3,0,0.4-0.1c0.1-0.1,0.1-0.2,0.1-0.4c0-0.2,0-0.3-0.1-0.4c-0.1-0.1-0.2-0.1-0.3-0.1v-0.9c0.2,0,0.4,0.1,0.6,0.2
			c0.2,0.1,0.3,0.3,0.4,0.5c0.1,0.2,0.1,0.5,0.1,0.8c0,0.4-0.1,0.8-0.3,1c-0.2,0.3-0.5,0.4-0.9,0.4h-1.5c-0.3,0-0.6,0-0.8,0.1h-0.1
			V372.3z M185.4,371.5c0,0.1,0,0.3,0.1,0.4c0.1,0.1,0.1,0.2,0.3,0.3h0.6v-0.4c0-0.5-0.2-0.7-0.5-0.8l-0.1,0c-0.1,0-0.2,0-0.3,0.1
			C185.4,371.3,185.4,371.4,185.4,371.5z M184.7,374.9V374h5v0.9H184.7z M184.7,376.8v-0.9h5v0.9H184.7z M187,383.4
			c-0.4,0-0.8-0.1-1.2-0.2c-0.3-0.1-0.6-0.3-0.8-0.6l-0.6,0.8l-0.6-0.6l0.8-1c0-0.1,0-0.2,0-0.4c0-0.4,0.1-0.7,0.3-1.1
			c0.2-0.3,0.5-0.5,0.8-0.7c0.4-0.2,0.8-0.3,1.2-0.3h0.2c0.5,0,0.9,0.1,1.2,0.3c0.4,0.2,0.6,0.4,0.8,0.7c0.2,0.3,0.3,0.7,0.3,1.1
			c0,0.4-0.1,0.7-0.3,1.1c-0.2,0.3-0.5,0.5-0.8,0.7c-0.4,0.2-0.8,0.3-1.2,0.3H187z M187.2,382.4c0.5,0,0.9-0.1,1.1-0.3
			c0.3-0.2,0.4-0.4,0.4-0.8c0-0.3-0.1-0.6-0.4-0.8c-0.3-0.2-0.6-0.3-1.1-0.3H187c-0.5,0-0.9,0.1-1.1,0.3c-0.3,0.2-0.4,0.4-0.4,0.8
			c0,0.3,0.1,0.6,0.4,0.8c0.3,0.2,0.6,0.3,1.1,0.3H187.2z M185.7,386.1c0.1,0,0.2-0.1,0.3-0.2c0.1-0.1,0.1-0.3,0.2-0.5
			c0.2-0.8,0.5-1.3,1.1-1.3c0.3,0,0.6,0.1,0.8,0.4c0.2,0.3,0.3,0.6,0.3,1c0,0.4-0.1,0.8-0.3,1.1c-0.2,0.3-0.5,0.4-0.8,0.4v-0.9
			c0.1,0,0.2,0,0.3-0.1c0.1-0.1,0.1-0.2,0.1-0.4c0-0.2,0-0.3-0.1-0.4c-0.1-0.1-0.2-0.1-0.3-0.1c-0.1,0-0.2,0-0.3,0.1
			c-0.1,0.1-0.1,0.3-0.2,0.5c0,0.2-0.1,0.4-0.2,0.6c-0.2,0.5-0.5,0.7-0.9,0.7c-0.3,0-0.6-0.1-0.8-0.4c-0.2-0.3-0.3-0.6-0.3-1.1
			c0-0.3,0.1-0.6,0.2-0.8c0.1-0.2,0.3-0.4,0.4-0.5c0.2-0.1,0.4-0.2,0.6-0.2v0.9c-0.2,0-0.3,0.1-0.4,0.2c-0.1,0.1-0.1,0.3-0.1,0.5
			c0,0.2,0,0.3,0.1,0.4C185.5,386.1,185.6,386.1,185.7,386.1z M186.2,388.7v-0.8l3.3-0.1v1L186.2,388.7z M185.7,388.3
			c0,0.2,0,0.3-0.1,0.4c-0.1,0.1-0.2,0.1-0.4,0.1c-0.1,0-0.3,0-0.4-0.1c-0.1-0.1-0.1-0.2-0.1-0.4c0-0.2,0-0.3,0.1-0.4
			c0.1-0.1,0.2-0.1,0.4-0.1c0.1,0,0.3,0,0.4,0.1C185.6,388,185.7,388.2,185.7,388.3z"/>
		<path class="st6" d="M179.6,50.8v81.9"/>
		<path class="st7" d="M178.1,50.2c0,0.8,0.7,1.5,1.5,1.5c0.8,0,1.5-0.7,1.5-1.5s-0.7-1.5-1.5-1.5C178.7,48.7,178.1,49.4,178.1,50.2
			z"/>
		<path class="st1" d="M178.1,131.7h3l-1.5,1.8L178.1,131.7z"/>
		<path class="st8" d="M180.2,74.5c3.3,0,6.1,2.7,6.1,6.1v32.3c0,3.3-2.7,6.1-6.1,6.1c-3.3,0-6.1-2.7-6.1-6.1V80.5
			C174.1,77.2,176.8,74.5,180.2,74.5z"/>
		<path class="st2" d="M180.5,80.7c0-0.1,0-0.2,0-0.2c0-0.3-0.1-0.5-0.4-0.7h-2v-0.5h2.9v0.5l-0.3,0c0.3,0.2,0.4,0.4,0.4,0.7
			c0,0.1,0,0.2,0,0.2H180.5z M178.1,82.9c0.1,0,0.2-0.1,0.3-0.1c-0.2-0.2-0.4-0.5-0.4-0.8c0-0.3,0.1-0.5,0.2-0.7
			c0.2-0.2,0.4-0.3,0.6-0.3c0.3,0,0.5,0.1,0.7,0.3c0.2,0.2,0.3,0.6,0.3,1v0.5h0.2c0.2,0,0.3-0.1,0.4-0.2c0.1-0.1,0.2-0.3,0.2-0.5
			c0-0.2,0-0.3-0.1-0.4c-0.1-0.1-0.2-0.2-0.3-0.2v-0.5c0.1,0,0.3,0.1,0.4,0.2c0.1,0.1,0.2,0.2,0.3,0.4c0.1,0.2,0.1,0.4,0.1,0.6
			c0,0.3-0.1,0.6-0.3,0.8c-0.2,0.2-0.4,0.3-0.7,0.3h-1.3c-0.3,0-0.5,0-0.6,0.1h0V82.9z M178.4,82.1c0,0.2,0,0.3,0.1,0.4
			c0.1,0.1,0.2,0.2,0.3,0.3h0.6v-0.4c0-0.6-0.2-0.9-0.5-0.9c-0.2,0-0.3,0.1-0.4,0.2C178.5,81.8,178.4,82,178.4,82.1z M181.6,84.9
			h-0.7v0.5h-0.4v-0.5h-1.8c-0.1,0-0.2,0-0.3,0.1c-0.1,0-0.1,0.1-0.1,0.2c0,0.1,0,0.1,0,0.2h-0.4c0-0.1-0.1-0.3-0.1-0.4
			c0-0.2,0.1-0.4,0.2-0.5c0.1-0.1,0.3-0.2,0.6-0.2h1.8v-0.5h0.4v0.5h0.7V84.9z M178,87.3c0-0.4,0.1-0.7,0.4-1c0.3-0.2,0.6-0.4,1-0.4
			h0.1c0.3,0,0.5,0.1,0.8,0.2c0.2,0.1,0.4,0.3,0.5,0.5c0.1,0.2,0.2,0.4,0.2,0.6c0,0.4-0.1,0.7-0.4,0.9c-0.2,0.2-0.6,0.3-1.1,0.3
			h-0.2v-2c-0.3,0-0.5,0.1-0.7,0.2c-0.2,0.2-0.3,0.4-0.3,0.6c0,0.2,0,0.3,0.1,0.4c0.1,0.1,0.2,0.2,0.3,0.3l-0.2,0.3
			C178.2,88.1,178,87.8,178,87.3z M180.6,87.2c0-0.2-0.1-0.4-0.2-0.5c-0.1-0.1-0.3-0.2-0.6-0.3v1.4h0c0.3,0,0.4-0.1,0.6-0.2
			C180.5,87.6,180.6,87.4,180.6,87.2z M179.5,90.4c0.5,0,0.8,0.1,1.1,0.3c0.3,0.2,0.4,0.5,0.4,0.8c0,0.3-0.1,0.6-0.3,0.8l0.3,0v0.5
			h-4v-0.5h1.4c-0.2-0.2-0.3-0.5-0.3-0.8c0-0.3,0.1-0.6,0.4-0.8C178.7,90.5,179,90.4,179.5,90.4L179.5,90.4z M179.5,90.9
			c-0.3,0-0.6,0.1-0.8,0.2c-0.2,0.1-0.3,0.3-0.3,0.6c0,0.3,0.1,0.5,0.4,0.7h1.4c0.3-0.2,0.4-0.4,0.4-0.7c0-0.2-0.1-0.4-0.3-0.6
			C180.1,91,179.8,90.9,179.5,90.9z M178.3,95.5c-0.2-0.2-0.3-0.5-0.3-0.8c0-0.3,0.1-0.5,0.3-0.7c0.2-0.2,0.4-0.2,0.8-0.2h1.9v0.5
			h-1.9c-0.4,0-0.7,0.2-0.7,0.5c0,0.4,0.1,0.6,0.4,0.8h2.1V96h-2.9v-0.5L178.3,95.5z M178,98c0-0.4,0.1-0.7,0.4-1
			c0.3-0.2,0.6-0.4,1-0.4h0.1c0.3,0,0.5,0.1,0.8,0.2c0.2,0.1,0.4,0.3,0.5,0.5c0.1,0.2,0.2,0.4,0.2,0.6c0,0.4-0.1,0.7-0.4,0.9
			c-0.2,0.2-0.6,0.3-1.1,0.3h-0.2v-2c-0.3,0-0.5,0.1-0.7,0.2c-0.2,0.2-0.3,0.4-0.3,0.6c0,0.2,0,0.3,0.1,0.4c0.1,0.1,0.2,0.2,0.3,0.3
			l-0.2,0.3C178.2,98.9,178,98.5,178,98z M180.6,97.9c0-0.2-0.1-0.4-0.2-0.5c-0.1-0.1-0.3-0.2-0.6-0.3v1.4h0c0.3,0,0.4-0.1,0.6-0.2
			C180.5,98.3,180.6,98.2,180.6,97.9z M178.8,101.5c0.1,0,0.2-0.1,0.3-0.2c0.1-0.1,0.1-0.3,0.2-0.5c0.1-0.2,0.1-0.4,0.2-0.6
			c0.1-0.1,0.2-0.3,0.3-0.3c0.1-0.1,0.2-0.1,0.4-0.1c0.2,0,0.4,0.1,0.6,0.3c0.2,0.2,0.2,0.5,0.2,0.8c0,0.3-0.1,0.6-0.3,0.8
			c-0.2,0.2-0.4,0.3-0.6,0.3v-0.5c0.1,0,0.3-0.1,0.3-0.2c0.1-0.1,0.1-0.3,0.1-0.4c0-0.2,0-0.3-0.1-0.4c-0.1-0.1-0.2-0.2-0.3-0.2
			c-0.1,0-0.2,0-0.3,0.1c-0.1,0.1-0.1,0.3-0.2,0.5c-0.1,0.2-0.1,0.4-0.2,0.6c-0.1,0.2-0.2,0.3-0.3,0.3c-0.1,0.1-0.2,0.1-0.4,0.1
			c-0.3,0-0.5-0.1-0.6-0.3c-0.2-0.2-0.2-0.5-0.2-0.8c0-0.2,0-0.4,0.1-0.6c0.1-0.2,0.2-0.3,0.3-0.4c0.1-0.1,0.3-0.1,0.5-0.1v0.5
			c-0.2,0-0.3,0.1-0.4,0.2c-0.1,0.1-0.1,0.3-0.1,0.5c0,0.2,0,0.3,0.1,0.4C178.6,101.4,178.7,101.5,178.8,101.5z M181.6,103.4h-0.7
			v0.5h-0.4v-0.5h-1.8c-0.1,0-0.2,0-0.3,0.1c-0.1,0-0.1,0.1-0.1,0.2c0,0.1,0,0.1,0,0.2h-0.4c0-0.1-0.1-0.3-0.1-0.4
			c0-0.2,0.1-0.4,0.2-0.5c0.1-0.1,0.3-0.2,0.6-0.2h1.8v-0.5h0.4v0.5h0.7V103.4z M178.1,105.1v-0.5h2.9v0.5H178.1z M181.7,104.6
			c0.1,0,0.1,0,0.2,0.1c0.1,0,0.1,0.1,0.1,0.2c0,0.1,0,0.2-0.1,0.2c-0.1,0-0.1,0.1-0.2,0.1c-0.1,0-0.1,0-0.2-0.1
			c-0.1,0-0.1-0.1-0.1-0.2c0-0.1,0-0.2,0.1-0.2C181.6,104.6,181.6,104.6,181.7,104.6z M179.5,105.9c0.3,0,0.5,0.1,0.8,0.2
			c0.2,0.1,0.4,0.3,0.5,0.5c0.1,0.2,0.2,0.4,0.2,0.7c0,0.4-0.1,0.7-0.4,1c-0.3,0.2-0.6,0.4-1.1,0.4h0c-0.3,0-0.5-0.1-0.8-0.2
			c-0.2-0.1-0.4-0.3-0.5-0.5c-0.1-0.2-0.2-0.4-0.2-0.7c0-0.4,0.1-0.7,0.4-1C178.7,106,179,105.9,179.5,105.9L179.5,105.9z
			 M179.5,106.4c-0.3,0-0.6,0.1-0.8,0.2c-0.2,0.1-0.3,0.3-0.3,0.6c0,0.3,0.1,0.4,0.3,0.6c0.2,0.1,0.5,0.2,0.8,0.2
			c0.3,0,0.6-0.1,0.8-0.2c0.2-0.1,0.3-0.3,0.3-0.6c0-0.2-0.1-0.4-0.3-0.6C180.1,106.4,179.8,106.4,179.5,106.4z M180.9,109.7l-0.4,0
			c0.3,0.2,0.4,0.5,0.4,0.9c0,0.6-0.3,0.9-1,0.9h-1.9V111h1.9c0.2,0,0.4,0,0.5-0.1c0.1-0.1,0.1-0.2,0.1-0.4c0-0.2,0-0.3-0.1-0.4
			c-0.1-0.1-0.2-0.2-0.3-0.3h-2.1v-0.5h2.9V109.7z M178.8,114c0.1,0,0.2-0.1,0.3-0.2c0.1-0.1,0.1-0.3,0.2-0.5
			c0.1-0.2,0.1-0.4,0.2-0.6c0.1-0.1,0.2-0.3,0.3-0.3c0.1-0.1,0.2-0.1,0.4-0.1c0.2,0,0.4,0.1,0.6,0.3c0.2,0.2,0.2,0.5,0.2,0.8
			c0,0.3-0.1,0.6-0.3,0.8c-0.2,0.2-0.4,0.3-0.6,0.3v-0.5c0.1,0,0.3-0.1,0.3-0.2c0.1-0.1,0.1-0.3,0.1-0.4c0-0.2,0-0.3-0.1-0.4
			c-0.1-0.1-0.2-0.2-0.3-0.2c-0.1,0-0.2,0-0.3,0.1c-0.1,0.1-0.1,0.3-0.2,0.5c-0.1,0.2-0.1,0.4-0.2,0.6c-0.1,0.2-0.2,0.3-0.3,0.3
			c-0.1,0.1-0.2,0.1-0.4,0.1c-0.3,0-0.5-0.1-0.6-0.3c-0.2-0.2-0.2-0.5-0.2-0.8c0-0.2,0-0.4,0.1-0.6c0.1-0.2,0.2-0.3,0.3-0.4
			c0.1-0.1,0.3-0.1,0.5-0.1v0.5c-0.2,0-0.3,0.1-0.4,0.2c-0.1,0.1-0.1,0.3-0.1,0.5c0,0.2,0,0.3,0.1,0.4
			C178.6,113.9,178.7,114,178.8,114z"/>
		<path class="st6" d="M199.6,132.9V51.7"/>
		<path class="st7" d="M201.1,132c0-0.8-0.7-1.5-1.5-1.5s-1.5,0.7-1.5,1.5c0,0.8,0.7,1.5,1.5,1.5S201.1,132.9,201.1,132z"/>
		<path class="st1" d="M201.1,51.7h-3l1.5-1.8L201.1,51.7z"/>
		<path class="st6" d="M192.3,174.8v71.3"/>
		<path class="st7" d="M190.8,175.7c0,0.8,0.7,1.5,1.5,1.5s1.5-0.7,1.5-1.5s-0.7-1.5-1.5-1.5S190.8,174.8,190.8,175.7z"/>
		<path class="st1" d="M190.8,245.1h3l-1.5,1.8L190.8,245.1z"/>
		<path class="st8" d="M192.3,196.9c2,0,3.6,1.6,3.6,3.6v20c0,2-1.6,3.6-3.6,3.6c-2,0-3.6-1.6-3.6-3.6v-20
			C188.7,198.5,190.3,196.9,192.3,196.9z"/>
		<path class="st2" d="M193.2,207.4c0-0.1,0-0.2,0-0.2c0-0.3-0.1-0.5-0.4-0.7h-2V206h2.9v0.5l-0.3,0c0.3,0.2,0.4,0.4,0.4,0.7
			c0,0.1,0,0.2,0,0.2H193.2z M190.8,209.6c0.1,0,0.2-0.1,0.3-0.1c-0.2-0.2-0.4-0.5-0.4-0.8c0-0.3,0.1-0.5,0.2-0.7
			c0.2-0.2,0.4-0.3,0.6-0.3c0.3,0,0.5,0.1,0.7,0.3c0.2,0.2,0.3,0.6,0.3,1v0.5h0.2c0.2,0,0.3-0.1,0.4-0.2c0.1-0.1,0.2-0.3,0.2-0.5
			c0-0.2,0-0.3-0.1-0.4c-0.1-0.1-0.2-0.2-0.3-0.2v-0.5c0.1,0,0.3,0.1,0.4,0.2c0.1,0.1,0.2,0.2,0.3,0.4c0.1,0.2,0.1,0.4,0.1,0.6
			c0,0.3-0.1,0.6-0.3,0.8c-0.2,0.2-0.4,0.3-0.7,0.3h-1.3c-0.3,0-0.5,0-0.6,0.1h0V209.6z M191.2,208.8c0,0.2,0,0.3,0.1,0.4
			c0.1,0.1,0.2,0.2,0.3,0.3h0.6v-0.4c0-0.6-0.2-0.9-0.5-0.9c-0.2,0-0.3,0.1-0.4,0.2C191.2,208.5,191.2,208.7,191.2,208.8z
			 M194.4,211.6h-0.7v0.5h-0.4v-0.5h-1.8c-0.1,0-0.2,0-0.3,0.1c-0.1,0-0.1,0.1-0.1,0.2c0,0.1,0,0.1,0,0.2h-0.4
			c0-0.1-0.1-0.3-0.1-0.4c0-0.2,0.1-0.4,0.2-0.5c0.1-0.1,0.3-0.2,0.6-0.2h1.8v-0.5h0.4v0.5h0.7V211.6z M190.7,214
			c0-0.4,0.1-0.7,0.4-1c0.3-0.2,0.6-0.4,1-0.4h0.1c0.3,0,0.5,0.1,0.8,0.2c0.2,0.1,0.4,0.3,0.5,0.5c0.1,0.2,0.2,0.4,0.2,0.6
			c0,0.4-0.1,0.7-0.4,0.9c-0.2,0.2-0.6,0.3-1.1,0.3h-0.2v-2c-0.3,0-0.5,0.1-0.7,0.2c-0.2,0.2-0.3,0.4-0.3,0.6c0,0.2,0,0.3,0.1,0.4
			c0.1,0.1,0.2,0.2,0.3,0.3l-0.2,0.3C190.9,214.8,190.7,214.5,190.7,214z M193.3,213.9c0-0.2-0.1-0.4-0.2-0.5
			c-0.1-0.1-0.3-0.2-0.6-0.3v1.4h0c0.3,0,0.4-0.1,0.6-0.2C193.2,214.3,193.3,214.1,193.3,213.9z"/>
		<path class="st6" d="M192.3,289.3v71.3"/>
		<path class="st7" d="M190.8,290.2c0,0.8,0.7,1.5,1.5,1.5s1.5-0.7,1.5-1.5c0-0.8-0.7-1.5-1.5-1.5S190.8,289.4,190.8,290.2z"/>
		<path class="st1" d="M190.8,359.6h3l-1.5,1.8L190.8,359.6z"/>
		<path class="st8" d="M192.3,311.4c2,0,3.6,1.6,3.6,3.6v20c0,2-1.6,3.6-3.6,3.6c-2,0-3.6-1.6-3.6-3.6v-20
			C188.7,313.1,190.3,311.4,192.3,311.4z"/>
		<path class="st2" d="M193.2,322c0-0.1,0-0.2,0-0.2c0-0.3-0.1-0.5-0.4-0.7h-2v-0.5h2.9v0.5l-0.3,0c0.3,0.2,0.4,0.4,0.4,0.7
			c0,0.1,0,0.2,0,0.2H193.2z M190.8,324.2c0.1,0,0.2-0.1,0.3-0.1c-0.2-0.2-0.4-0.5-0.4-0.8c0-0.3,0.1-0.5,0.2-0.7
			c0.2-0.2,0.4-0.3,0.6-0.3c0.3,0,0.5,0.1,0.7,0.3c0.2,0.2,0.3,0.6,0.3,1v0.5h0.2c0.2,0,0.3-0.1,0.4-0.2c0.1-0.1,0.2-0.3,0.2-0.5
			c0-0.2,0-0.3-0.1-0.4c-0.1-0.1-0.2-0.2-0.3-0.2v-0.5c0.1,0,0.3,0.1,0.4,0.2c0.1,0.1,0.2,0.2,0.3,0.4c0.1,0.2,0.1,0.4,0.1,0.6
			c0,0.3-0.1,0.6-0.3,0.8c-0.2,0.2-0.4,0.3-0.7,0.3h-1.3c-0.3,0-0.5,0-0.6,0.1h0V324.2z M191.2,323.4c0,0.2,0,0.3,0.1,0.4
			c0.1,0.1,0.2,0.2,0.3,0.3h0.6v-0.4c0-0.6-0.2-0.9-0.5-0.9c-0.2,0-0.3,0.1-0.4,0.2C191.2,323.1,191.2,323.2,191.2,323.4z
			 M194.4,326.1h-0.7v0.5h-0.4v-0.5h-1.8c-0.1,0-0.2,0-0.3,0.1c-0.1,0-0.1,0.1-0.1,0.2c0,0.1,0,0.1,0,0.2h-0.4
			c0-0.1-0.1-0.3-0.1-0.4c0-0.2,0.1-0.4,0.2-0.5c0.1-0.1,0.3-0.2,0.6-0.2h1.8v-0.5h0.4v0.5h0.7V326.1z M190.7,328.5
			c0-0.4,0.1-0.7,0.4-1c0.3-0.2,0.6-0.4,1-0.4h0.1c0.3,0,0.5,0.1,0.8,0.2c0.2,0.1,0.4,0.3,0.5,0.5c0.1,0.2,0.2,0.4,0.2,0.6
			c0,0.4-0.1,0.7-0.4,0.9c-0.2,0.2-0.6,0.3-1.1,0.3h-0.2v-2c-0.3,0-0.5,0.1-0.7,0.2c-0.2,0.2-0.3,0.4-0.3,0.6c0,0.2,0,0.3,0.1,0.4
			c0.1,0.1,0.2,0.2,0.3,0.3l-0.2,0.3C190.9,329.4,190.7,329,190.7,328.5z M193.3,328.5c0-0.2-0.1-0.4-0.2-0.5
			c-0.1-0.1-0.3-0.2-0.6-0.3v1.4h0c0.3,0,0.4-0.1,0.6-0.2C193.2,328.8,193.3,328.7,193.3,328.5z"/>
		<path class="st6" d="M165.9,152.9h-37"/>
		<path class="st1" d="M129,151.4v3l-1.8-1.5L129,151.4z"/>
		<path class="st8" d="M145,139.3c2,0,3.6,1.6,3.6,3.6v20c0,2-1.6,3.6-3.6,3.6s-3.6-1.6-3.6-3.6v-20
			C141.4,140.9,143,139.3,145,139.3z"/>
		<path class="st2" d="M143.5,147v-0.5h4.1v0.5H143.5z M143.5,148.4v-0.5h2.9v0.5H143.5z M147.2,147.9c0.1,0,0.1,0,0.2,0.1
			c0.1,0,0.1,0.1,0.1,0.2c0,0.1,0,0.2-0.1,0.2c-0.1,0-0.1,0.1-0.2,0.1c-0.1,0-0.1,0-0.2-0.1c-0.1,0-0.1-0.1-0.1-0.2
			c0-0.1,0-0.2,0.1-0.2C147,147.9,147.1,147.9,147.2,147.9z M144.3,151c0.1,0,0.2-0.1,0.3-0.2c0.1-0.1,0.1-0.3,0.2-0.5
			c0.1-0.2,0.1-0.4,0.2-0.6c0.1-0.1,0.2-0.3,0.3-0.3c0.1-0.1,0.2-0.1,0.4-0.1c0.2,0,0.4,0.1,0.6,0.3c0.2,0.2,0.2,0.5,0.2,0.8
			c0,0.3-0.1,0.6-0.3,0.8c-0.2,0.2-0.4,0.3-0.6,0.3V151c0.1,0,0.3-0.1,0.3-0.2c0.1-0.1,0.1-0.3,0.1-0.4c0-0.2,0-0.3-0.1-0.4
			c-0.1-0.1-0.2-0.2-0.3-0.2c-0.1,0-0.2,0-0.3,0.1c-0.1,0.1-0.1,0.3-0.2,0.5c-0.1,0.2-0.1,0.4-0.2,0.6c-0.1,0.2-0.2,0.3-0.3,0.3
			c-0.1,0.1-0.2,0.1-0.4,0.1c-0.3,0-0.5-0.1-0.6-0.3c-0.2-0.2-0.2-0.5-0.2-0.8c0-0.2,0-0.4,0.1-0.6c0.1-0.2,0.2-0.3,0.3-0.4
			c0.1-0.1,0.3-0.1,0.5-0.1v0.5c-0.2,0-0.3,0.1-0.4,0.2c-0.1,0.1-0.1,0.3-0.1,0.5c0,0.2,0,0.3,0.1,0.4
			C144,150.9,144.1,151,144.3,151z M147.1,152.9h-0.7v0.5H146v-0.5h-1.8c-0.1,0-0.2,0-0.3,0.1c-0.1,0-0.1,0.1-0.1,0.2
			c0,0.1,0,0.1,0,0.2h-0.4c0-0.1-0.1-0.3-0.1-0.4c0-0.2,0.1-0.4,0.2-0.5c0.1-0.1,0.3-0.2,0.6-0.2h1.8v-0.5h0.4v0.5h0.7V152.9z
			 M143.5,155.3c0-0.4,0.1-0.7,0.4-1c0.3-0.2,0.6-0.4,1-0.4h0.1c0.3,0,0.5,0.1,0.8,0.2c0.2,0.1,0.4,0.3,0.5,0.5
			c0.1,0.2,0.2,0.4,0.2,0.6c0,0.4-0.1,0.7-0.4,0.9c-0.2,0.2-0.6,0.3-1.1,0.3h-0.2v-2c-0.3,0-0.5,0.1-0.7,0.2
			c-0.2,0.2-0.3,0.4-0.3,0.6c0,0.2,0,0.3,0.1,0.4c0.1,0.1,0.2,0.2,0.3,0.3l-0.2,0.3C143.6,156.1,143.5,155.8,143.5,155.3z
			 M146,155.2c0-0.2-0.1-0.4-0.2-0.5c-0.1-0.1-0.3-0.2-0.6-0.3v1.4h0c0.3,0,0.4-0.1,0.6-0.2C146,155.6,146,155.4,146,155.2z
			 M146.4,157.5l-0.4,0c0.3,0.2,0.4,0.5,0.4,0.9c0,0.6-0.3,0.9-1,0.9h-1.9v-0.5h1.9c0.2,0,0.4,0,0.5-0.1c0.1-0.1,0.1-0.2,0.1-0.4
			c0-0.2,0-0.3-0.1-0.4c-0.1-0.1-0.2-0.2-0.3-0.3h-2.1v-0.5h2.9V157.5z"/>
		<path class="st7" d="M165,151.4c-0.8,0-1.5,0.7-1.5,1.5s0.7,1.5,1.5,1.5s1.5-0.7,1.5-1.5S165.9,151.4,165,151.4z"/>
		<path class="st5" d="M222.3,184c1.4,0,2.4,1.1,2.4,2.4v46.5c0,1.4-1.1,2.4-2.4,2.4h-21c-1.4,0-2.4-1.1-2.4-2.4v-46.5
			c0-1.4,1.1-2.4,2.4-2.4H222.3z"/>
		<path class="st2" d="M216.6,189.7v-1.4l-0.9-0.3v-0.5l3.4,1.3v0.4l-3.4,1.3v-0.5L216.6,189.7z M217,188.4v1.2l1.6-0.6L217,188.4z
			 M215.7,191.2h2.2v-0.4h0.3v0.4h0.3c0.3,0,0.5,0.1,0.6,0.2c0.1,0.1,0.2,0.4,0.2,0.6c0,0.1,0,0.2,0,0.3l-0.4,0c0-0.1,0-0.2,0-0.2
			c0-0.1,0-0.3-0.1-0.3c-0.1-0.1-0.2-0.1-0.4-0.1h-0.3v0.5h-0.3v-0.5h-2.2V191.2z M218.9,193.3h-0.6v0.5h-0.3v-0.5h-1.6
			c-0.1,0-0.2,0-0.2,0.1c-0.1,0-0.1,0.1-0.1,0.2c0,0.1,0,0.1,0,0.2h-0.4c0-0.1,0-0.2,0-0.3c0-0.2,0.1-0.3,0.2-0.4
			c0.1-0.1,0.3-0.1,0.5-0.1h1.6v-0.5h0.3v0.5h0.6V193.3z M215.7,195.4c0-0.3,0.1-0.6,0.3-0.8c0.2-0.2,0.5-0.3,0.9-0.3h0.1
			c0.3,0,0.5,0,0.7,0.1c0.2,0.1,0.4,0.2,0.5,0.4c0.1,0.2,0.2,0.4,0.2,0.6c0,0.3-0.1,0.6-0.3,0.8c-0.2,0.2-0.5,0.3-0.9,0.3h-0.2v-1.7
			c-0.3,0-0.5,0.1-0.6,0.2c-0.2,0.1-0.2,0.3-0.2,0.5c0,0.2,0,0.3,0.1,0.4s0.1,0.2,0.3,0.3l-0.2,0.3
			C215.8,196.2,215.7,195.8,215.7,195.4z M218,195.4c0-0.2-0.1-0.3-0.2-0.4c-0.1-0.1-0.3-0.2-0.5-0.2v1.3h0c0.2,0,0.4-0.1,0.5-0.2
			C217.9,195.7,218,195.5,218,195.4z M217.9,198.2c0-0.1,0-0.1,0-0.2c0-0.3-0.1-0.5-0.4-0.6h-1.8V197h2.6v0.4l-0.3,0
			c0.2,0.1,0.3,0.3,0.3,0.6c0,0.1,0,0.1,0,0.2H217.9z M215.7,201.5c0.1,0,0.1,0,0.3-0.1c-0.2-0.2-0.3-0.4-0.3-0.7
			c0-0.3,0.1-0.5,0.2-0.6c0.1-0.2,0.3-0.2,0.5-0.2c0.3,0,0.5,0.1,0.6,0.3c0.1,0.2,0.2,0.5,0.2,0.9v0.4h0.2c0.2,0,0.3,0,0.4-0.1
			c0.1-0.1,0.1-0.2,0.1-0.4c0-0.2,0-0.3-0.1-0.4c-0.1-0.1-0.2-0.2-0.3-0.2v-0.4c0.1,0,0.3,0,0.4,0.1c0.1,0.1,0.2,0.2,0.3,0.4
			c0.1,0.2,0.1,0.3,0.1,0.5c0,0.3-0.1,0.5-0.2,0.7c-0.1,0.2-0.3,0.3-0.6,0.3h-1.2c-0.2,0-0.4,0-0.6,0.1h0V201.5z M216.1,200.8
			c0,0.1,0,0.3,0.1,0.4c0.1,0.1,0.2,0.2,0.3,0.3h0.5v-0.3c0-0.5-0.2-0.8-0.5-0.8c-0.1,0-0.2,0-0.3,0.1
			C216.1,200.5,216.1,200.6,216.1,200.8z M215.7,204.1h2.2v-0.4h0.3v0.4h0.3c0.3,0,0.5,0.1,0.6,0.2c0.1,0.1,0.2,0.4,0.2,0.6
			c0,0.1,0,0.2,0,0.3l-0.4,0c0-0.1,0-0.2,0-0.2c0-0.1,0-0.3-0.1-0.3c-0.1-0.1-0.2-0.1-0.4-0.1h-0.3v0.5h-0.3v-0.5h-2.2V204.1z
			 M215.7,206.6c0-0.3,0.1-0.6,0.3-0.8c0.2-0.2,0.5-0.3,0.9-0.3h0.1c0.3,0,0.5,0,0.7,0.1c0.2,0.1,0.4,0.2,0.5,0.4
			c0.1,0.2,0.2,0.4,0.2,0.6c0,0.3-0.1,0.6-0.3,0.8c-0.2,0.2-0.5,0.3-0.9,0.3h-0.2v-1.7c-0.3,0-0.5,0.1-0.6,0.2
			c-0.2,0.1-0.2,0.3-0.2,0.5c0,0.2,0,0.3,0.1,0.4s0.1,0.2,0.3,0.3l-0.2,0.3C215.8,207.4,215.7,207,215.7,206.6z M218,206.6
			c0-0.2-0.1-0.3-0.2-0.4c-0.1-0.1-0.3-0.2-0.5-0.2v1.3h0c0.2,0,0.4-0.1,0.5-0.2C217.9,206.9,218,206.7,218,206.6z M216.3,210.4
			l2,0.5v0.4l-2.6-0.7v-0.4l1.9-0.6l-1.9-0.6v-0.4l2.6-0.7v0.4l-1.9,0.5l1.9,0.6v0.4L216.3,210.4z M217.9,214.4c0-0.1,0-0.1,0-0.2
			c0-0.3-0.1-0.5-0.4-0.6h-1.8v-0.4h2.6v0.4l-0.3,0c0.2,0.1,0.3,0.3,0.3,0.6c0,0.1,0,0.2,0,0.2H217.9z M215.7,216.3
			c0.1,0,0.1,0,0.3-0.1c-0.2-0.2-0.3-0.4-0.3-0.7c0-0.3,0.1-0.5,0.2-0.6c0.1-0.2,0.3-0.2,0.5-0.2c0.3,0,0.5,0.1,0.6,0.3
			c0.1,0.2,0.2,0.5,0.2,0.9v0.4h0.2c0.2,0,0.3,0,0.4-0.1c0.1-0.1,0.1-0.2,0.1-0.4c0-0.2,0-0.3-0.1-0.4c-0.1-0.1-0.2-0.2-0.3-0.2
			v-0.4c0.1,0,0.3,0,0.4,0.1c0.1,0.1,0.2,0.2,0.3,0.4c0.1,0.2,0.1,0.3,0.1,0.5c0,0.3-0.1,0.5-0.2,0.7c-0.1,0.2-0.3,0.3-0.6,0.3h-1.2
			c-0.2,0-0.4,0-0.6,0.1h0V216.3z M216.1,215.6c0,0.1,0,0.3,0.1,0.4c0.1,0.1,0.2,0.2,0.3,0.3h0.5v-0.3c0-0.5-0.2-0.8-0.5-0.8
			c-0.1,0-0.2,0-0.3,0.1C216.1,215.3,216.1,215.4,216.1,215.6z M218.9,218h-0.6v0.5h-0.3V218h-1.6c-0.1,0-0.2,0-0.2,0.1
			c-0.1,0-0.1,0.1-0.1,0.2c0,0.1,0,0.1,0,0.2h-0.4c0-0.1,0-0.2,0-0.3c0-0.2,0.1-0.3,0.2-0.4c0.1-0.1,0.3-0.1,0.5-0.1h1.6v-0.5h0.3
			v0.5h0.6V218z M215.7,219.5v-0.4h2.6v0.4H215.7z M219,219.1c0.1,0,0.1,0,0.2,0.1c0,0,0.1,0.1,0.1,0.2c0,0.1,0,0.1-0.1,0.2
			c0,0-0.1,0.1-0.2,0.1c-0.1,0-0.1,0-0.2-0.1c0,0-0.1-0.1-0.1-0.2c0-0.1,0-0.1,0.1-0.2C218.8,219.1,218.9,219.1,219,219.1z
			 M218.3,220.7l-0.3,0c0.2,0.2,0.4,0.5,0.4,0.8c0,0.5-0.3,0.8-0.9,0.8h-1.7v-0.4h1.7c0.2,0,0.3,0,0.4-0.1c0.1-0.1,0.1-0.2,0.1-0.4
			c0-0.1,0-0.3-0.1-0.4s-0.2-0.2-0.3-0.3h-1.8v-0.4h2.6V220.7z M217,222.9c0.4,0,0.7,0.1,1,0.3c0.2,0.2,0.4,0.4,0.4,0.7
			c0,0.3-0.1,0.6-0.3,0.7l0.3,0v0.4h-2.5c-0.3,0-0.6-0.1-0.8-0.3c-0.2-0.2-0.3-0.5-0.3-0.8c0-0.2,0-0.4,0.1-0.5
			c0.1-0.2,0.2-0.3,0.3-0.4l0.3,0.2c-0.2,0.2-0.3,0.4-0.3,0.7c0,0.2,0.1,0.4,0.2,0.5c0.1,0.1,0.3,0.2,0.5,0.2h0.2
			c-0.2-0.2-0.3-0.4-0.3-0.7c0-0.3,0.1-0.5,0.4-0.7C216.3,223,216.6,222.9,217,222.9z M217,223.4c-0.3,0-0.5,0.1-0.7,0.2
			c-0.2,0.1-0.2,0.3-0.2,0.5c0,0.3,0.1,0.5,0.4,0.6h1.2c0.2-0.1,0.4-0.3,0.4-0.6c0-0.2-0.1-0.4-0.2-0.5
			C217.5,223.4,217.3,223.4,217,223.4z M216.4,227.3c0.1,0,0.2,0,0.3-0.1c0.1-0.1,0.1-0.2,0.2-0.5c0-0.2,0.1-0.4,0.2-0.5
			c0.1-0.1,0.1-0.2,0.2-0.3c0.1-0.1,0.2-0.1,0.3-0.1c0.2,0,0.4,0.1,0.5,0.3c0.1,0.2,0.2,0.4,0.2,0.7c0,0.3-0.1,0.5-0.2,0.7
			c-0.2,0.2-0.3,0.3-0.6,0.3v-0.4c0.1,0,0.2-0.1,0.3-0.2c0.1-0.1,0.1-0.2,0.1-0.4c0-0.2,0-0.3-0.1-0.4c-0.1-0.1-0.2-0.1-0.3-0.1
			c-0.1,0-0.2,0-0.2,0.1c-0.1,0.1-0.1,0.2-0.2,0.5c0,0.2-0.1,0.4-0.2,0.5c-0.1,0.1-0.1,0.2-0.2,0.3c-0.1,0.1-0.2,0.1-0.3,0.1
			c-0.2,0-0.4-0.1-0.6-0.3c-0.1-0.2-0.2-0.4-0.2-0.7c0-0.2,0-0.4,0.1-0.5c0.1-0.2,0.2-0.3,0.3-0.4c0.1-0.1,0.3-0.1,0.4-0.1v0.4
			c-0.1,0-0.3,0.1-0.4,0.2c-0.1,0.1-0.1,0.3-0.1,0.4c0,0.2,0,0.3,0.1,0.4C216.2,227.2,216.3,227.3,216.4,227.3z M210.3,189.3
			c0.1,0,0.1,0,0.3-0.1c-0.2-0.2-0.3-0.4-0.3-0.7c0-0.3,0.1-0.5,0.2-0.6c0.1-0.2,0.3-0.2,0.5-0.2c0.3,0,0.5,0.1,0.6,0.3
			c0.1,0.2,0.2,0.5,0.2,0.9v0.4h0.2c0.2,0,0.3,0,0.4-0.1c0.1-0.1,0.1-0.2,0.1-0.4c0-0.2,0-0.3-0.1-0.4c-0.1-0.1-0.2-0.2-0.3-0.2
			v-0.4c0.1,0,0.3,0,0.4,0.1c0.1,0.1,0.2,0.2,0.3,0.4c0.1,0.2,0.1,0.3,0.1,0.5c0,0.3-0.1,0.5-0.2,0.7c-0.1,0.2-0.3,0.3-0.6,0.3h-1.2
			c-0.2,0-0.4,0-0.6,0.1h0V189.3z M210.6,188.6c0,0.1,0,0.3,0.1,0.4c0.1,0.1,0.2,0.2,0.3,0.3h0.5v-0.3c0-0.5-0.2-0.8-0.5-0.8
			c-0.1,0-0.2,0-0.3,0.1C210.6,188.3,210.6,188.5,210.6,188.6z M210.9,191.9c0.1,0,0.2,0,0.3-0.1c0.1-0.1,0.1-0.2,0.2-0.5
			c0-0.2,0.1-0.4,0.2-0.5c0.1-0.1,0.1-0.2,0.2-0.3c0.1-0.1,0.2-0.1,0.3-0.1c0.2,0,0.4,0.1,0.5,0.3c0.1,0.2,0.2,0.4,0.2,0.7
			c0,0.3-0.1,0.5-0.2,0.7c-0.2,0.2-0.3,0.3-0.6,0.3v-0.4c0.1,0,0.2-0.1,0.3-0.2c0.1-0.1,0.1-0.2,0.1-0.4c0-0.2,0-0.3-0.1-0.4
			c-0.1-0.1-0.2-0.1-0.3-0.1c-0.1,0-0.2,0-0.2,0.1c-0.1,0.1-0.1,0.2-0.2,0.5c0,0.2-0.1,0.4-0.2,0.5c-0.1,0.1-0.1,0.2-0.2,0.3
			c-0.1,0.1-0.2,0.1-0.3,0.1c-0.2,0-0.4-0.1-0.6-0.3c-0.1-0.2-0.2-0.4-0.2-0.7c0-0.2,0-0.4,0.1-0.5c0.1-0.2,0.2-0.3,0.3-0.4
			c0.1-0.1,0.3-0.1,0.4-0.1v0.4c-0.1,0-0.3,0.1-0.4,0.2c-0.1,0.1-0.1,0.3-0.1,0.4c0,0.2,0,0.3,0.1,0.4
			C210.7,191.9,210.8,191.9,210.9,191.9z M211.5,193.7l-0.3-0.3h-0.9V193h3.6v0.4h-2.2l0.3,0.2l0.8,0.8v0.5l-1.1-1l-1.5,1.1v-0.5
			L211.5,193.7z M210.3,197.2v-0.4h2.6v0.4H210.3z M213.5,196.8c0.1,0,0.1,0,0.2,0.1c0,0,0.1,0.1,0.1,0.2c0,0.1,0,0.1-0.1,0.2
			c0,0-0.1,0.1-0.2,0.1c-0.1,0-0.1,0-0.2-0.1c0,0-0.1-0.1-0.1-0.2c0-0.1,0-0.2,0.1-0.2C213.4,196.8,213.4,196.8,213.5,196.8z
			 M210.3,198.2h2.2v-0.4h0.3v0.4h0.3c0.3,0,0.5,0.1,0.6,0.2c0.1,0.1,0.2,0.4,0.2,0.6c0,0.1,0,0.2,0,0.3l-0.4,0c0-0.1,0-0.2,0-0.2
			c0-0.1,0-0.3-0.1-0.3c-0.1-0.1-0.2-0.1-0.4-0.1h-0.3v0.5h-0.3v-0.5h-2.2V198.2z M213.5,201.6h-0.6v0.5h-0.3v-0.5h-1.6
			c-0.1,0-0.2,0-0.2,0.1c-0.1,0-0.1,0.1-0.1,0.2c0,0.1,0,0.1,0,0.2h-0.4c0-0.1,0-0.2,0-0.3c0-0.2,0.1-0.3,0.2-0.4
			c0.1-0.1,0.3-0.1,0.5-0.1h1.6v-0.5h0.3v0.5h0.6V201.6z M212.5,203.1c0.2,0.2,0.4,0.4,0.4,0.8c0,0.5-0.3,0.8-0.9,0.8h-1.7v-0.4h1.7
			c0.2,0,0.3,0,0.4-0.1c0.1-0.1,0.1-0.2,0.1-0.4c0-0.1,0-0.3-0.1-0.4s-0.2-0.2-0.3-0.3h-1.8v-0.4h3.6v0.4H212.5z M210.2,206.4
			c0-0.3,0.1-0.6,0.3-0.8c0.2-0.2,0.5-0.3,0.9-0.3h0.1c0.3,0,0.5,0,0.7,0.1c0.2,0.1,0.4,0.2,0.5,0.4c0.1,0.2,0.2,0.4,0.2,0.6
			c0,0.3-0.1,0.6-0.3,0.8c-0.2,0.2-0.5,0.3-0.9,0.3h-0.2v-1.7c-0.3,0-0.5,0.1-0.6,0.2c-0.2,0.1-0.2,0.3-0.2,0.5c0,0.2,0,0.3,0.1,0.4
			c0.1,0.1,0.1,0.2,0.3,0.3l-0.2,0.3C210.4,207.2,210.2,206.8,210.2,206.4z M212.5,206.4c0-0.2-0.1-0.3-0.2-0.4
			c-0.1-0.1-0.3-0.2-0.5-0.2v1.3h0c0.2,0,0.4-0.1,0.5-0.2C212.5,206.7,212.5,206.5,212.5,206.4z M210.9,208.8l1.9,0.6v0.5l-3-1
			c-0.4-0.2-0.6-0.4-0.6-0.8l0-0.1l0-0.2h0.4l0,0.1c0,0.1,0,0.3,0.1,0.3c0.1,0.1,0.2,0.2,0.3,0.2l0.3,0.1l2.5-0.9v0.5L210.9,208.8z
			 M210.9,213.8l2,0.5v0.4l-2.6-0.7v-0.4l1.9-0.6l-1.9-0.6v-0.4l2.6-0.7v0.4l-1.9,0.5l1.9,0.6v0.4L210.9,213.8z M210.3,216.8
			c0.1,0,0.1,0,0.3-0.1c-0.2-0.2-0.3-0.4-0.3-0.7c0-0.3,0.1-0.5,0.2-0.6c0.1-0.2,0.3-0.2,0.5-0.2c0.3,0,0.5,0.1,0.6,0.3
			c0.1,0.2,0.2,0.5,0.2,0.9v0.4h0.2c0.2,0,0.3,0,0.4-0.1c0.1-0.1,0.1-0.2,0.1-0.4c0-0.2,0-0.3-0.1-0.4c-0.1-0.1-0.2-0.2-0.3-0.2
			v-0.4c0.1,0,0.3,0,0.4,0.1c0.1,0.1,0.2,0.2,0.3,0.4c0.1,0.2,0.1,0.3,0.1,0.5c0,0.3-0.1,0.5-0.2,0.7c-0.1,0.2-0.3,0.3-0.6,0.3h-1.2
			c-0.2,0-0.4,0-0.6,0.1h0V216.8z M210.6,216.1c0,0.1,0,0.3,0.1,0.4c0.1,0.1,0.2,0.2,0.3,0.3h0.5v-0.3c0-0.5-0.2-0.8-0.5-0.8
			c-0.1,0-0.2,0-0.3,0.1C210.6,215.8,210.6,216,210.6,216.1z M212.8,218.4l-0.3,0c0.2,0.2,0.4,0.5,0.4,0.8c0,0.5-0.3,0.8-0.9,0.8
			h-1.7v-0.4h1.7c0.2,0,0.3,0,0.4-0.1c0.1-0.1,0.1-0.2,0.1-0.4c0-0.1,0-0.3-0.1-0.4s-0.2-0.2-0.3-0.3h-1.8v-0.4h2.6V218.4z
			 M213.5,221.3h-0.6v0.5h-0.3v-0.5h-1.6c-0.1,0-0.2,0-0.2,0.1c-0.1,0-0.1,0.1-0.1,0.2c0,0.1,0,0.1,0,0.2h-0.4c0-0.1,0-0.2,0-0.3
			c0-0.2,0.1-0.3,0.2-0.4c0.1-0.1,0.3-0.1,0.5-0.1h1.6v-0.5h0.3v0.5h0.6V221.3z M213.5,224.2h-0.6v0.5h-0.3v-0.5h-1.6
			c-0.1,0-0.2,0-0.2,0.1c-0.1,0-0.1,0.1-0.1,0.2c0,0.1,0,0.1,0,0.2h-0.4c0-0.1,0-0.2,0-0.3c0-0.2,0.1-0.3,0.2-0.4
			c0.1-0.1,0.3-0.1,0.5-0.1h1.6v-0.5h0.3v0.5h0.6V224.2z M211.6,225c0.3,0,0.5,0,0.7,0.1c0.2,0.1,0.4,0.2,0.5,0.4
			c0.1,0.2,0.2,0.4,0.2,0.6c0,0.3-0.1,0.6-0.4,0.8c-0.2,0.2-0.6,0.3-1,0.3h0c-0.2,0-0.5,0-0.7-0.1c-0.2-0.1-0.4-0.2-0.5-0.4
			c-0.1-0.2-0.2-0.4-0.2-0.6c0-0.3,0.1-0.6,0.4-0.8C210.8,225.1,211.1,225,211.6,225L211.6,225z M211.5,225.5
			c-0.3,0-0.5,0.1-0.7,0.2c-0.2,0.1-0.3,0.3-0.3,0.5c0,0.2,0.1,0.4,0.3,0.5c0.2,0.1,0.4,0.2,0.7,0.2c0.3,0,0.5-0.1,0.7-0.2
			c0.2-0.1,0.3-0.3,0.3-0.5c0-0.2-0.1-0.4-0.3-0.5C212.1,225.5,211.8,225.5,211.5,225.5z M205.5,189.2c0.1,0,0.2,0,0.3-0.1
			c0.1-0.1,0.1-0.2,0.2-0.5c0-0.2,0.1-0.4,0.2-0.5c0.1-0.1,0.1-0.2,0.2-0.3c0.1-0.1,0.2-0.1,0.3-0.1c0.2,0,0.4,0.1,0.5,0.3
			c0.1,0.2,0.2,0.4,0.2,0.7c0,0.3-0.1,0.5-0.2,0.7c-0.2,0.2-0.3,0.3-0.6,0.3v-0.4c0.1,0,0.2-0.1,0.3-0.2c0.1-0.1,0.1-0.2,0.1-0.4
			c0-0.2,0-0.3-0.1-0.4c-0.1-0.1-0.2-0.1-0.3-0.1c-0.1,0-0.2,0-0.2,0.1c-0.1,0.1-0.1,0.2-0.2,0.5c0,0.2-0.1,0.4-0.2,0.5
			c-0.1,0.1-0.1,0.2-0.2,0.3c-0.1,0.1-0.2,0.1-0.3,0.1c-0.2,0-0.4-0.1-0.6-0.3c-0.1-0.2-0.2-0.4-0.2-0.7c0-0.2,0-0.4,0.1-0.5
			c0.1-0.2,0.2-0.3,0.3-0.4c0.1-0.1,0.3-0.1,0.4-0.1v0.4c-0.1,0-0.3,0.1-0.4,0.2c-0.1,0.1-0.1,0.3-0.1,0.4c0,0.2,0,0.3,0.1,0.4
			C205.3,189.2,205.4,189.2,205.5,189.2z M205.1,191.9c-0.2-0.2-0.3-0.4-0.3-0.8c0-0.3,0.1-0.5,0.2-0.6c0.2-0.1,0.4-0.2,0.7-0.2h1.7
			v0.4h-1.7c-0.4,0-0.6,0.2-0.6,0.5c0,0.3,0.1,0.6,0.4,0.7h1.9v0.4h-2.6v-0.4L205.1,191.9z M206.1,192.9c0.4,0,0.7,0.1,1,0.3
			c0.2,0.2,0.4,0.4,0.4,0.7c0,0.3-0.1,0.6-0.3,0.7l0.3,0v0.4h-2.5c-0.3,0-0.6-0.1-0.8-0.3c-0.2-0.2-0.3-0.5-0.3-0.8
			c0-0.2,0-0.4,0.1-0.5c0.1-0.2,0.2-0.3,0.3-0.4l0.3,0.2c-0.2,0.2-0.3,0.4-0.3,0.7c0,0.2,0.1,0.4,0.2,0.5c0.1,0.1,0.3,0.2,0.5,0.2
			h0.2c-0.2-0.2-0.3-0.4-0.3-0.7c0-0.3,0.1-0.5,0.4-0.7C205.4,193,205.7,192.9,206.1,192.9z M206.1,193.4c-0.3,0-0.5,0.1-0.7,0.2
			c-0.2,0.1-0.2,0.3-0.2,0.5c0,0.3,0.1,0.5,0.4,0.6h1.2c0.2-0.1,0.4-0.3,0.4-0.6c0-0.2-0.1-0.4-0.2-0.5
			C206.6,193.4,206.4,193.4,206.1,193.4z M206.1,195.7c0.4,0,0.7,0.1,1,0.3c0.2,0.2,0.4,0.4,0.4,0.7c0,0.3-0.1,0.6-0.3,0.7l0.3,0
			v0.4h-2.5c-0.3,0-0.6-0.1-0.8-0.3c-0.2-0.2-0.3-0.5-0.3-0.8c0-0.2,0-0.4,0.1-0.5c0.1-0.2,0.2-0.3,0.3-0.4l0.3,0.2
			c-0.2,0.2-0.3,0.4-0.3,0.7c0,0.2,0.1,0.4,0.2,0.5c0.1,0.1,0.3,0.2,0.5,0.2h0.2c-0.2-0.2-0.3-0.4-0.3-0.7c0-0.3,0.1-0.5,0.4-0.7
			C205.4,195.8,205.7,195.7,206.1,195.7z M206.1,196.1c-0.3,0-0.5,0.1-0.7,0.2c-0.2,0.1-0.2,0.3-0.2,0.5c0,0.3,0.1,0.5,0.4,0.6h1.2
			c0.2-0.1,0.4-0.3,0.4-0.6c0-0.2-0.1-0.4-0.2-0.5C206.6,196.2,206.4,196.1,206.1,196.1z M204.8,199.6c0-0.3,0.1-0.6,0.3-0.8
			c0.2-0.2,0.5-0.3,0.9-0.3h0.1c0.3,0,0.5,0,0.7,0.1c0.2,0.1,0.4,0.2,0.5,0.4c0.1,0.2,0.2,0.4,0.2,0.6c0,0.3-0.1,0.6-0.3,0.8
			c-0.2,0.2-0.5,0.3-0.9,0.3H206v-1.7c-0.3,0-0.5,0.1-0.6,0.2c-0.2,0.1-0.2,0.3-0.2,0.5c0,0.2,0,0.3,0.1,0.4
			c0.1,0.1,0.1,0.2,0.3,0.3l-0.2,0.3C204.9,200.4,204.8,200.1,204.8,199.6z M207.1,199.6c0-0.2-0.1-0.3-0.2-0.4
			c-0.1-0.1-0.3-0.2-0.5-0.2v1.3h0c0.2,0,0.4-0.1,0.5-0.2C207,199.9,207.1,199.8,207.1,199.6z M205.5,202.7c0.1,0,0.2,0,0.3-0.1
			c0.1-0.1,0.1-0.2,0.2-0.5c0-0.2,0.1-0.4,0.2-0.5c0.1-0.1,0.1-0.2,0.2-0.3c0.1-0.1,0.2-0.1,0.3-0.1c0.2,0,0.4,0.1,0.5,0.3
			c0.1,0.2,0.2,0.4,0.2,0.7c0,0.3-0.1,0.5-0.2,0.7c-0.2,0.2-0.3,0.3-0.6,0.3v-0.4c0.1,0,0.2-0.1,0.3-0.2c0.1-0.1,0.1-0.2,0.1-0.4
			c0-0.2,0-0.3-0.1-0.4c-0.1-0.1-0.2-0.1-0.3-0.1c-0.1,0-0.2,0-0.2,0.1c-0.1,0.1-0.1,0.2-0.2,0.5c0,0.2-0.1,0.4-0.2,0.5
			c-0.1,0.1-0.1,0.2-0.2,0.3c-0.1,0.1-0.2,0.1-0.3,0.1c-0.2,0-0.4-0.1-0.6-0.3c-0.1-0.2-0.2-0.4-0.2-0.7c0-0.2,0-0.4,0.1-0.5
			c0.1-0.2,0.2-0.3,0.3-0.4c0.1-0.1,0.3-0.1,0.4-0.1v0.4c-0.1,0-0.3,0.1-0.4,0.2c-0.1,0.1-0.1,0.3-0.1,0.4c0,0.2,0,0.3,0.1,0.4
			C205.3,202.6,205.4,202.7,205.5,202.7z M208,204.4h-0.6v0.5H207v-0.5h-1.6c-0.1,0-0.2,0-0.2,0.1c-0.1,0-0.1,0.1-0.1,0.2
			c0,0.1,0,0.1,0,0.2h-0.4c0-0.1,0-0.2,0-0.3c0-0.2,0.1-0.3,0.2-0.4c0.1-0.1,0.3-0.1,0.5-0.1h1.6v-0.5h0.3v0.5h0.6V204.4z
			 M204.8,208.2c0.1,0,0.1,0,0.3-0.1c-0.2-0.2-0.3-0.4-0.3-0.7c0-0.3,0.1-0.5,0.2-0.6c0.1-0.2,0.3-0.2,0.5-0.2
			c0.3,0,0.5,0.1,0.6,0.3c0.1,0.2,0.2,0.5,0.2,0.9v0.4h0.2c0.2,0,0.3,0,0.4-0.1c0.1-0.1,0.1-0.2,0.1-0.4c0-0.2,0-0.3-0.1-0.4
			c-0.1-0.1-0.2-0.2-0.3-0.2v-0.4c0.1,0,0.3,0,0.4,0.1c0.1,0.1,0.2,0.2,0.3,0.4c0.1,0.2,0.1,0.3,0.1,0.5c0,0.3-0.1,0.5-0.2,0.7
			c-0.1,0.2-0.3,0.3-0.6,0.3h-1.2c-0.2,0-0.4,0-0.6,0.1h0V208.2z M205.1,207.5c0,0.1,0,0.3,0.1,0.4c0.1,0.1,0.2,0.2,0.3,0.3h0.5
			v-0.3c0-0.5-0.2-0.8-0.5-0.8c-0.1,0-0.2,0-0.3,0.1C205.2,207.3,205.1,207.4,205.1,207.5z M206.1,210.5c0.4,0,0.7,0.1,1,0.3
			c0.2,0.2,0.4,0.4,0.4,0.7c0,0.3-0.1,0.5-0.3,0.7l0.3,0v0.4h-3.5v-0.4h1.2c-0.2-0.2-0.3-0.4-0.3-0.7c0-0.3,0.1-0.6,0.4-0.7
			C205.4,210.6,205.7,210.5,206.1,210.5L206.1,210.5z M206.1,210.9c-0.3,0-0.5,0.1-0.7,0.2c-0.2,0.1-0.3,0.3-0.3,0.5
			c0,0.3,0.1,0.5,0.3,0.6h1.3c0.2-0.1,0.3-0.3,0.3-0.6c0-0.2-0.1-0.4-0.3-0.5C206.6,211,206.4,210.9,206.1,210.9z M205.1,215
			c-0.2-0.2-0.3-0.4-0.3-0.8c0-0.3,0.1-0.5,0.2-0.6c0.2-0.1,0.4-0.2,0.7-0.2h1.7v0.4h-1.7c-0.4,0-0.6,0.2-0.6,0.5
			c0,0.3,0.1,0.6,0.4,0.7h1.9v0.4h-2.6V215L205.1,215z M204.8,217.2c0-0.3,0.1-0.6,0.3-0.8c0.2-0.2,0.5-0.3,0.9-0.3h0.1
			c0.3,0,0.5,0,0.7,0.1c0.2,0.1,0.4,0.2,0.5,0.4c0.1,0.2,0.2,0.4,0.2,0.6c0,0.3-0.1,0.6-0.3,0.8c-0.2,0.2-0.5,0.3-0.9,0.3H206v-1.7
			c-0.3,0-0.5,0.1-0.6,0.2c-0.2,0.1-0.2,0.3-0.2,0.5c0,0.2,0,0.3,0.1,0.4c0.1,0.1,0.1,0.2,0.3,0.3l-0.2,0.3
			C204.9,218,204.8,217.6,204.8,217.2z M207.1,217.1c0-0.2-0.1-0.3-0.2-0.4c-0.1-0.1-0.3-0.2-0.5-0.2v1.3h0c0.2,0,0.4-0.1,0.5-0.2
			C207,217.5,207.1,217.3,207.1,217.1z M205.5,220.3c0.1,0,0.2,0,0.3-0.1c0.1-0.1,0.1-0.2,0.2-0.5c0-0.2,0.1-0.4,0.2-0.5
			c0.1-0.1,0.1-0.2,0.2-0.3c0.1-0.1,0.2-0.1,0.3-0.1c0.2,0,0.4,0.1,0.5,0.3c0.1,0.2,0.2,0.4,0.2,0.7c0,0.3-0.1,0.5-0.2,0.7
			c-0.2,0.2-0.3,0.3-0.6,0.3v-0.4c0.1,0,0.2-0.1,0.3-0.2c0.1-0.1,0.1-0.2,0.1-0.4c0-0.2,0-0.3-0.1-0.4c-0.1-0.1-0.2-0.1-0.3-0.1
			c-0.1,0-0.2,0-0.2,0.1c-0.1,0.1-0.1,0.2-0.2,0.5c0,0.2-0.1,0.4-0.2,0.5c-0.1,0.1-0.1,0.2-0.2,0.3c-0.1,0.1-0.2,0.1-0.3,0.1
			c-0.2,0-0.4-0.1-0.6-0.3c-0.1-0.2-0.2-0.4-0.2-0.7c0-0.2,0-0.4,0.1-0.5c0.1-0.2,0.2-0.3,0.3-0.4c0.1-0.1,0.3-0.1,0.4-0.1v0.4
			c-0.1,0-0.3,0.1-0.4,0.2c-0.1,0.1-0.1,0.3-0.1,0.4c0,0.2,0,0.3,0.1,0.4C205.3,220.2,205.4,220.3,205.5,220.3z M208,221.9h-0.6v0.5
			H207v-0.5h-1.6c-0.1,0-0.2,0-0.2,0.1c-0.1,0-0.1,0.1-0.1,0.2c0,0.1,0,0.1,0,0.2h-0.4c0-0.1,0-0.2,0-0.3c0-0.2,0.1-0.3,0.2-0.4
			c0.1-0.1,0.3-0.1,0.5-0.1h1.6V221h0.3v0.5h0.6V221.9z M204.8,223.4V223h2.6v0.4H204.8z M208.1,223c0.1,0,0.1,0,0.2,0.1
			c0,0,0.1,0.1,0.1,0.2c0,0.1,0,0.1-0.1,0.2c0,0-0.1,0.1-0.2,0.1c-0.1,0-0.1,0-0.2-0.1s-0.1-0.1-0.1-0.2c0-0.1,0-0.2,0.1-0.2
			C207.9,223,208,223,208.1,223z M206.1,224.1c0.3,0,0.5,0,0.7,0.1c0.2,0.1,0.4,0.2,0.5,0.4c0.1,0.2,0.2,0.4,0.2,0.6
			c0,0.3-0.1,0.6-0.4,0.8c-0.2,0.2-0.6,0.3-1,0.3h0c-0.2,0-0.5,0-0.7-0.1c-0.2-0.1-0.4-0.2-0.5-0.4c-0.1-0.2-0.2-0.4-0.2-0.6
			c0-0.3,0.1-0.6,0.4-0.8C205.4,224.2,205.7,224.1,206.1,224.1L206.1,224.1z M206.1,224.5c-0.3,0-0.5,0.1-0.7,0.2
			c-0.2,0.1-0.3,0.3-0.3,0.5c0,0.2,0.1,0.4,0.3,0.5c0.2,0.1,0.4,0.2,0.7,0.2c0.3,0,0.5-0.1,0.7-0.2c0.2-0.1,0.3-0.3,0.3-0.5
			c0-0.2-0.1-0.4-0.3-0.5C206.6,224.6,206.4,224.5,206.1,224.5z M207.4,227.4l-0.3,0c0.2,0.2,0.4,0.5,0.4,0.8c0,0.5-0.3,0.8-0.9,0.8
			h-1.7v-0.4h1.7c0.2,0,0.3,0,0.4-0.1c0.1-0.1,0.1-0.2,0.1-0.4c0-0.1,0-0.3-0.1-0.4c-0.1-0.1-0.2-0.2-0.3-0.3h-1.8V227h2.6V227.4z"
			/>
		<path class="st5" d="M201.7,210.5l-2.8,2.8l-3-3l2.8-2.8L201.7,210.5z"/>
		<path class="st5" d="M182.9,184c1.4,0,2.4,1.1,2.4,2.4v46.5c0,1.4-1.1,2.4-2.4,2.4h-12.4c-1.4,0-2.4-1.1-2.4-2.4v-46.5
			c0-1.4,1.1-2.4,2.4-2.4H182.9z"/>
		<path class="st2" d="M179,189.7v-1.4l-0.9-0.3v-0.5l3.4,1.3v0.4l-3.4,1.3v-0.5L179,189.7z M179.4,188.4v1.2l1.6-0.6L179.4,188.4z
			 M179.5,190.9c0.4,0,0.7,0.1,0.9,0.3c0.2,0.2,0.4,0.4,0.4,0.7c0,0.3-0.1,0.5-0.3,0.7h1.3v0.4h-3.6v-0.4l0.3,0
			c-0.2-0.2-0.3-0.4-0.3-0.7c0-0.3,0.1-0.5,0.4-0.7C178.7,191,179,190.9,179.5,190.9L179.5,190.9z M179.4,191.3
			c-0.3,0-0.5,0.1-0.7,0.2c-0.2,0.1-0.2,0.3-0.2,0.5c0,0.3,0.1,0.5,0.4,0.6h1.2c0.2-0.1,0.4-0.3,0.4-0.6c0-0.2-0.1-0.4-0.2-0.5
			C180,191.4,179.7,191.3,179.4,191.3z M179.5,193.7c0.4,0,0.7,0.1,0.9,0.3c0.2,0.2,0.4,0.4,0.4,0.7c0,0.3-0.1,0.5-0.3,0.7h1.3v0.4
			h-3.6v-0.4l0.3,0c-0.2-0.2-0.3-0.4-0.3-0.7c0-0.3,0.1-0.5,0.4-0.7C178.7,193.7,179,193.7,179.5,193.7L179.5,193.7z M179.4,194.1
			c-0.3,0-0.5,0.1-0.7,0.2c-0.2,0.1-0.2,0.3-0.2,0.5c0,0.3,0.1,0.5,0.4,0.6h1.2c0.2-0.1,0.4-0.3,0.4-0.6c0-0.2-0.1-0.4-0.2-0.5
			C180,194.2,179.7,194.1,179.4,194.1z M179.4,200c-0.4,0-0.7-0.1-0.9-0.3c-0.2-0.2-0.4-0.4-0.4-0.7c0-0.3,0.1-0.6,0.3-0.7h-1.2
			v-0.4h3.5v0.4l-0.3,0c0.2,0.2,0.3,0.4,0.3,0.7c0,0.3-0.1,0.6-0.3,0.7C180.2,199.9,179.9,200,179.4,200L179.4,200z M179.5,199.5
			c0.3,0,0.5-0.1,0.7-0.2s0.3-0.3,0.3-0.5c0-0.3-0.1-0.5-0.4-0.6h-1.2c-0.2,0.1-0.4,0.3-0.4,0.6c0,0.2,0.1,0.4,0.2,0.5
			C178.9,199.5,179.1,199.5,179.5,199.5z M180.3,201.8c0-0.1,0-0.1,0-0.2c0-0.3-0.1-0.5-0.4-0.6h-1.8v-0.4h2.6v0.4l-0.3,0
			c0.2,0.1,0.3,0.3,0.3,0.6c0,0.1,0,0.2,0,0.2H180.3z M179.5,202.1c0.3,0,0.5,0,0.7,0.1c0.2,0.1,0.4,0.2,0.5,0.4
			c0.1,0.2,0.2,0.4,0.2,0.6c0,0.3-0.1,0.6-0.4,0.8c-0.2,0.2-0.6,0.3-1,0.3h0c-0.2,0-0.5,0-0.7-0.1c-0.2-0.1-0.4-0.2-0.5-0.4
			c-0.1-0.2-0.2-0.4-0.2-0.6c0-0.3,0.1-0.6,0.4-0.8C178.7,202.2,179,202.1,179.5,202.1L179.5,202.1z M179.4,202.6
			c-0.3,0-0.5,0.1-0.7,0.2c-0.2,0.1-0.3,0.3-0.3,0.5c0,0.2,0.1,0.4,0.3,0.5c0.2,0.1,0.4,0.2,0.7,0.2c0.3,0,0.5-0.1,0.7-0.2
			c0.2-0.1,0.3-0.3,0.3-0.5c0-0.2-0.1-0.4-0.3-0.5C180,202.6,179.7,202.6,179.4,202.6z M180.7,205.5l-0.3,0c0.2,0.2,0.3,0.4,0.3,0.8
			c0,0.4-0.1,0.6-0.4,0.7c0.1,0.1,0.2,0.2,0.3,0.3c0.1,0.1,0.1,0.3,0.1,0.5c0,0.6-0.3,0.8-0.9,0.9h-1.7v-0.4h1.7
			c0.2,0,0.3,0,0.4-0.1c0.1-0.1,0.1-0.2,0.1-0.4c0-0.2,0-0.3-0.1-0.4c-0.1-0.1-0.2-0.2-0.4-0.2h-1.7v-0.4h1.7c0.4,0,0.6-0.2,0.6-0.5
			c0-0.3-0.1-0.5-0.4-0.6h-1.9V205h2.6V205.5z M179.4,211.5c-0.4,0-0.7-0.1-0.9-0.3c-0.2-0.2-0.4-0.4-0.4-0.7c0-0.3,0.1-0.6,0.3-0.7
			h-1.2v-0.4h3.5v0.4l-0.3,0c0.2,0.2,0.3,0.4,0.3,0.7c0,0.3-0.1,0.6-0.3,0.7C180.2,211.4,179.9,211.5,179.4,211.5L179.4,211.5z
			 M179.5,211.1c0.3,0,0.5-0.1,0.7-0.2c0.2-0.1,0.3-0.3,0.3-0.5c0-0.3-0.1-0.5-0.4-0.6h-1.2c-0.2,0.1-0.4,0.3-0.4,0.6
			c0,0.2,0.1,0.4,0.2,0.5C178.9,211,179.1,211.1,179.5,211.1z M181.3,212.7h-0.6v0.5h-0.3v-0.5h-1.6c-0.1,0-0.2,0-0.2,0.1
			c-0.1,0-0.1,0.1-0.1,0.2c0,0.1,0,0.1,0,0.2h-0.4c0-0.1,0-0.2,0-0.3c0-0.2,0.1-0.3,0.2-0.4c0.1-0.1,0.3-0.1,0.5-0.1h1.6v-0.5h0.3
			v0.5h0.6V212.7z M181.3,215.6h-0.6v0.5h-0.3v-0.5h-1.6c-0.1,0-0.2,0-0.2,0.1c-0.1,0-0.1,0.1-0.1,0.2c0,0.1,0,0.1,0,0.2h-0.4
			c0-0.1,0-0.2,0-0.3c0-0.2,0.1-0.3,0.2-0.4c0.1-0.1,0.3-0.1,0.5-0.1h1.6v-0.5h0.3v0.5h0.6V215.6z M179.5,216.5c0.3,0,0.5,0,0.7,0.1
			c0.2,0.1,0.4,0.2,0.5,0.4c0.1,0.2,0.2,0.4,0.2,0.6c0,0.3-0.1,0.6-0.4,0.8c-0.2,0.2-0.6,0.3-1,0.3h0c-0.2,0-0.5,0-0.7-0.1
			c-0.2-0.1-0.4-0.2-0.5-0.4c-0.1-0.2-0.2-0.4-0.2-0.6c0-0.3,0.1-0.6,0.4-0.8C178.7,216.6,179,216.5,179.5,216.5L179.5,216.5z
			 M179.4,216.9c-0.3,0-0.5,0.1-0.7,0.2c-0.2,0.1-0.3,0.3-0.3,0.5c0,0.2,0.1,0.4,0.3,0.5c0.2,0.1,0.4,0.2,0.7,0.2
			c0.3,0,0.5-0.1,0.7-0.2c0.2-0.1,0.3-0.3,0.3-0.5c0-0.2-0.1-0.4-0.3-0.5C180,217,179.7,216.9,179.4,216.9z M172.4,188.8
			c0,0.2,0,0.3,0.1,0.4c0.1,0.1,0.2,0.2,0.4,0.2v0.4c-0.1,0-0.3-0.1-0.4-0.2c-0.1-0.1-0.2-0.2-0.3-0.4c-0.1-0.2-0.1-0.3-0.1-0.5
			c0-0.3,0.1-0.6,0.3-0.8c0.2-0.2,0.6-0.3,1-0.3h0.1c0.2,0,0.5,0,0.7,0.1c0.2,0.1,0.3,0.2,0.5,0.4c0.1,0.2,0.2,0.4,0.2,0.6
			c0,0.3-0.1,0.5-0.3,0.7c-0.2,0.2-0.4,0.3-0.7,0.3v-0.4c0.2,0,0.3-0.1,0.4-0.2c0.1-0.1,0.2-0.3,0.2-0.4c0-0.2-0.1-0.4-0.2-0.5
			c-0.2-0.1-0.4-0.2-0.7-0.2h-0.1c-0.3,0-0.5,0.1-0.7,0.2C172.5,188.4,172.4,188.6,172.4,188.8z M173.4,190.2c0.3,0,0.5,0,0.7,0.1
			c0.2,0.1,0.4,0.2,0.5,0.4c0.1,0.2,0.2,0.4,0.2,0.6c0,0.3-0.1,0.6-0.4,0.8c-0.2,0.2-0.6,0.3-1,0.3h0c-0.2,0-0.5,0-0.7-0.1
			c-0.2-0.1-0.4-0.2-0.5-0.4c-0.1-0.2-0.2-0.4-0.2-0.6c0-0.3,0.1-0.6,0.4-0.8C172.6,190.3,173,190.2,173.4,190.2L173.4,190.2z
			 M173.3,190.7c-0.3,0-0.5,0.1-0.7,0.2c-0.2,0.1-0.3,0.3-0.3,0.5c0,0.2,0.1,0.4,0.3,0.5c0.2,0.1,0.4,0.2,0.7,0.2
			c0.3,0,0.5-0.1,0.7-0.2c0.2-0.1,0.3-0.3,0.3-0.5c0-0.2-0.1-0.4-0.3-0.5C173.9,190.7,173.7,190.7,173.3,190.7z M174.7,193.6l-0.3,0
			c0.2,0.2,0.4,0.5,0.4,0.8c0,0.5-0.3,0.8-0.9,0.8h-1.7v-0.4h1.7c0.2,0,0.3,0,0.4-0.1c0.1-0.1,0.1-0.2,0.1-0.4c0-0.1,0-0.3-0.1-0.4
			c-0.1-0.1-0.2-0.2-0.3-0.3h-1.8v-0.4h2.6V193.6z M172.1,196h2.2v-0.4h0.3v0.4h0.2c0.3,0,0.5,0.1,0.7,0.2c0.2,0.2,0.2,0.4,0.2,0.7
			c0,0.2,0,0.4-0.1,0.7l-0.4-0.1c0.1-0.2,0.1-0.4,0.1-0.6c0-0.2,0-0.3-0.1-0.4c-0.1-0.1-0.2-0.1-0.4-0.1h-0.2v0.5h-0.3v-0.5h-2.2
			V196z M172.1,197.9v-0.4h2.6v0.4H172.1z M174.3,199.9c0-0.1,0-0.1,0-0.2c0-0.3-0.1-0.5-0.4-0.6h-1.8v-0.4h2.6v0.4l-0.3,0
			c0.2,0.1,0.3,0.3,0.3,0.6c0,0.1,0,0.1,0,0.2H174.3z M174.7,200.7l-0.3,0c0.2,0.2,0.3,0.4,0.3,0.8c0,0.4-0.1,0.6-0.4,0.7
			c0.1,0.1,0.2,0.2,0.3,0.3c0.1,0.1,0.1,0.3,0.1,0.5c0,0.6-0.3,0.8-0.9,0.9h-1.7v-0.4h1.7c0.2,0,0.3,0,0.4-0.1
			c0.1-0.1,0.1-0.2,0.1-0.4c0-0.2,0-0.3-0.1-0.4c-0.1-0.1-0.2-0.2-0.4-0.2h-1.7v-0.4h1.7c0.4,0,0.6-0.2,0.6-0.5
			c0-0.3-0.1-0.5-0.4-0.6h-1.9v-0.4h2.6V200.7z M174.3,207.1c0-0.1,0-0.1,0-0.2c0-0.3-0.1-0.5-0.4-0.6h-1.8v-0.4h2.6v0.4l-0.3,0
			c0.2,0.1,0.3,0.3,0.3,0.6c0,0.1,0,0.2,0,0.2H174.3z M172.1,209.1c0.1,0,0.1,0,0.3-0.1c-0.2-0.2-0.3-0.4-0.3-0.7
			c0-0.3,0.1-0.5,0.2-0.6c0.1-0.2,0.3-0.2,0.5-0.2c0.3,0,0.5,0.1,0.6,0.3c0.1,0.2,0.2,0.5,0.2,0.9v0.4h0.2c0.2,0,0.3,0,0.4-0.1
			c0.1-0.1,0.1-0.2,0.1-0.4c0-0.2,0-0.3-0.1-0.4c-0.1-0.1-0.2-0.2-0.3-0.2v-0.4c0.1,0,0.3,0,0.4,0.1c0.1,0.1,0.2,0.2,0.3,0.4
			c0.1,0.2,0.1,0.3,0.1,0.5c0,0.3-0.1,0.5-0.2,0.7c-0.1,0.2-0.3,0.3-0.6,0.3h-1.2c-0.2,0-0.4,0-0.6,0.1h0V209.1z M172.4,208.3
			c0,0.1,0,0.3,0.1,0.4c0.1,0.1,0.2,0.2,0.3,0.3h0.5v-0.3c0-0.5-0.2-0.8-0.5-0.8c-0.1,0-0.2,0-0.3,0.1
			C172.5,208.1,172.4,208.2,172.4,208.3z M175.3,210.8h-0.6v0.5h-0.3v-0.5h-1.6c-0.1,0-0.2,0-0.2,0.1c-0.1,0-0.1,0.1-0.1,0.2
			c0,0.1,0,0.1,0,0.2h-0.4c0-0.1,0-0.2,0-0.3c0-0.2,0.1-0.3,0.2-0.4c0.1-0.1,0.3-0.1,0.5-0.1h1.6v-0.5h0.3v0.5h0.6V210.8z
			 M172.1,212.3v-0.4h2.6v0.4H172.1z M175.3,211.8c0.1,0,0.1,0,0.2,0.1c0,0,0.1,0.1,0.1,0.2c0,0.1,0,0.1-0.1,0.2
			c0,0-0.1,0.1-0.2,0.1c-0.1,0-0.1,0-0.2-0.1c0,0-0.1-0.1-0.1-0.2c0-0.1,0-0.1,0.1-0.2C175.2,211.8,175.3,211.8,175.3,211.8z
			 M174.7,213.5l-0.3,0c0.2,0.2,0.4,0.5,0.4,0.8c0,0.5-0.3,0.8-0.9,0.8h-1.7v-0.4h1.7c0.2,0,0.3,0,0.4-0.1c0.1-0.1,0.1-0.2,0.1-0.4
			c0-0.1,0-0.3-0.1-0.4c-0.1-0.1-0.2-0.2-0.3-0.3h-1.8V213h2.6V213.5z M173.4,215.7c0.4,0,0.7,0.1,1,0.3c0.2,0.2,0.4,0.4,0.4,0.7
			c0,0.3-0.1,0.6-0.3,0.7l0.3,0v0.4h-2.5c-0.3,0-0.6-0.1-0.8-0.3c-0.2-0.2-0.3-0.5-0.3-0.8c0-0.2,0-0.4,0.1-0.5
			c0.1-0.2,0.2-0.3,0.3-0.4l0.3,0.2c-0.2,0.2-0.3,0.4-0.3,0.7c0,0.2,0.1,0.4,0.2,0.5c0.1,0.1,0.3,0.2,0.5,0.2h0.2
			c-0.2-0.2-0.3-0.4-0.3-0.7c0-0.3,0.1-0.5,0.4-0.7C172.6,215.8,173,215.7,173.4,215.7z M173.3,216.1c-0.3,0-0.5,0.1-0.7,0.2
			c-0.2,0.1-0.2,0.3-0.2,0.5c0,0.3,0.1,0.5,0.4,0.6h1.2c0.2-0.1,0.4-0.3,0.4-0.6c0-0.2-0.1-0.4-0.2-0.5
			C173.9,216.2,173.7,216.1,173.3,216.1z"/>
		<path class="st5" d="M188.4,210.5l-2.8,2.8l-3-3l2.8-2.8L188.4,210.5z"/>
		<path class="st5" d="M211.4,299.6c1.4,0,2.4,1.1,2.4,2.4v46.5c0,1.4-1.1,2.4-2.4,2.4h-10.1c-1.4,0-2.4-1.1-2.4-2.4v-46.5
			c0-1.4,1.1-2.4,2.4-2.4H211.4z"/>
		<path class="st2" d="M205.2,303.9v1.6h-0.4v-2.1h3.4v0.5H205.2z M204.8,307.6c0.1,0,0.1,0,0.3-0.1c-0.2-0.2-0.3-0.4-0.3-0.7
			c0-0.3,0.1-0.5,0.2-0.6c0.1-0.2,0.3-0.2,0.5-0.2c0.3,0,0.5,0.1,0.6,0.3c0.1,0.2,0.2,0.5,0.2,0.9v0.4h0.2c0.2,0,0.3,0,0.4-0.1
			c0.1-0.1,0.1-0.2,0.1-0.4c0-0.2,0-0.3-0.1-0.4c-0.1-0.1-0.2-0.2-0.3-0.2V306c0.1,0,0.3,0,0.4,0.1c0.1,0.1,0.2,0.2,0.3,0.4
			c0.1,0.2,0.1,0.3,0.1,0.5c0,0.3-0.1,0.5-0.2,0.7c-0.1,0.2-0.3,0.3-0.6,0.3h-1.2c-0.2,0-0.4,0-0.6,0.1h0V307.6z M205.1,306.9
			c0,0.1,0,0.3,0.1,0.4c0.1,0.1,0.2,0.2,0.3,0.3h0.5v-0.3c0-0.5-0.2-0.8-0.5-0.8c-0.1,0-0.2,0-0.3,0.1
			C205.2,306.6,205.1,306.7,205.1,306.9z M205.5,310.2c0.1,0,0.2,0,0.3-0.1c0.1-0.1,0.1-0.2,0.2-0.5c0-0.2,0.1-0.4,0.2-0.5
			c0.1-0.1,0.1-0.2,0.2-0.3c0.1-0.1,0.2-0.1,0.3-0.1c0.2,0,0.4,0.1,0.5,0.3c0.1,0.2,0.2,0.4,0.2,0.7c0,0.3-0.1,0.5-0.2,0.7
			c-0.2,0.2-0.3,0.3-0.6,0.3v-0.4c0.1,0,0.2-0.1,0.3-0.2c0.1-0.1,0.1-0.2,0.1-0.4c0-0.2,0-0.3-0.1-0.4c-0.1-0.1-0.2-0.1-0.3-0.1
			c-0.1,0-0.2,0-0.2,0.1c-0.1,0.1-0.1,0.2-0.2,0.5c0,0.2-0.1,0.4-0.2,0.5c-0.1,0.1-0.1,0.2-0.2,0.3c-0.1,0.1-0.2,0.1-0.3,0.1
			c-0.2,0-0.4-0.1-0.6-0.3c-0.1-0.2-0.2-0.4-0.2-0.7c0-0.2,0-0.4,0.1-0.5c0.1-0.2,0.2-0.3,0.3-0.4c0.1-0.1,0.3-0.1,0.4-0.1v0.4
			c-0.1,0-0.3,0.1-0.4,0.2c-0.1,0.1-0.1,0.3-0.1,0.4c0,0.2,0,0.3,0.1,0.4C205.3,310.2,205.4,310.2,205.5,310.2z M208,311.9h-0.6v0.5
			H207v-0.5h-1.6c-0.1,0-0.2,0-0.2,0.1c-0.1,0-0.1,0.1-0.1,0.2c0,0.1,0,0.1,0,0.2h-0.4c0-0.1,0-0.2,0-0.3c0-0.2,0.1-0.3,0.2-0.4
			c0.1-0.1,0.3-0.1,0.5-0.1h1.6V311h0.3v0.5h0.6V311.9z M206.1,314.1c0.4,0,0.7,0.1,1,0.3c0.2,0.2,0.4,0.4,0.4,0.7
			c0,0.3-0.1,0.5-0.3,0.7l0.3,0v0.4h-3.5v-0.4h1.2c-0.2-0.2-0.3-0.4-0.3-0.7c0-0.3,0.1-0.6,0.4-0.7
			C205.4,314.2,205.7,314.1,206.1,314.1L206.1,314.1z M206.1,314.5c-0.3,0-0.5,0.1-0.7,0.2c-0.2,0.1-0.3,0.3-0.3,0.5
			c0,0.3,0.1,0.5,0.3,0.6h1.3c0.2-0.1,0.3-0.3,0.3-0.6c0-0.2-0.1-0.4-0.3-0.5C206.6,314.6,206.4,314.5,206.1,314.5z M205.1,318.6
			c-0.2-0.2-0.3-0.4-0.3-0.8c0-0.3,0.1-0.5,0.2-0.6c0.2-0.1,0.4-0.2,0.7-0.2h1.7v0.4h-1.7c-0.4,0-0.6,0.2-0.6,0.5
			c0,0.3,0.1,0.6,0.4,0.7h1.9v0.4h-2.6v-0.4L205.1,318.6z M204.8,320.8c0-0.3,0.1-0.6,0.3-0.8c0.2-0.2,0.5-0.3,0.9-0.3h0.1
			c0.3,0,0.5,0,0.7,0.1c0.2,0.1,0.4,0.2,0.5,0.4c0.1,0.2,0.2,0.4,0.2,0.6c0,0.3-0.1,0.6-0.3,0.8c-0.2,0.2-0.5,0.3-0.9,0.3H206V320
			c-0.3,0-0.5,0.1-0.6,0.2c-0.2,0.1-0.2,0.3-0.2,0.5c0,0.2,0,0.3,0.1,0.4c0.1,0.1,0.1,0.2,0.3,0.3l-0.2,0.3
			C204.9,321.5,204.8,321.2,204.8,320.8z M207.1,320.7c0-0.2-0.1-0.3-0.2-0.4c-0.1-0.1-0.3-0.2-0.5-0.2v1.3h0c0.2,0,0.4-0.1,0.5-0.2
			C207,321,207.1,320.9,207.1,320.7z M205.5,323.8c0.1,0,0.2,0,0.3-0.1c0.1-0.1,0.1-0.2,0.2-0.5c0-0.2,0.1-0.4,0.2-0.5
			c0.1-0.1,0.1-0.2,0.2-0.3c0.1-0.1,0.2-0.1,0.3-0.1c0.2,0,0.4,0.1,0.5,0.3c0.1,0.2,0.2,0.4,0.2,0.7c0,0.3-0.1,0.5-0.2,0.7
			c-0.2,0.2-0.3,0.3-0.6,0.3v-0.4c0.1,0,0.2-0.1,0.3-0.2c0.1-0.1,0.1-0.2,0.1-0.4c0-0.2,0-0.3-0.1-0.4c-0.1-0.1-0.2-0.1-0.3-0.1
			c-0.1,0-0.2,0-0.2,0.1c-0.1,0.1-0.1,0.2-0.2,0.5c0,0.2-0.1,0.4-0.2,0.5c-0.1,0.1-0.1,0.2-0.2,0.3c-0.1,0.1-0.2,0.1-0.3,0.1
			c-0.2,0-0.4-0.1-0.6-0.3c-0.1-0.2-0.2-0.4-0.2-0.7c0-0.2,0-0.4,0.1-0.5c0.1-0.2,0.2-0.3,0.3-0.4c0.1-0.1,0.3-0.1,0.4-0.1v0.4
			c-0.1,0-0.3,0.1-0.4,0.2c-0.1,0.1-0.1,0.3-0.1,0.4c0,0.2,0,0.3,0.1,0.4C205.3,323.8,205.4,323.8,205.5,323.8z M208,325.5h-0.6v0.5
			H207v-0.5h-1.6c-0.1,0-0.2,0-0.2,0.1c-0.1,0-0.1,0.1-0.1,0.2c0,0.1,0,0.1,0,0.2h-0.4c0-0.1,0-0.2,0-0.3c0-0.2,0.1-0.3,0.2-0.4
			c0.1-0.1,0.3-0.1,0.5-0.1h1.6v-0.5h0.3v0.5h0.6V325.5z M204.8,327v-0.4h2.6v0.4H204.8z M208.1,326.5c0.1,0,0.1,0,0.2,0.1
			c0,0,0.1,0.1,0.1,0.2c0,0.1,0,0.1-0.1,0.2c0,0-0.1,0.1-0.2,0.1c-0.1,0-0.1,0-0.2-0.1c0,0-0.1-0.1-0.1-0.2c0-0.1,0-0.2,0.1-0.2
			C207.9,326.5,208,326.5,208.1,326.5z M206.1,327.6c0.3,0,0.5,0,0.7,0.1c0.2,0.1,0.4,0.2,0.5,0.4c0.1,0.2,0.2,0.4,0.2,0.6
			c0,0.3-0.1,0.6-0.4,0.8c-0.2,0.2-0.6,0.3-1,0.3h0c-0.2,0-0.5,0-0.7-0.1c-0.2-0.1-0.4-0.2-0.5-0.4c-0.1-0.2-0.2-0.4-0.2-0.6
			c0-0.3,0.1-0.6,0.4-0.8C205.4,327.7,205.7,327.6,206.1,327.6L206.1,327.6z M206.1,328.1c-0.3,0-0.5,0.1-0.7,0.2
			c-0.2,0.1-0.3,0.3-0.3,0.5c0,0.2,0.1,0.4,0.3,0.5c0.2,0.1,0.4,0.2,0.7,0.2c0.3,0,0.5-0.1,0.7-0.2c0.2-0.1,0.3-0.3,0.3-0.5
			c0-0.2-0.1-0.4-0.3-0.5C206.6,328.1,206.4,328.1,206.1,328.1z M207.4,331l-0.3,0c0.2,0.2,0.4,0.5,0.4,0.8c0,0.5-0.3,0.8-0.9,0.8
			h-1.7v-0.4h1.7c0.2,0,0.3,0,0.4-0.1c0.1-0.1,0.1-0.2,0.1-0.4c0-0.1,0-0.3-0.1-0.4c-0.1-0.1-0.2-0.2-0.3-0.3h-1.8v-0.4h2.6V331z
			 M207,335.8c0-0.1,0-0.1,0-0.2c0-0.3-0.1-0.5-0.4-0.6h-1.8v-0.4h2.6v0.4l-0.3,0c0.2,0.1,0.3,0.3,0.3,0.6c0,0.1,0,0.1,0,0.2H207z
			 M204.8,337.7c0.1,0,0.1,0,0.3-0.1c-0.2-0.2-0.3-0.4-0.3-0.7c0-0.3,0.1-0.5,0.2-0.6c0.1-0.2,0.3-0.2,0.5-0.2
			c0.3,0,0.5,0.1,0.6,0.3c0.1,0.2,0.2,0.5,0.2,0.9v0.4h0.2c0.2,0,0.3,0,0.4-0.1c0.1-0.1,0.1-0.2,0.1-0.4c0-0.2,0-0.3-0.1-0.4
			c-0.1-0.1-0.2-0.2-0.3-0.2v-0.4c0.1,0,0.3,0,0.4,0.1c0.1,0.1,0.2,0.2,0.3,0.4c0.1,0.2,0.1,0.3,0.1,0.5c0,0.3-0.1,0.5-0.2,0.7
			c-0.1,0.2-0.3,0.3-0.6,0.3h-1.2c-0.2,0-0.4,0-0.6,0.1h0V337.7z M205.1,337c0,0.1,0,0.3,0.1,0.4c0.1,0.1,0.2,0.2,0.3,0.3h0.5v-0.3
			c0-0.5-0.2-0.8-0.5-0.8c-0.1,0-0.2,0-0.3,0.1C205.2,336.7,205.1,336.9,205.1,337z M208,339.4h-0.6v0.5H207v-0.5h-1.6
			c-0.1,0-0.2,0-0.2,0.1c-0.1,0-0.1,0.1-0.1,0.2c0,0.1,0,0.1,0,0.2h-0.4c0-0.1,0-0.2,0-0.3c0-0.2,0.1-0.3,0.2-0.4
			c0.1-0.1,0.3-0.1,0.5-0.1h1.6v-0.5h0.3v0.5h0.6V339.4z M204.8,341.5c0-0.3,0.1-0.6,0.3-0.8c0.2-0.2,0.5-0.3,0.9-0.3h0.1
			c0.3,0,0.5,0,0.7,0.1c0.2,0.1,0.4,0.2,0.5,0.4c0.1,0.2,0.2,0.4,0.2,0.6c0,0.3-0.1,0.6-0.3,0.8c-0.2,0.2-0.5,0.3-0.9,0.3H206v-1.7
			c-0.3,0-0.5,0.1-0.6,0.2c-0.2,0.1-0.2,0.3-0.2,0.5c0,0.2,0,0.3,0.1,0.4c0.1,0.1,0.1,0.2,0.3,0.3l-0.2,0.3
			C204.9,342.3,204.8,342,204.8,341.5z M207.1,341.5c0-0.2-0.1-0.3-0.2-0.4c-0.1-0.1-0.3-0.2-0.5-0.2v1.3h0c0.2,0,0.4-0.1,0.5-0.2
			C207,341.8,207.1,341.7,207.1,341.5z M206.1,343c0.4,0,0.7,0.1,0.9,0.3c0.2,0.2,0.4,0.4,0.4,0.7c0,0.3-0.1,0.5-0.3,0.7h1.3v0.4
			h-3.6v-0.4l0.3,0c-0.2-0.2-0.3-0.4-0.3-0.7c0-0.3,0.1-0.5,0.4-0.7C205.4,343.1,205.7,343,206.1,343L206.1,343z M206.1,343.4
			c-0.3,0-0.5,0.1-0.7,0.2c-0.2,0.1-0.2,0.3-0.2,0.5c0,0.3,0.1,0.5,0.4,0.6h1.2c0.2-0.1,0.4-0.3,0.4-0.6c0-0.2-0.1-0.4-0.2-0.5
			C206.6,343.5,206.4,343.4,206.1,343.4z"/>
		<path class="st5" d="M201.7,326.2l-2.8,2.8l-3-3l2.8-2.8L201.7,326.2z"/>
		<path class="st5" d="M160.7,352.9c1.4,0,2.4,1.1,2.4,2.4v46.5c0,1.4-1.1,2.4-2.4,2.4h-21c-1.4,0-2.4-1.1-2.4-2.4v-46.5
			c0-1.4,1.1-2.4,2.4-2.4H160.7z"/>
		<path class="st2" d="M155.7,357.8c0.1-0.4,0.2-0.7,0.4-0.9c0.2-0.2,0.4-0.3,0.6-0.3c0.3,0,0.5,0.1,0.7,0.3
			c0.2,0.2,0.3,0.5,0.3,0.8c0,0.2,0,0.4-0.1,0.6c-0.1,0.2-0.2,0.3-0.4,0.4c-0.2,0.1-0.3,0.2-0.5,0.2v-0.5c0.2,0,0.4-0.1,0.5-0.2
			c0.1-0.1,0.2-0.3,0.2-0.6c0-0.2,0-0.4-0.1-0.5c-0.1-0.1-0.2-0.2-0.4-0.2c-0.1,0-0.3,0.1-0.4,0.2c-0.1,0.1-0.2,0.3-0.3,0.6
			c-0.1,0.3-0.2,0.5-0.3,0.7c-0.1,0.2-0.2,0.3-0.3,0.4c-0.1,0.1-0.3,0.1-0.5,0.1c-0.3,0-0.5-0.1-0.7-0.3c-0.2-0.2-0.3-0.5-0.3-0.9
			c0-0.2,0-0.5,0.1-0.7c0.1-0.2,0.2-0.4,0.4-0.5c0.2-0.1,0.3-0.2,0.5-0.2v0.5c-0.2,0-0.4,0.1-0.5,0.2c-0.1,0.2-0.2,0.4-0.2,0.6
			c0,0.2,0,0.4,0.1,0.6c0.1,0.1,0.2,0.2,0.4,0.2c0.2,0,0.3-0.1,0.4-0.2C155.5,358.3,155.6,358.1,155.7,357.8z M154.4,361.2
			c-0.2-0.2-0.3-0.4-0.3-0.8c0-0.3,0.1-0.5,0.2-0.6c0.2-0.1,0.4-0.2,0.7-0.2h1.7v0.4h-1.7c-0.4,0-0.6,0.2-0.6,0.5
			c0,0.3,0.1,0.6,0.4,0.7h1.9v0.4h-2.6v-0.4L154.4,361.2z M154.5,363.4c0,0.2,0,0.3,0.1,0.4c0.1,0.1,0.2,0.2,0.4,0.2v0.4
			c-0.1,0-0.3-0.1-0.4-0.2c-0.1-0.1-0.2-0.2-0.3-0.4c-0.1-0.2-0.1-0.3-0.1-0.5c0-0.3,0.1-0.6,0.3-0.8c0.2-0.2,0.6-0.3,1-0.3h0.1
			c0.2,0,0.5,0,0.7,0.1c0.2,0.1,0.3,0.2,0.5,0.4c0.1,0.2,0.2,0.4,0.2,0.6c0,0.3-0.1,0.5-0.3,0.7c-0.2,0.2-0.4,0.3-0.7,0.3V364
			c0.2,0,0.3-0.1,0.4-0.2c0.1-0.1,0.2-0.3,0.2-0.4c0-0.2-0.1-0.4-0.2-0.5c-0.2-0.1-0.4-0.2-0.7-0.2h-0.1c-0.3,0-0.5,0.1-0.7,0.2
			C154.5,363,154.5,363.2,154.5,363.4z M154.5,366c0,0.2,0,0.3,0.1,0.4c0.1,0.1,0.2,0.2,0.4,0.2v0.4c-0.1,0-0.3-0.1-0.4-0.2
			c-0.1-0.1-0.2-0.2-0.3-0.4c-0.1-0.2-0.1-0.3-0.1-0.5c0-0.3,0.1-0.6,0.3-0.8c0.2-0.2,0.6-0.3,1-0.3h0.1c0.2,0,0.5,0,0.7,0.1
			c0.2,0.1,0.3,0.2,0.5,0.4c0.1,0.2,0.2,0.4,0.2,0.6c0,0.3-0.1,0.5-0.3,0.7c-0.2,0.2-0.4,0.3-0.7,0.3v-0.4c0.2,0,0.3-0.1,0.4-0.2
			c0.1-0.1,0.2-0.3,0.2-0.4c0-0.2-0.1-0.4-0.2-0.5c-0.2-0.1-0.4-0.2-0.7-0.2h-0.1c-0.3,0-0.5,0.1-0.7,0.2
			C154.5,365.6,154.5,365.8,154.5,366z M154.1,368.6c0-0.3,0.1-0.6,0.3-0.8c0.2-0.2,0.5-0.3,0.9-0.3h0.1c0.3,0,0.5,0,0.7,0.1
			c0.2,0.1,0.4,0.2,0.5,0.4c0.1,0.2,0.2,0.4,0.2,0.6c0,0.3-0.1,0.6-0.3,0.8c-0.2,0.2-0.5,0.3-0.9,0.3h-0.2v-1.7
			c-0.3,0-0.5,0.1-0.6,0.2c-0.2,0.1-0.2,0.3-0.2,0.5c0,0.2,0,0.3,0.1,0.4s0.1,0.2,0.3,0.3l-0.2,0.3
			C154.3,369.4,154.1,369,154.1,368.6z M156.4,368.6c0-0.2-0.1-0.3-0.2-0.4c-0.1-0.1-0.3-0.2-0.5-0.2v1.3h0c0.2,0,0.4-0.1,0.5-0.2
			C156.3,368.9,156.4,368.7,156.4,368.6z M154.8,371.7c0.1,0,0.2,0,0.3-0.1c0.1-0.1,0.1-0.2,0.2-0.5c0-0.2,0.1-0.4,0.2-0.5
			c0.1-0.1,0.1-0.2,0.2-0.3c0.1-0.1,0.2-0.1,0.3-0.1c0.2,0,0.4,0.1,0.5,0.3c0.1,0.2,0.2,0.4,0.2,0.7c0,0.3-0.1,0.5-0.2,0.7
			c-0.2,0.2-0.3,0.3-0.6,0.3v-0.4c0.1,0,0.2-0.1,0.3-0.2c0.1-0.1,0.1-0.2,0.1-0.4c0-0.2,0-0.3-0.1-0.4c-0.1-0.1-0.2-0.1-0.3-0.1
			c-0.1,0-0.2,0-0.2,0.1c-0.1,0.1-0.1,0.2-0.2,0.5c0,0.2-0.1,0.4-0.2,0.5c-0.1,0.1-0.1,0.2-0.2,0.3c-0.1,0.1-0.2,0.1-0.3,0.1
			c-0.2,0-0.4-0.1-0.6-0.3c-0.1-0.2-0.2-0.4-0.2-0.7c0-0.2,0-0.4,0.1-0.5c0.1-0.2,0.2-0.3,0.3-0.4c0.1-0.1,0.3-0.1,0.4-0.1v0.4
			c-0.1,0-0.3,0.1-0.4,0.2c-0.1,0.1-0.1,0.3-0.1,0.4c0,0.2,0,0.3,0.1,0.4C154.6,371.6,154.7,371.7,154.8,371.7z M154.8,374.2
			c0.1,0,0.2,0,0.3-0.1c0.1-0.1,0.1-0.2,0.2-0.5c0-0.2,0.1-0.4,0.2-0.5c0.1-0.1,0.1-0.2,0.2-0.3c0.1-0.1,0.2-0.1,0.3-0.1
			c0.2,0,0.4,0.1,0.5,0.3c0.1,0.2,0.2,0.4,0.2,0.7c0,0.3-0.1,0.5-0.2,0.7c-0.2,0.2-0.3,0.3-0.6,0.3v-0.4c0.1,0,0.2-0.1,0.3-0.2
			c0.1-0.1,0.1-0.2,0.1-0.4c0-0.2,0-0.3-0.1-0.4c-0.1-0.1-0.2-0.1-0.3-0.1c-0.1,0-0.2,0-0.2,0.1c-0.1,0.1-0.1,0.2-0.2,0.5
			c0,0.2-0.1,0.4-0.2,0.5c-0.1,0.1-0.1,0.2-0.2,0.3c-0.1,0.1-0.2,0.1-0.3,0.1c-0.2,0-0.4-0.1-0.6-0.3c-0.1-0.2-0.2-0.4-0.2-0.7
			c0-0.2,0-0.4,0.1-0.5c0.1-0.2,0.2-0.3,0.3-0.4c0.1-0.1,0.3-0.1,0.4-0.1v0.4c-0.1,0-0.3,0.1-0.4,0.2c-0.1,0.1-0.1,0.3-0.1,0.4
			c0,0.2,0,0.3,0.1,0.4C154.6,374.2,154.7,374.2,154.8,374.2z M154.8,378c0.1,0,0.2,0,0.3-0.1c0.1-0.1,0.1-0.2,0.2-0.5
			c0-0.2,0.1-0.4,0.2-0.5c0.1-0.1,0.1-0.2,0.2-0.3c0.1-0.1,0.2-0.1,0.3-0.1c0.2,0,0.4,0.1,0.5,0.3c0.1,0.2,0.2,0.4,0.2,0.7
			c0,0.3-0.1,0.5-0.2,0.7c-0.2,0.2-0.3,0.3-0.6,0.3V378c0.1,0,0.2-0.1,0.3-0.2c0.1-0.1,0.1-0.2,0.1-0.4c0-0.2,0-0.3-0.1-0.4
			c-0.1-0.1-0.2-0.1-0.3-0.1c-0.1,0-0.2,0-0.2,0.1c-0.1,0.1-0.1,0.2-0.2,0.5c0,0.2-0.1,0.4-0.2,0.5c-0.1,0.1-0.1,0.2-0.2,0.3
			c-0.1,0.1-0.2,0.1-0.3,0.1c-0.2,0-0.4-0.1-0.6-0.3c-0.1-0.2-0.2-0.4-0.2-0.7c0-0.2,0-0.4,0.1-0.5c0.1-0.2,0.2-0.3,0.3-0.4
			c0.1-0.1,0.3-0.1,0.4-0.1v0.4c-0.1,0-0.3,0.1-0.4,0.2c-0.1,0.1-0.1,0.3-0.1,0.4c0,0.2,0,0.3,0.1,0.4
			C154.6,378,154.7,378,154.8,378z M154.5,380.1c0,0.2,0,0.3,0.1,0.4c0.1,0.1,0.2,0.2,0.4,0.2v0.4c-0.1,0-0.3-0.1-0.4-0.2
			c-0.1-0.1-0.2-0.2-0.3-0.4c-0.1-0.2-0.1-0.3-0.1-0.5c0-0.3,0.1-0.6,0.3-0.8c0.2-0.2,0.6-0.3,1-0.3h0.1c0.2,0,0.5,0,0.7,0.1
			c0.2,0.1,0.3,0.2,0.5,0.4c0.1,0.2,0.2,0.4,0.2,0.6c0,0.3-0.1,0.5-0.3,0.7c-0.2,0.2-0.4,0.3-0.7,0.3v-0.4c0.2,0,0.3-0.1,0.4-0.2
			c0.1-0.1,0.2-0.3,0.2-0.4c0-0.2-0.1-0.4-0.2-0.5c-0.2-0.1-0.4-0.2-0.7-0.2h-0.1c-0.3,0-0.5,0.1-0.7,0.2S154.5,379.9,154.5,380.1z
			 M156.3,382.9c0-0.1,0-0.1,0-0.2c0-0.3-0.1-0.5-0.4-0.6h-1.8v-0.4h2.6v0.4l-0.3,0c0.2,0.1,0.3,0.3,0.3,0.6c0,0.1,0,0.1,0,0.2
			H156.3z M154.1,384.4c0-0.3,0.1-0.6,0.3-0.8c0.2-0.2,0.5-0.3,0.9-0.3h0.1c0.3,0,0.5,0,0.7,0.1c0.2,0.1,0.4,0.2,0.5,0.4
			c0.1,0.2,0.2,0.4,0.2,0.6c0,0.3-0.1,0.6-0.3,0.8c-0.2,0.2-0.5,0.3-0.9,0.3h-0.2v-1.7c-0.3,0-0.5,0.1-0.6,0.2
			c-0.2,0.1-0.2,0.3-0.2,0.5c0,0.2,0,0.3,0.1,0.4c0.1,0.1,0.1,0.2,0.3,0.3l-0.2,0.3C154.3,385.1,154.1,384.8,154.1,384.4z
			 M156.4,384.3c0-0.2-0.1-0.3-0.2-0.4c-0.1-0.1-0.3-0.2-0.5-0.2v1.3h0c0.2,0,0.4-0.1,0.5-0.2C156.3,384.7,156.4,384.5,156.4,384.3z
			 M154.1,387c0-0.3,0.1-0.6,0.3-0.8c0.2-0.2,0.5-0.3,0.9-0.3h0.1c0.3,0,0.5,0,0.7,0.1c0.2,0.1,0.4,0.2,0.5,0.4
			c0.1,0.2,0.2,0.4,0.2,0.6c0,0.3-0.1,0.6-0.3,0.8c-0.2,0.2-0.5,0.3-0.9,0.3h-0.2v-1.7c-0.3,0-0.5,0.1-0.6,0.2
			c-0.2,0.1-0.2,0.3-0.2,0.5c0,0.2,0,0.3,0.1,0.4c0.1,0.1,0.1,0.2,0.3,0.3l-0.2,0.3C154.3,387.8,154.1,387.4,154.1,387z M156.4,387
			c0-0.2-0.1-0.3-0.2-0.4c-0.1-0.1-0.3-0.2-0.5-0.2v1.3h0c0.2,0,0.4-0.1,0.5-0.2C156.3,387.3,156.4,387.1,156.4,387z M156.7,389
			l-0.3,0c0.2,0.2,0.4,0.5,0.4,0.8c0,0.5-0.3,0.8-0.9,0.8h-1.7v-0.4h1.7c0.2,0,0.3,0,0.4-0.1c0.1-0.1,0.1-0.2,0.1-0.4
			c0-0.1,0-0.3-0.1-0.4c-0.1-0.1-0.2-0.2-0.3-0.3h-1.8v-0.4h2.6V389z M155.1,391.8v-0.4l2.5,0v0.5L155.1,391.8z M154.4,391.3
			c0.1,0,0.1,0,0.2,0.1c0,0,0.1,0.1,0.1,0.2s0,0.1-0.1,0.2c0,0-0.1,0.1-0.2,0.1s-0.1,0-0.2-0.1c0,0-0.1-0.1-0.1-0.2s0-0.1,0.1-0.2
			C154.2,391.4,154.3,391.3,154.4,391.3z M155,395.8v-1.4l-0.9-0.3v-0.5l3.4,1.3v0.4l-3.4,1.3v-0.5L155,395.8z M155.4,394.5v1.2
			l1.6-0.6L155.4,394.5z M154.8,398.6c0.1,0,0.2,0,0.3-0.1c0.1-0.1,0.1-0.2,0.2-0.5c0-0.2,0.1-0.4,0.2-0.5c0.1-0.1,0.1-0.2,0.2-0.3
			c0.1-0.1,0.2-0.1,0.3-0.1c0.2,0,0.4,0.1,0.5,0.3c0.1,0.2,0.2,0.4,0.2,0.7c0,0.3-0.1,0.5-0.2,0.7c-0.2,0.2-0.3,0.3-0.6,0.3v-0.4
			c0.1,0,0.2-0.1,0.3-0.2c0.1-0.1,0.1-0.2,0.1-0.4c0-0.2,0-0.3-0.1-0.4c-0.1-0.1-0.2-0.1-0.3-0.1c-0.1,0-0.2,0-0.2,0.1
			c-0.1,0.1-0.1,0.2-0.2,0.5c0,0.2-0.1,0.4-0.2,0.5c-0.1,0.1-0.1,0.2-0.2,0.3c-0.1,0.1-0.2,0.1-0.3,0.1c-0.2,0-0.4-0.1-0.6-0.3
			c-0.1-0.2-0.2-0.4-0.2-0.7c0-0.2,0-0.4,0.1-0.5c0.1-0.2,0.2-0.3,0.3-0.4c0.1-0.1,0.3-0.1,0.4-0.1v0.4c-0.1,0-0.3,0.1-0.4,0.2
			c-0.1,0.1-0.1,0.3-0.1,0.4c0,0.2,0,0.3,0.1,0.4C154.6,398.5,154.7,398.6,154.8,398.6z M155.3,400.3l-0.3-0.3h-0.9v-0.4h3.6v0.4
			h-2.2l0.3,0.2l0.8,0.8v0.5l-1.1-1l-1.5,1.1v-0.5L155.3,400.3z M151.9,357.3h-0.6v0.5h-0.3v-0.5h-1.6c-0.1,0-0.2,0-0.2,0.1
			c-0.1,0-0.1,0.1-0.1,0.2c0,0.1,0,0.1,0,0.2h-0.4c0-0.1,0-0.2,0-0.3c0-0.2,0.1-0.3,0.2-0.4c0.1-0.1,0.3-0.1,0.5-0.1h1.6v-0.5h0.3
			v0.5h0.6V357.3z M150.9,358.8c0.2,0.2,0.4,0.4,0.4,0.8c0,0.5-0.3,0.8-0.9,0.8h-1.7v-0.4h1.7c0.2,0,0.3,0,0.4-0.1
			c0.1-0.1,0.1-0.2,0.1-0.4c0-0.1,0-0.3-0.1-0.4s-0.2-0.2-0.3-0.3h-1.8v-0.4h3.6v0.4H150.9z M148.6,362.1c0-0.3,0.1-0.6,0.3-0.8
			c0.2-0.2,0.5-0.3,0.9-0.3h0.1c0.3,0,0.5,0,0.7,0.1c0.2,0.1,0.4,0.2,0.5,0.4c0.1,0.2,0.2,0.4,0.2,0.6c0,0.3-0.1,0.6-0.3,0.8
			c-0.2,0.2-0.5,0.3-0.9,0.3h-0.2v-1.7c-0.3,0-0.5,0.1-0.6,0.2c-0.2,0.1-0.2,0.3-0.2,0.5c0,0.2,0,0.3,0.1,0.4s0.1,0.2,0.3,0.3
			l-0.2,0.3C148.8,362.9,148.6,362.6,148.6,362.1z M150.9,362.1c0-0.2-0.1-0.3-0.2-0.4c-0.1-0.1-0.3-0.2-0.5-0.2v1.3h0
			c0.2,0,0.4-0.1,0.5-0.2C150.9,362.4,150.9,362.3,150.9,362.1z M151.3,364.1l-0.3,0c0.2,0.2,0.3,0.4,0.3,0.8c0,0.4-0.1,0.6-0.4,0.7
			c0.1,0.1,0.2,0.2,0.3,0.3c0.1,0.1,0.1,0.3,0.1,0.5c0,0.6-0.3,0.8-0.9,0.9h-1.7v-0.4h1.7c0.2,0,0.3,0,0.4-0.1
			c0.1-0.1,0.1-0.2,0.1-0.4c0-0.2,0-0.3-0.1-0.4c-0.1-0.1-0.2-0.2-0.4-0.2h-1.7v-0.4h1.7c0.4,0,0.6-0.2,0.6-0.5
			c0-0.3-0.1-0.5-0.4-0.6h-1.9v-0.4h2.6V364.1z M151.9,369.8h-0.6v0.5h-0.3v-0.5h-1.6c-0.1,0-0.2,0-0.2,0.1c-0.1,0-0.1,0.1-0.1,0.2
			c0,0.1,0,0.1,0,0.2h-0.4c0-0.1,0-0.2,0-0.3c0-0.2,0.1-0.3,0.2-0.4c0.1-0.1,0.3-0.1,0.5-0.1h1.6v-0.5h0.3v0.5h0.6V369.8z
			 M150,370.7c0.3,0,0.5,0,0.7,0.1c0.2,0.1,0.4,0.2,0.5,0.4c0.1,0.2,0.2,0.4,0.2,0.6c0,0.3-0.1,0.6-0.4,0.8c-0.2,0.2-0.6,0.3-1,0.3
			h0c-0.2,0-0.5,0-0.7-0.1c-0.2-0.1-0.4-0.2-0.5-0.4c-0.1-0.2-0.2-0.4-0.2-0.6c0-0.3,0.1-0.6,0.4-0.8
			C149.2,370.8,149.6,370.7,150,370.7L150,370.7z M149.9,371.2c-0.3,0-0.5,0.1-0.7,0.2c-0.2,0.1-0.3,0.3-0.3,0.5
			c0,0.2,0.1,0.4,0.3,0.5c0.2,0.1,0.4,0.2,0.7,0.2c0.3,0,0.5-0.1,0.7-0.2c0.2-0.1,0.3-0.3,0.3-0.5c0-0.2-0.1-0.4-0.3-0.5
			S150.3,371.2,149.9,371.2z M149.4,376.4c0.1,0,0.2,0,0.3-0.1c0.1-0.1,0.1-0.2,0.2-0.5c0-0.2,0.1-0.4,0.2-0.5
			c0.1-0.1,0.1-0.2,0.2-0.3c0.1-0.1,0.2-0.1,0.3-0.1c0.2,0,0.4,0.1,0.5,0.3c0.1,0.2,0.2,0.4,0.2,0.7c0,0.3-0.1,0.5-0.2,0.7
			c-0.2,0.2-0.3,0.3-0.6,0.3v-0.4c0.1,0,0.2-0.1,0.3-0.2c0.1-0.1,0.1-0.2,0.1-0.4c0-0.2,0-0.3-0.1-0.4c-0.1-0.1-0.2-0.1-0.3-0.1
			c-0.1,0-0.2,0-0.2,0.1c-0.1,0.1-0.1,0.2-0.2,0.5c0,0.2-0.1,0.4-0.2,0.5c-0.1,0.1-0.1,0.2-0.2,0.3c-0.1,0.1-0.2,0.1-0.3,0.1
			c-0.2,0-0.4-0.1-0.6-0.3c-0.1-0.2-0.2-0.4-0.2-0.7c0-0.2,0-0.4,0.1-0.5c0.1-0.2,0.2-0.3,0.3-0.4c0.1-0.1,0.3-0.1,0.4-0.1v0.4
			c-0.1,0-0.3,0.1-0.4,0.2c-0.1,0.1-0.1,0.3-0.1,0.4c0,0.2,0,0.3,0.1,0.4C149.2,376.4,149.3,376.4,149.4,376.4z M148.9,379
			c-0.2-0.2-0.3-0.4-0.3-0.8c0-0.3,0.1-0.5,0.2-0.6c0.2-0.1,0.4-0.2,0.7-0.2h1.7v0.4h-1.7c-0.4,0-0.6,0.2-0.6,0.5
			c0,0.3,0.1,0.6,0.4,0.7h1.9v0.4h-2.6v-0.4L148.9,379z M149.9,382.4c-0.4,0-0.7-0.1-0.9-0.3c-0.2-0.2-0.4-0.4-0.4-0.7
			c0-0.3,0.1-0.6,0.3-0.8l-0.3,0v-0.4h3.6v0.4H151c0.2,0.2,0.3,0.4,0.3,0.7c0,0.3-0.1,0.6-0.4,0.7
			C150.7,382.3,150.4,382.4,149.9,382.4L149.9,382.4z M150,381.9c0.3,0,0.5-0.1,0.7-0.2s0.2-0.3,0.2-0.5c0-0.3-0.1-0.5-0.4-0.6h-1.1
			c-0.3,0.1-0.4,0.3-0.4,0.6c0,0.2,0.1,0.4,0.2,0.5C149.4,381.9,149.7,381.9,150,381.9z M151.3,383.4l-0.3,0
			c0.2,0.2,0.3,0.4,0.3,0.8c0,0.4-0.1,0.6-0.4,0.7c0.1,0.1,0.2,0.2,0.3,0.3c0.1,0.1,0.1,0.3,0.1,0.5c0,0.6-0.3,0.8-0.9,0.9h-1.7
			v-0.4h1.7c0.2,0,0.3,0,0.4-0.1c0.1-0.1,0.1-0.2,0.1-0.4c0-0.2,0-0.3-0.1-0.4c-0.1-0.1-0.2-0.2-0.4-0.2h-1.7v-0.4h1.7
			c0.4,0,0.6-0.2,0.6-0.5c0-0.3-0.1-0.5-0.4-0.6h-1.9V383h2.6V383.4z M148.7,387.8v-0.4h2.6v0.4H148.7z M151.9,387.3
			c0.1,0,0.1,0,0.2,0.1c0,0,0.1,0.1,0.1,0.2s0,0.1-0.1,0.2c0,0-0.1,0.1-0.2,0.1c-0.1,0-0.1,0-0.2-0.1s-0.1-0.1-0.1-0.2
			s0-0.1,0.1-0.2C151.8,387.3,151.9,387.3,151.9,387.3z M151.9,389.1h-0.6v0.5h-0.3v-0.5h-1.6c-0.1,0-0.2,0-0.2,0.1
			c-0.1,0-0.1,0.1-0.1,0.2c0,0.1,0,0.1,0,0.2h-0.4c0-0.1,0-0.2,0-0.3c0-0.2,0.1-0.3,0.2-0.4c0.1-0.1,0.3-0.1,0.5-0.1h1.6v-0.5h0.3
			v0.5h0.6V389.1z M148.7,393c0.1,0,0.1,0,0.3-0.1c-0.2-0.2-0.3-0.4-0.3-0.7c0-0.3,0.1-0.5,0.2-0.6c0.1-0.2,0.3-0.2,0.5-0.2
			c0.3,0,0.5,0.1,0.6,0.3c0.1,0.2,0.2,0.5,0.2,0.9v0.4h0.2c0.2,0,0.3,0,0.4-0.1c0.1-0.1,0.1-0.2,0.1-0.4c0-0.2,0-0.3-0.1-0.4
			c-0.1-0.1-0.2-0.2-0.3-0.2v-0.4c0.1,0,0.3,0,0.4,0.1c0.1,0.1,0.2,0.2,0.3,0.4c0.1,0.2,0.1,0.3,0.1,0.5c0,0.3-0.1,0.5-0.2,0.7
			c-0.1,0.2-0.3,0.3-0.6,0.3h-1.2c-0.2,0-0.4,0-0.6,0.1h0V393z M149,392.3c0,0.1,0,0.3,0.1,0.4c0.1,0.1,0.2,0.2,0.3,0.3h0.5v-0.3
			c0-0.5-0.2-0.8-0.5-0.8c-0.1,0-0.2,0-0.3,0.1C149.1,392,149,392.1,149,392.3z M144.5,356.6c0.4,0,0.7,0.1,1,0.3
			c0.2,0.2,0.4,0.4,0.4,0.7c0,0.3-0.1,0.5-0.3,0.7l0.3,0v0.4h-3.5v-0.4h1.2c-0.2-0.2-0.3-0.4-0.3-0.7c0-0.3,0.1-0.6,0.4-0.7
			C143.8,356.7,144.1,356.6,144.5,356.6L144.5,356.6z M144.5,357c-0.3,0-0.5,0.1-0.7,0.2c-0.2,0.1-0.3,0.3-0.3,0.5
			c0,0.3,0.1,0.5,0.3,0.6h1.3c0.2-0.1,0.3-0.3,0.3-0.6c0-0.2-0.1-0.4-0.3-0.5C145.1,357.1,144.8,357,144.5,357z M143.5,361.1
			c-0.2-0.2-0.3-0.4-0.3-0.8c0-0.3,0.1-0.5,0.2-0.6c0.2-0.1,0.4-0.2,0.7-0.2h1.7v0.4h-1.7c-0.4,0-0.6,0.2-0.6,0.5
			c0,0.3,0.1,0.6,0.4,0.7h1.9v0.4h-2.6v-0.4L143.5,361.1z M143.2,363.3c0-0.3,0.1-0.6,0.3-0.8c0.2-0.2,0.5-0.3,0.9-0.3h0.1
			c0.3,0,0.5,0,0.7,0.1c0.2,0.1,0.4,0.2,0.5,0.4c0.1,0.2,0.2,0.4,0.2,0.6c0,0.3-0.1,0.6-0.3,0.8c-0.2,0.2-0.5,0.3-0.9,0.3h-0.2v-1.7
			c-0.3,0-0.5,0.1-0.6,0.2c-0.2,0.1-0.2,0.3-0.2,0.5c0,0.2,0,0.3,0.1,0.4c0.1,0.1,0.1,0.2,0.3,0.3l-0.2,0.3
			C143.4,364.1,143.2,363.7,143.2,363.3z M145.5,363.2c0-0.2-0.1-0.3-0.2-0.4c-0.1-0.1-0.3-0.2-0.5-0.2v1.3h0c0.2,0,0.4-0.1,0.5-0.2
			C145.4,363.6,145.5,363.4,145.5,363.2z M143.9,366.4c0.1,0,0.2,0,0.3-0.1c0.1-0.1,0.1-0.2,0.2-0.5c0-0.2,0.1-0.4,0.2-0.5
			c0.1-0.1,0.1-0.2,0.2-0.3c0.1-0.1,0.2-0.1,0.3-0.1c0.2,0,0.4,0.1,0.5,0.3c0.1,0.2,0.2,0.4,0.2,0.7c0,0.3-0.1,0.5-0.2,0.7
			c-0.2,0.2-0.3,0.3-0.6,0.3v-0.4c0.1,0,0.2-0.1,0.3-0.2c0.1-0.1,0.1-0.2,0.1-0.4c0-0.2,0-0.3-0.1-0.4c-0.1-0.1-0.2-0.1-0.3-0.1
			c-0.1,0-0.2,0-0.2,0.1c-0.1,0.1-0.1,0.2-0.2,0.5c0,0.2-0.1,0.4-0.2,0.5s-0.1,0.2-0.2,0.3c-0.1,0.1-0.2,0.1-0.3,0.1
			c-0.2,0-0.4-0.1-0.6-0.3c-0.1-0.2-0.2-0.4-0.2-0.7c0-0.2,0-0.4,0.1-0.5c0.1-0.2,0.2-0.3,0.3-0.4c0.1-0.1,0.3-0.1,0.4-0.1v0.4
			c-0.1,0-0.3,0.1-0.4,0.2c-0.1,0.1-0.1,0.3-0.1,0.4c0,0.2,0,0.3,0.1,0.4C143.7,366.3,143.8,366.4,143.9,366.4z M146.4,368h-0.6v0.5
			h-0.3V368h-1.6c-0.1,0-0.2,0-0.2,0.1c-0.1,0-0.1,0.1-0.1,0.2c0,0.1,0,0.1,0,0.2h-0.4c0-0.1,0-0.2,0-0.3c0-0.2,0.1-0.3,0.2-0.4
			c0.1-0.1,0.3-0.1,0.5-0.1h1.6v-0.5h0.3v0.5h0.6V368z M143.2,369.5v-0.4h2.6v0.4H143.2z M146.5,369.1c0.1,0,0.1,0,0.2,0.1
			c0,0,0.1,0.1,0.1,0.2c0,0.1,0,0.1-0.1,0.2c0,0-0.1,0.1-0.2,0.1c-0.1,0-0.1,0-0.2-0.1c0,0-0.1-0.1-0.1-0.2c0-0.1,0-0.2,0.1-0.2
			C146.3,369.1,146.4,369.1,146.5,369.1z M144.5,370.2c0.3,0,0.5,0,0.7,0.1c0.2,0.1,0.4,0.2,0.5,0.4c0.1,0.2,0.2,0.4,0.2,0.6
			c0,0.3-0.1,0.6-0.4,0.8c-0.2,0.2-0.6,0.3-1,0.3h0c-0.2,0-0.5,0-0.7-0.1c-0.2-0.1-0.4-0.2-0.5-0.4c-0.1-0.2-0.2-0.4-0.2-0.6
			c0-0.3,0.1-0.6,0.4-0.8C143.8,370.3,144.1,370.2,144.5,370.2L144.5,370.2z M144.5,370.6c-0.3,0-0.5,0.1-0.7,0.2
			c-0.2,0.1-0.3,0.3-0.3,0.5c0,0.2,0.1,0.4,0.3,0.5c0.2,0.1,0.4,0.2,0.7,0.2c0.3,0,0.5-0.1,0.7-0.2c0.2-0.1,0.3-0.3,0.3-0.5
			c0-0.2-0.1-0.4-0.3-0.5S144.8,370.6,144.5,370.6z M145.8,373.5l-0.3,0c0.2,0.2,0.4,0.5,0.4,0.8c0,0.5-0.3,0.8-0.9,0.8h-1.7v-0.4
			h1.7c0.2,0,0.3,0,0.4-0.1c0.1-0.1,0.1-0.2,0.1-0.4c0-0.1,0-0.3-0.1-0.4s-0.2-0.2-0.3-0.3h-1.8v-0.4h2.6V373.5z M143.5,375.8
			c0.1,0,0.1,0,0.2,0.1c0.1,0,0.1,0.1,0.1,0.2c0,0.1,0,0.2-0.1,0.2c-0.1,0-0.1,0.1-0.2,0.1c-0.1,0-0.1,0-0.2-0.1
			c0,0-0.1-0.1-0.1-0.2c0-0.1,0-0.2,0.1-0.2C143.3,375.9,143.4,375.8,143.5,375.8z"/>
		<path class="st5" d="M165.6,379.5l-2.8,2.8l-3-3l2.8-2.8L165.6,379.5z"/>
	</g>
</g>
</svg>
